0
SECTION
2
HEADER
9
$ACADVER
1
AC1008
9
$UCSORG
10
0.0
20
0.0
30
0.0
9
$UCSXDIR
10
1.0
20
0.0
30
0.0
9
$TILEMODE
70
1
9
$UCSYDIR
10
0.0
20
1.0
30
0.0
9
$EXTMIN
10
-885.523438
20
-1536.000000
30
-2176.000000
9
$EXTMAX
10
2560.000000
20
576.000000
30
672.000000
0
ENDSEC
0
SECTION
2
TABLES
0
TABLE
2
LTYPE
70
1
0
LTYPE
2
CONTINUOUS
70
64
3
Solid line
72
65
73
0
40
0.0
0
ENDTAB
0
TABLE
2
LAYER
70
1
0
LAYER
2
0
70
0
62
7
6
CONTINUOUS
0
ENDTAB
0
TABLE
2
STYLE
70
1
0
STYLE
2
STANDARD
70
0
40
0.0
41
1.0
50
0.0
71
0
42
0.2
3
txt
4

0
ENDTAB
0
TABLE
2
UCS
70
0
0
ENDTAB
0
ENDSEC
0
SECTION
2
ENTITIES
0
POLYLINE
8
OBJECT000
66
1
70
64
71
8
72
12
62
50
0
VERTEX
8
OBJECT000
10
576.000000
20
-1472.000000
30
448.000000
70
192
0
VERTEX
8
OBJECT000
10
576.000000
20
-1536.000000
30
448.000000
70
192
0
VERTEX
8
OBJECT000
10
-576.000000
20
-1536.000000
30
448.000000
70
192
0
VERTEX
8
OBJECT000
10
-576.000000
20
-1472.000000
30
448.000000
70
192
0
VERTEX
8
OBJECT000
10
576.000000
20
-1536.000000
30
-2176.000000
70
192
0
VERTEX
8
OBJECT000
10
576.000000
20
-1472.000000
30
-2176.000000
70
192
0
VERTEX
8
OBJECT000
10
-576.000000
20
-1472.000000
30
-2176.000000
70
192
0
VERTEX
8
OBJECT000
10
-576.000000
20
-1536.000000
30
-2176.000000
70
192
0
VERTEX
8
OBJECT000
10
0
20
0
30
0
70
128
71
2
72
3
73
-4
0
VERTEX
8
OBJECT000
10
0
20
0
30
0
70
128
71
-2
72
4
73
1
0
VERTEX
8
OBJECT000
10
0
20
0
30
0
70
128
71
6
72
7
73
-8
0
VERTEX
8
OBJECT000
10
0
20
0
30
0
70
128
71
-6
72
8
73
5
0
VERTEX
8
OBJECT000
10
0
20
0
30
0
70
128
71
3
72
8
73
-7
0
VERTEX
8
OBJECT000
10
0
20
0
30
0
70
128
71
-3
72
7
73
4
0
VERTEX
8
OBJECT000
10
0
20
0
30
0
70
128
71
1
72
6
73
-5
0
VERTEX
8
OBJECT000
10
0
20
0
30
0
70
128
71
-1
72
5
73
2
0
VERTEX
8
OBJECT000
10
0
20
0
30
0
70
128
71
4
72
7
73
-6
0
VERTEX
8
OBJECT000
10
0
20
0
30
0
70
128
71
-4
72
6
73
1
0
VERTEX
8
OBJECT000
10
0
20
0
30
0
70
128
71
2
72
5
73
-8
0
VERTEX
8
OBJECT000
10
0
20
0
30
0
70
128
71
-2
72
8
73
3
0
SEQEND
8
OBJECT000
0
POLYLINE
8
OBJECT001
66
1
70
64
71
8
72
12
62
50
0
VERTEX
8
OBJECT001
10
-768.000000
20
512.000000
30
448.000000
70
192
0
VERTEX
8
OBJECT001
10
-768.000000
20
-1280.000000
30
448.000000
70
192
0
VERTEX
8
OBJECT001
10
-832.000000
20
-1280.000000
30
448.000000
70
192
0
VERTEX
8
OBJECT001
10
-832.000000
20
512.000000
30
448.000000
70
192
0
VERTEX
8
OBJECT001
10
-768.000000
20
-1280.000000
30
-2176.000000
70
192
0
VERTEX
8
OBJECT001
10
-768.000000
20
512.000000
30
-2176.000000
70
192
0
VERTEX
8
OBJECT001
10
-832.000000
20
512.000000
30
-2176.000000
70
192
0
VERTEX
8
OBJECT001
10
-832.000000
20
-1280.000000
30
-2176.000000
70
192
0
VERTEX
8
OBJECT001
10
0
20
0
30
0
70
128
71
2
72
3
73
-4
0
VERTEX
8
OBJECT001
10
0
20
0
30
0
70
128
71
-2
72
4
73
1
0
VERTEX
8
OBJECT001
10
0
20
0
30
0
70
128
71
6
72
7
73
-8
0
VERTEX
8
OBJECT001
10
0
20
0
30
0
70
128
71
-6
72
8
73
5
0
VERTEX
8
OBJECT001
10
0
20
0
30
0
70
128
71
3
72
8
73
-7
0
VERTEX
8
OBJECT001
10
0
20
0
30
0
70
128
71
-3
72
7
73
4
0
VERTEX
8
OBJECT001
10
0
20
0
30
0
70
128
71
1
72
6
73
-5
0
VERTEX
8
OBJECT001
10
0
20
0
30
0
70
128
71
-1
72
5
73
2
0
VERTEX
8
OBJECT001
10
0
20
0
30
0
70
128
71
4
72
7
73
-6
0
VERTEX
8
OBJECT001
10
0
20
0
30
0
70
128
71
-4
72
6
73
1
0
VERTEX
8
OBJECT001
10
0
20
0
30
0
70
128
71
2
72
5
73
-8
0
VERTEX
8
OBJECT001
10
0
20
0
30
0
70
128
71
-2
72
8
73
3
0
SEQEND
8
OBJECT001
0
POLYLINE
8
OBJECT002
66
1
70
64
71
8
72
12
62
50
0
VERTEX
8
OBJECT002
10
768.000000
20
576.000000
30
-2176.000000
70
192
0
VERTEX
8
OBJECT002
10
-768.000000
20
576.000000
30
-2176.000000
70
192
0
VERTEX
8
OBJECT002
10
-768.000000
20
512.000000
30
-2176.000000
70
192
0
VERTEX
8
OBJECT002
10
768.000000
20
512.000000
30
-2176.000000
70
192
0
VERTEX
8
OBJECT002
10
-768.000000
20
576.000000
30
64.000000
70
192
0
VERTEX
8
OBJECT002
10
-768.000000
20
512.000000
30
64.000000
70
192
0
VERTEX
8
OBJECT002
10
768.000000
20
512.000000
30
64.000000
70
192
0
VERTEX
8
OBJECT002
10
768.000000
20
576.000000
30
64.000000
70
192
0
VERTEX
8
OBJECT002
10
0
20
0
30
0
70
128
71
2
72
3
73
-4
0
VERTEX
8
OBJECT002
10
0
20
0
30
0
70
128
71
-2
72
4
73
1
0
VERTEX
8
OBJECT002
10
0
20
0
30
0
70
128
71
6
72
3
73
-2
0
VERTEX
8
OBJECT002
10
0
20
0
30
0
70
128
71
-6
72
2
73
5
0
VERTEX
8
OBJECT002
10
0
20
0
30
0
70
128
71
8
72
1
73
-4
0
VERTEX
8
OBJECT002
10
0
20
0
30
0
70
128
71
-8
72
4
73
7
0
VERTEX
8
OBJECT002
10
0
20
0
30
0
70
128
71
5
72
2
73
-1
0
VERTEX
8
OBJECT002
10
0
20
0
30
0
70
128
71
-5
72
1
73
8
0
VERTEX
8
OBJECT002
10
0
20
0
30
0
70
128
71
7
72
4
73
-3
0
VERTEX
8
OBJECT002
10
0
20
0
30
0
70
128
71
-7
72
3
73
6
0
VERTEX
8
OBJECT002
10
0
20
0
30
0
70
128
71
6
72
5
73
-8
0
VERTEX
8
OBJECT002
10
0
20
0
30
0
70
128
71
-6
72
8
73
7
0
SEQEND
8
OBJECT002
0
POLYLINE
8
OBJECT003
66
1
70
64
71
8
72
12
62
50
0
VERTEX
8
OBJECT003
10
768.000000
20
576.000000
30
448.000000
70
192
0
VERTEX
8
OBJECT003
10
768.000000
20
512.000000
30
448.000000
70
192
0
VERTEX
8
OBJECT003
10
128.000000
20
512.000000
30
448.000000
70
192
0
VERTEX
8
OBJECT003
10
128.000000
20
576.000000
30
448.000000
70
192
0
VERTEX
8
OBJECT003
10
768.000000
20
576.000000
30
64.000000
70
192
0
VERTEX
8
OBJECT003
10
768.000000
20
512.000000
30
64.000000
70
192
0
VERTEX
8
OBJECT003
10
128.000000
20
576.000000
30
64.000000
70
192
0
VERTEX
8
OBJECT003
10
128.000000
20
512.000000
30
64.000000
70
192
0
VERTEX
8
OBJECT003
10
0
20
0
30
0
70
128
71
2
72
3
73
-4
0
VERTEX
8
OBJECT003
10
0
20
0
30
0
70
128
71
-2
72
4
73
1
0
VERTEX
8
OBJECT003
10
0
20
0
30
0
70
128
71
1
72
5
73
-6
0
VERTEX
8
OBJECT003
10
0
20
0
30
0
70
128
71
-1
72
6
73
2
0
VERTEX
8
OBJECT003
10
0
20
0
30
0
70
128
71
1
72
4
73
-7
0
VERTEX
8
OBJECT003
10
0
20
0
30
0
70
128
71
-1
72
7
73
5
0
VERTEX
8
OBJECT003
10
0
20
0
30
0
70
128
71
6
72
8
73
-3
0
VERTEX
8
OBJECT003
10
0
20
0
30
0
70
128
71
-6
72
3
73
2
0
VERTEX
8
OBJECT003
10
0
20
0
30
0
70
128
71
5
72
7
73
-8
0
VERTEX
8
OBJECT003
10
0
20
0
30
0
70
128
71
-5
72
8
73
6
0
VERTEX
8
OBJECT003
10
0
20
0
30
0
70
128
71
3
72
8
73
-7
0
VERTEX
8
OBJECT003
10
0
20
0
30
0
70
128
71
-3
72
7
73
4
0
SEQEND
8
OBJECT003
0
POLYLINE
8
OBJECT004
66
1
70
64
71
8
72
12
62
50
0
VERTEX
8
OBJECT004
10
128.000000
20
512.000000
30
448.000000
70
192
0
VERTEX
8
OBJECT004
10
-128.000000
20
512.000000
30
448.000000
70
192
0
VERTEX
8
OBJECT004
10
-128.000000
20
576.000000
30
448.000000
70
192
0
VERTEX
8
OBJECT004
10
128.000000
20
576.000000
30
448.000000
70
192
0
VERTEX
8
OBJECT004
10
-128.000000
20
576.000000
30
256.000000
70
192
0
VERTEX
8
OBJECT004
10
128.000000
20
576.000000
30
256.000000
70
192
0
VERTEX
8
OBJECT004
10
128.000000
20
512.000000
30
256.000000
70
192
0
VERTEX
8
OBJECT004
10
-128.000000
20
512.000000
30
256.000000
70
192
0
VERTEX
8
OBJECT004
10
0
20
0
30
0
70
128
71
2
72
3
73
-4
0
VERTEX
8
OBJECT004
10
0
20
0
30
0
70
128
71
-2
72
4
73
1
0
VERTEX
8
OBJECT004
10
0
20
0
30
0
70
128
71
6
72
4
73
-3
0
VERTEX
8
OBJECT004
10
0
20
0
30
0
70
128
71
-6
72
3
73
5
0
VERTEX
8
OBJECT004
10
0
20
0
30
0
70
128
71
8
72
2
73
-1
0
VERTEX
8
OBJECT004
10
0
20
0
30
0
70
128
71
-8
72
1
73
7
0
VERTEX
8
OBJECT004
10
0
20
0
30
0
70
128
71
5
72
8
73
-7
0
VERTEX
8
OBJECT004
10
0
20
0
30
0
70
128
71
-5
72
7
73
6
0
VERTEX
8
OBJECT004
10
0
20
0
30
0
70
128
71
3
72
2
73
-8
0
VERTEX
8
OBJECT004
10
0
20
0
30
0
70
128
71
-3
72
8
73
5
0
VERTEX
8
OBJECT004
10
0
20
0
30
0
70
128
71
1
72
4
73
-6
0
VERTEX
8
OBJECT004
10
0
20
0
30
0
70
128
71
-1
72
6
73
7
0
SEQEND
8
OBJECT004
0
POLYLINE
8
OBJECT005
66
1
70
64
71
8
72
12
62
50
0
VERTEX
8
OBJECT005
10
-768.000000
20
512.000000
30
448.000000
70
192
0
VERTEX
8
OBJECT005
10
-768.000000
20
576.000000
30
448.000000
70
192
0
VERTEX
8
OBJECT005
10
-128.000000
20
576.000000
30
448.000000
70
192
0
VERTEX
8
OBJECT005
10
-128.000000
20
512.000000
30
448.000000
70
192
0
VERTEX
8
OBJECT005
10
-768.000000
20
512.000000
30
64.000000
70
192
0
VERTEX
8
OBJECT005
10
-768.000000
20
576.000000
30
64.000000
70
192
0
VERTEX
8
OBJECT005
10
-128.000000
20
576.000000
30
64.000000
70
192
0
VERTEX
8
OBJECT005
10
-128.000000
20
512.000000
30
64.000000
70
192
0
VERTEX
8
OBJECT005
10
0
20
0
30
0
70
128
71
2
72
3
73
-4
0
VERTEX
8
OBJECT005
10
0
20
0
30
0
70
128
71
-2
72
4
73
1
0
VERTEX
8
OBJECT005
10
0
20
0
30
0
70
128
71
1
72
5
73
-6
0
VERTEX
8
OBJECT005
10
0
20
0
30
0
70
128
71
-1
72
6
73
2
0
VERTEX
8
OBJECT005
10
0
20
0
30
0
70
128
71
6
72
7
73
-3
0
VERTEX
8
OBJECT005
10
0
20
0
30
0
70
128
71
-6
72
3
73
2
0
VERTEX
8
OBJECT005
10
0
20
0
30
0
70
128
71
1
72
4
73
-8
0
VERTEX
8
OBJECT005
10
0
20
0
30
0
70
128
71
-1
72
8
73
5
0
VERTEX
8
OBJECT005
10
0
20
0
30
0
70
128
71
5
72
8
73
-7
0
VERTEX
8
OBJECT005
10
0
20
0
30
0
70
128
71
-5
72
7
73
6
0
VERTEX
8
OBJECT005
10
0
20
0
30
0
70
128
71
3
72
7
73
-8
0
VERTEX
8
OBJECT005
10
0
20
0
30
0
70
128
71
-3
72
8
73
4
0
SEQEND
8
OBJECT005
0
POLYLINE
8
OBJECT006
66
1
70
64
71
8
72
12
62
50
0
VERTEX
8
OBJECT006
10
-128.000000
20
512.000000
30
56.000000
70
192
0
VERTEX
8
OBJECT006
10
128.000000
20
512.000000
30
56.000000
70
192
0
VERTEX
8
OBJECT006
10
128.000000
20
-1472.000000
30
56.000000
70
192
0
VERTEX
8
OBJECT006
10
-128.000000
20
-1472.000000
30
56.000000
70
192
0
VERTEX
8
OBJECT006
10
-128.000000
20
-1472.000000
30
48.000000
70
192
0
VERTEX
8
OBJECT006
10
128.000000
20
-1472.000000
30
48.000000
70
192
0
VERTEX
8
OBJECT006
10
128.000000
20
512.000000
30
48.000000
70
192
0
VERTEX
8
OBJECT006
10
-128.000000
20
512.000000
30
48.000000
70
192
0
VERTEX
8
OBJECT006
10
0
20
0
30
0
70
128
71
2
72
3
73
-4
0
VERTEX
8
OBJECT006
10
0
20
0
30
0
70
128
71
-2
72
4
73
1
0
VERTEX
8
OBJECT006
10
0
20
0
30
0
70
128
71
6
72
7
73
-8
0
VERTEX
8
OBJECT006
10
0
20
0
30
0
70
128
71
-6
72
8
73
5
0
VERTEX
8
OBJECT006
10
0
20
0
30
0
70
128
71
1
72
4
73
-5
0
VERTEX
8
OBJECT006
10
0
20
0
30
0
70
128
71
-1
72
5
73
8
0
VERTEX
8
OBJECT006
10
0
20
0
30
0
70
128
71
3
72
2
73
-7
0
VERTEX
8
OBJECT006
10
0
20
0
30
0
70
128
71
-3
72
7
73
6
0
VERTEX
8
OBJECT006
10
0
20
0
30
0
70
128
71
2
72
1
73
-8
0
VERTEX
8
OBJECT006
10
0
20
0
30
0
70
128
71
-2
72
8
73
7
0
VERTEX
8
OBJECT006
10
0
20
0
30
0
70
128
71
4
72
3
73
-6
0
VERTEX
8
OBJECT006
10
0
20
0
30
0
70
128
71
-4
72
6
73
5
0
SEQEND
8
OBJECT006
0
POLYLINE
8
OBJECT007
66
1
70
64
71
6
72
8
62
50
0
VERTEX
8
OBJECT007
10
-768.000000
20
512.000000
30
448.000000
70
192
0
VERTEX
8
OBJECT007
10
-576.000000
20
512.000000
30
448.000000
70
192
0
VERTEX
8
OBJECT007
10
-768.000000
20
320.000000
30
448.000000
70
192
0
VERTEX
8
OBJECT007
10
-768.000000
20
512.000000
30
-2176.000000
70
192
0
VERTEX
8
OBJECT007
10
-768.000000
20
320.000000
30
-2176.000000
70
192
0
VERTEX
8
OBJECT007
10
-576.000000
20
512.000000
30
-2176.000000
70
192
0
VERTEX
8
OBJECT007
10
0
20
0
30
0
70
128
71
2
72
3
73
1
0
VERTEX
8
OBJECT007
10
0
20
0
30
0
70
128
71
5
72
6
73
4
0
VERTEX
8
OBJECT007
10
0
20
0
30
0
70
128
71
2
72
1
73
-4
0
VERTEX
8
OBJECT007
10
0
20
0
30
0
70
128
71
-2
72
4
73
6
0
VERTEX
8
OBJECT007
10
0
20
0
30
0
70
128
71
1
72
3
73
-5
0
VERTEX
8
OBJECT007
10
0
20
0
30
0
70
128
71
-1
72
5
73
4
0
VERTEX
8
OBJECT007
10
0
20
0
30
0
70
128
71
3
72
2
73
-6
0
VERTEX
8
OBJECT007
10
0
20
0
30
0
70
128
71
-3
72
6
73
5
0
SEQEND
8
OBJECT007
0
POLYLINE
8
OBJECT008
66
1
70
64
71
6
72
8
62
50
0
VERTEX
8
OBJECT008
10
-768.000000
20
-1472.000000
30
448.000000
70
192
0
VERTEX
8
OBJECT008
10
-768.000000
20
-1280.000000
30
448.000000
70
192
0
VERTEX
8
OBJECT008
10
-576.000000
20
-1472.000000
30
448.000000
70
192
0
VERTEX
8
OBJECT008
10
-768.000000
20
-1472.000000
30
-2176.000000
70
192
0
VERTEX
8
OBJECT008
10
-576.000000
20
-1472.000000
30
-2176.000000
70
192
0
VERTEX
8
OBJECT008
10
-768.000000
20
-1280.000000
30
-2176.000000
70
192
0
VERTEX
8
OBJECT008
10
0
20
0
30
0
70
128
71
2
72
3
73
1
0
VERTEX
8
OBJECT008
10
0
20
0
30
0
70
128
71
5
72
6
73
4
0
VERTEX
8
OBJECT008
10
0
20
0
30
0
70
128
71
2
72
1
73
-4
0
VERTEX
8
OBJECT008
10
0
20
0
30
0
70
128
71
-2
72
4
73
6
0
VERTEX
8
OBJECT008
10
0
20
0
30
0
70
128
71
1
72
3
73
-5
0
VERTEX
8
OBJECT008
10
0
20
0
30
0
70
128
71
-1
72
5
73
4
0
VERTEX
8
OBJECT008
10
0
20
0
30
0
70
128
71
3
72
2
73
-6
0
VERTEX
8
OBJECT008
10
0
20
0
30
0
70
128
71
-3
72
6
73
5
0
SEQEND
8
OBJECT008
0
POLYLINE
8
OBJECT009
66
1
70
64
71
6
72
8
62
50
0
VERTEX
8
OBJECT009
10
768.000000
20
-1472.000000
30
-2176.000000
70
192
0
VERTEX
8
OBJECT009
10
768.000000
20
-1280.000000
30
-2176.000000
70
192
0
VERTEX
8
OBJECT009
10
576.000000
20
-1472.000000
30
-2176.000000
70
192
0
VERTEX
8
OBJECT009
10
576.000000
20
-1472.000000
30
448.000000
70
192
0
VERTEX
8
OBJECT009
10
768.000000
20
-1472.000000
30
448.000000
70
192
0
VERTEX
8
OBJECT009
10
768.000000
20
-1280.000000
30
448.000000
70
192
0
VERTEX
8
OBJECT009
10
0
20
0
30
0
70
128
71
2
72
3
73
1
0
VERTEX
8
OBJECT009
10
0
20
0
30
0
70
128
71
3
72
4
73
-5
0
VERTEX
8
OBJECT009
10
0
20
0
30
0
70
128
71
-3
72
5
73
1
0
VERTEX
8
OBJECT009
10
0
20
0
30
0
70
128
71
1
72
5
73
-6
0
VERTEX
8
OBJECT009
10
0
20
0
30
0
70
128
71
-1
72
6
73
2
0
VERTEX
8
OBJECT009
10
0
20
0
30
0
70
128
71
2
72
6
73
-4
0
VERTEX
8
OBJECT009
10
0
20
0
30
0
70
128
71
-2
72
4
73
3
0
VERTEX
8
OBJECT009
10
0
20
0
30
0
70
128
71
6
72
5
73
4
0
SEQEND
8
OBJECT009
0
POLYLINE
8
OBJECT010
66
1
70
64
71
8
72
12
62
50
0
VERTEX
8
OBJECT010
10
512.000000
20
-1216.000000
30
672.000000
70
192
0
VERTEX
8
OBJECT010
10
-512.000000
20
-1216.000000
30
672.000000
70
192
0
VERTEX
8
OBJECT010
10
-512.000000
20
256.000000
30
672.000000
70
192
0
VERTEX
8
OBJECT010
10
512.000000
20
256.000000
30
672.000000
70
192
0
VERTEX
8
OBJECT010
10
512.000000
20
256.000000
30
608.000000
70
192
0
VERTEX
8
OBJECT010
10
-512.000000
20
256.000000
30
608.000000
70
192
0
VERTEX
8
OBJECT010
10
-512.000000
20
-1216.000000
30
608.000000
70
192
0
VERTEX
8
OBJECT010
10
512.000000
20
-1216.000000
30
608.000000
70
192
0
VERTEX
8
OBJECT010
10
0
20
0
30
0
70
128
71
2
72
3
73
-4
0
VERTEX
8
OBJECT010
10
0
20
0
30
0
70
128
71
-2
72
4
73
1
0
VERTEX
8
OBJECT010
10
0
20
0
30
0
70
128
71
6
72
7
73
-8
0
VERTEX
8
OBJECT010
10
0
20
0
30
0
70
128
71
-6
72
8
73
5
0
VERTEX
8
OBJECT010
10
0
20
0
30
0
70
128
71
7
72
2
73
-1
0
VERTEX
8
OBJECT010
10
0
20
0
30
0
70
128
71
-7
72
1
73
8
0
VERTEX
8
OBJECT010
10
0
20
0
30
0
70
128
71
5
72
4
73
-3
0
VERTEX
8
OBJECT010
10
0
20
0
30
0
70
128
71
-5
72
3
73
6
0
VERTEX
8
OBJECT010
10
0
20
0
30
0
70
128
71
8
72
1
73
-4
0
VERTEX
8
OBJECT010
10
0
20
0
30
0
70
128
71
-8
72
4
73
5
0
VERTEX
8
OBJECT010
10
0
20
0
30
0
70
128
71
6
72
3
73
-2
0
VERTEX
8
OBJECT010
10
0
20
0
30
0
70
128
71
-6
72
2
73
7
0
SEQEND
8
OBJECT010
0
POLYLINE
8
OBJECT011
66
1
70
64
71
8
72
12
62
50
0
VERTEX
8
OBJECT011
10
-768.000000
20
-1472.000000
30
512.000000
70
192
0
VERTEX
8
OBJECT011
10
-768.000000
20
512.000000
30
512.000000
70
192
0
VERTEX
8
OBJECT011
10
-512.000000
20
256.000000
30
672.000000
70
192
0
VERTEX
8
OBJECT011
10
-512.000000
20
-1216.000000
30
672.000000
70
192
0
VERTEX
8
OBJECT011
10
-768.000000
20
-1472.000000
30
448.000000
70
192
0
VERTEX
8
OBJECT011
10
-512.000000
20
-1216.000000
30
608.000000
70
192
0
VERTEX
8
OBJECT011
10
-512.000000
20
256.000000
30
608.000000
70
192
0
VERTEX
8
OBJECT011
10
-768.000000
20
512.000000
30
448.000000
70
192
0
VERTEX
8
OBJECT011
10
0
20
0
30
0
70
128
71
2
72
3
73
-4
0
VERTEX
8
OBJECT011
10
0
20
0
30
0
70
128
71
-2
72
4
73
1
0
VERTEX
8
OBJECT011
10
0
20
0
30
0
70
128
71
6
72
7
73
-8
0
VERTEX
8
OBJECT011
10
0
20
0
30
0
70
128
71
-6
72
8
73
5
0
VERTEX
8
OBJECT011
10
0
20
0
30
0
70
128
71
2
72
1
73
-5
0
VERTEX
8
OBJECT011
10
0
20
0
30
0
70
128
71
-2
72
5
73
8
0
VERTEX
8
OBJECT011
10
0
20
0
30
0
70
128
71
1
72
4
73
-6
0
VERTEX
8
OBJECT011
10
0
20
0
30
0
70
128
71
-1
72
6
73
5
0
VERTEX
8
OBJECT011
10
0
20
0
30
0
70
128
71
3
72
2
73
-8
0
VERTEX
8
OBJECT011
10
0
20
0
30
0
70
128
71
-3
72
8
73
7
0
VERTEX
8
OBJECT011
10
0
20
0
30
0
70
128
71
4
72
3
73
-7
0
VERTEX
8
OBJECT011
10
0
20
0
30
0
70
128
71
-4
72
7
73
6
0
SEQEND
8
OBJECT011
0
POLYLINE
8
OBJECT012
66
1
70
64
71
8
72
12
62
50
0
VERTEX
8
OBJECT012
10
-512.000000
20
-1216.000000
30
672.000000
70
192
0
VERTEX
8
OBJECT012
10
512.000000
20
-1216.000000
30
672.000000
70
192
0
VERTEX
8
OBJECT012
10
768.000000
20
-1472.000000
30
512.000000
70
192
0
VERTEX
8
OBJECT012
10
-768.000000
20
-1472.000000
30
512.000000
70
192
0
VERTEX
8
OBJECT012
10
-768.000000
20
-1472.000000
30
448.000000
70
192
0
VERTEX
8
OBJECT012
10
768.000000
20
-1472.000000
30
448.000000
70
192
0
VERTEX
8
OBJECT012
10
512.000000
20
-1216.000000
30
608.000000
70
192
0
VERTEX
8
OBJECT012
10
-512.000000
20
-1216.000000
30
608.000000
70
192
0
VERTEX
8
OBJECT012
10
0
20
0
30
0
70
128
71
2
72
3
73
-4
0
VERTEX
8
OBJECT012
10
0
20
0
30
0
70
128
71
-2
72
4
73
1
0
VERTEX
8
OBJECT012
10
0
20
0
30
0
70
128
71
6
72
7
73
-8
0
VERTEX
8
OBJECT012
10
0
20
0
30
0
70
128
71
-6
72
8
73
5
0
VERTEX
8
OBJECT012
10
0
20
0
30
0
70
128
71
3
72
6
73
-5
0
VERTEX
8
OBJECT012
10
0
20
0
30
0
70
128
71
-3
72
5
73
4
0
VERTEX
8
OBJECT012
10
0
20
0
30
0
70
128
71
1
72
8
73
-7
0
VERTEX
8
OBJECT012
10
0
20
0
30
0
70
128
71
-1
72
7
73
2
0
VERTEX
8
OBJECT012
10
0
20
0
30
0
70
128
71
4
72
5
73
-8
0
VERTEX
8
OBJECT012
10
0
20
0
30
0
70
128
71
-4
72
8
73
1
0
VERTEX
8
OBJECT012
10
0
20
0
30
0
70
128
71
2
72
7
73
-6
0
VERTEX
8
OBJECT012
10
0
20
0
30
0
70
128
71
-2
72
6
73
3
0
SEQEND
8
OBJECT012
0
POLYLINE
8
OBJECT013
66
1
70
64
71
8
72
12
62
50
0
VERTEX
8
OBJECT013
10
-768.000000
20
512.000000
30
512.000000
70
192
0
VERTEX
8
OBJECT013
10
768.000000
20
512.000000
30
512.000000
70
192
0
VERTEX
8
OBJECT013
10
512.000000
20
256.000000
30
672.000000
70
192
0
VERTEX
8
OBJECT013
10
-512.000000
20
256.000000
30
672.000000
70
192
0
VERTEX
8
OBJECT013
10
-512.000000
20
256.000000
30
608.000000
70
192
0
VERTEX
8
OBJECT013
10
512.000000
20
256.000000
30
608.000000
70
192
0
VERTEX
8
OBJECT013
10
768.000000
20
512.000000
30
448.000000
70
192
0
VERTEX
8
OBJECT013
10
-768.000000
20
512.000000
30
448.000000
70
192
0
VERTEX
8
OBJECT013
10
0
20
0
30
0
70
128
71
2
72
3
73
-4
0
VERTEX
8
OBJECT013
10
0
20
0
30
0
70
128
71
-2
72
4
73
1
0
VERTEX
8
OBJECT013
10
0
20
0
30
0
70
128
71
6
72
7
73
-8
0
VERTEX
8
OBJECT013
10
0
20
0
30
0
70
128
71
-6
72
8
73
5
0
VERTEX
8
OBJECT013
10
0
20
0
30
0
70
128
71
1
72
8
73
-7
0
VERTEX
8
OBJECT013
10
0
20
0
30
0
70
128
71
-1
72
7
73
2
0
VERTEX
8
OBJECT013
10
0
20
0
30
0
70
128
71
3
72
6
73
-5
0
VERTEX
8
OBJECT013
10
0
20
0
30
0
70
128
71
-3
72
5
73
4
0
VERTEX
8
OBJECT013
10
0
20
0
30
0
70
128
71
4
72
5
73
-8
0
VERTEX
8
OBJECT013
10
0
20
0
30
0
70
128
71
-4
72
8
73
1
0
VERTEX
8
OBJECT013
10
0
20
0
30
0
70
128
71
2
72
7
73
-6
0
VERTEX
8
OBJECT013
10
0
20
0
30
0
70
128
71
-2
72
6
73
3
0
SEQEND
8
OBJECT013
0
POLYLINE
8
OBJECT014
66
1
70
64
71
8
72
12
62
50
0
VERTEX
8
OBJECT014
10
-768.000000
20
-720.000000
30
448.000000
70
192
0
VERTEX
8
OBJECT014
10
-704.000000
20
-720.000000
30
448.000000
70
192
0
VERTEX
8
OBJECT014
10
-704.000000
20
-816.000000
30
448.000000
70
192
0
VERTEX
8
OBJECT014
10
-768.000000
20
-816.000000
30
448.000000
70
192
0
VERTEX
8
OBJECT014
10
-768.000000
20
-816.000000
30
-2176.000000
70
192
0
VERTEX
8
OBJECT014
10
-704.000000
20
-816.000000
30
-2176.000000
70
192
0
VERTEX
8
OBJECT014
10
-704.000000
20
-720.000000
30
-2176.000000
70
192
0
VERTEX
8
OBJECT014
10
-768.000000
20
-720.000000
30
-2176.000000
70
192
0
VERTEX
8
OBJECT014
10
0
20
0
30
0
70
128
71
2
72
3
73
-4
0
VERTEX
8
OBJECT014
10
0
20
0
30
0
70
128
71
-2
72
4
73
1
0
VERTEX
8
OBJECT014
10
0
20
0
30
0
70
128
71
6
72
7
73
-8
0
VERTEX
8
OBJECT014
10
0
20
0
30
0
70
128
71
-6
72
8
73
5
0
VERTEX
8
OBJECT014
10
0
20
0
30
0
70
128
71
1
72
4
73
-5
0
VERTEX
8
OBJECT014
10
0
20
0
30
0
70
128
71
-1
72
5
73
8
0
VERTEX
8
OBJECT014
10
0
20
0
30
0
70
128
71
3
72
2
73
-7
0
VERTEX
8
OBJECT014
10
0
20
0
30
0
70
128
71
-3
72
7
73
6
0
VERTEX
8
OBJECT014
10
0
20
0
30
0
70
128
71
2
72
1
73
-8
0
VERTEX
8
OBJECT014
10
0
20
0
30
0
70
128
71
-2
72
8
73
7
0
VERTEX
8
OBJECT014
10
0
20
0
30
0
70
128
71
4
72
3
73
-6
0
VERTEX
8
OBJECT014
10
0
20
0
30
0
70
128
71
-4
72
6
73
5
0
SEQEND
8
OBJECT014
0
POLYLINE
8
OBJECT015
66
1
70
64
71
8
72
12
62
50
0
VERTEX
8
OBJECT015
10
-768.000000
20
-432.000000
30
448.000000
70
192
0
VERTEX
8
OBJECT015
10
-704.000000
20
-432.000000
30
448.000000
70
192
0
VERTEX
8
OBJECT015
10
-704.000000
20
-528.000000
30
448.000000
70
192
0
VERTEX
8
OBJECT015
10
-768.000000
20
-528.000000
30
448.000000
70
192
0
VERTEX
8
OBJECT015
10
-768.000000
20
-528.000000
30
-2176.000000
70
192
0
VERTEX
8
OBJECT015
10
-704.000000
20
-528.000000
30
-2176.000000
70
192
0
VERTEX
8
OBJECT015
10
-704.000000
20
-432.000000
30
-2176.000000
70
192
0
VERTEX
8
OBJECT015
10
-768.000000
20
-432.000000
30
-2176.000000
70
192
0
VERTEX
8
OBJECT015
10
0
20
0
30
0
70
128
71
2
72
3
73
-4
0
VERTEX
8
OBJECT015
10
0
20
0
30
0
70
128
71
-2
72
4
73
1
0
VERTEX
8
OBJECT015
10
0
20
0
30
0
70
128
71
6
72
7
73
-8
0
VERTEX
8
OBJECT015
10
0
20
0
30
0
70
128
71
-6
72
8
73
5
0
VERTEX
8
OBJECT015
10
0
20
0
30
0
70
128
71
1
72
4
73
-5
0
VERTEX
8
OBJECT015
10
0
20
0
30
0
70
128
71
-1
72
5
73
8
0
VERTEX
8
OBJECT015
10
0
20
0
30
0
70
128
71
3
72
2
73
-7
0
VERTEX
8
OBJECT015
10
0
20
0
30
0
70
128
71
-3
72
7
73
6
0
VERTEX
8
OBJECT015
10
0
20
0
30
0
70
128
71
2
72
1
73
-8
0
VERTEX
8
OBJECT015
10
0
20
0
30
0
70
128
71
-2
72
8
73
7
0
VERTEX
8
OBJECT015
10
0
20
0
30
0
70
128
71
4
72
3
73
-6
0
VERTEX
8
OBJECT015
10
0
20
0
30
0
70
128
71
-4
72
6
73
5
0
SEQEND
8
OBJECT015
0
POLYLINE
8
OBJECT016
66
1
70
64
71
8
72
12
62
50
0
VERTEX
8
OBJECT016
10
-768.000000
20
-144.000000
30
448.000000
70
192
0
VERTEX
8
OBJECT016
10
-704.000000
20
-144.000000
30
448.000000
70
192
0
VERTEX
8
OBJECT016
10
-704.000000
20
-240.000000
30
448.000000
70
192
0
VERTEX
8
OBJECT016
10
-768.000000
20
-240.000000
30
448.000000
70
192
0
VERTEX
8
OBJECT016
10
-768.000000
20
-240.000000
30
-2176.000000
70
192
0
VERTEX
8
OBJECT016
10
-704.000000
20
-240.000000
30
-2176.000000
70
192
0
VERTEX
8
OBJECT016
10
-704.000000
20
-144.000000
30
-2176.000000
70
192
0
VERTEX
8
OBJECT016
10
-768.000000
20
-144.000000
30
-2176.000000
70
192
0
VERTEX
8
OBJECT016
10
0
20
0
30
0
70
128
71
2
72
3
73
-4
0
VERTEX
8
OBJECT016
10
0
20
0
30
0
70
128
71
-2
72
4
73
1
0
VERTEX
8
OBJECT016
10
0
20
0
30
0
70
128
71
6
72
7
73
-8
0
VERTEX
8
OBJECT016
10
0
20
0
30
0
70
128
71
-6
72
8
73
5
0
VERTEX
8
OBJECT016
10
0
20
0
30
0
70
128
71
1
72
4
73
-5
0
VERTEX
8
OBJECT016
10
0
20
0
30
0
70
128
71
-1
72
5
73
8
0
VERTEX
8
OBJECT016
10
0
20
0
30
0
70
128
71
3
72
2
73
-7
0
VERTEX
8
OBJECT016
10
0
20
0
30
0
70
128
71
-3
72
7
73
6
0
VERTEX
8
OBJECT016
10
0
20
0
30
0
70
128
71
2
72
1
73
-8
0
VERTEX
8
OBJECT016
10
0
20
0
30
0
70
128
71
-2
72
8
73
7
0
VERTEX
8
OBJECT016
10
0
20
0
30
0
70
128
71
4
72
3
73
-6
0
VERTEX
8
OBJECT016
10
0
20
0
30
0
70
128
71
-4
72
6
73
5
0
SEQEND
8
OBJECT016
0
POLYLINE
8
OBJECT017
66
1
70
64
71
8
72
12
62
50
0
VERTEX
8
OBJECT017
10
-768.000000
20
144.000000
30
448.000000
70
192
0
VERTEX
8
OBJECT017
10
-704.000000
20
144.000000
30
448.000000
70
192
0
VERTEX
8
OBJECT017
10
-704.000000
20
48.000000
30
448.000000
70
192
0
VERTEX
8
OBJECT017
10
-768.000000
20
48.000000
30
448.000000
70
192
0
VERTEX
8
OBJECT017
10
-768.000000
20
48.000000
30
-2176.000000
70
192
0
VERTEX
8
OBJECT017
10
-704.000000
20
48.000000
30
-2176.000000
70
192
0
VERTEX
8
OBJECT017
10
-704.000000
20
144.000000
30
-2176.000000
70
192
0
VERTEX
8
OBJECT017
10
-768.000000
20
144.000000
30
-2176.000000
70
192
0
VERTEX
8
OBJECT017
10
0
20
0
30
0
70
128
71
2
72
3
73
-4
0
VERTEX
8
OBJECT017
10
0
20
0
30
0
70
128
71
-2
72
4
73
1
0
VERTEX
8
OBJECT017
10
0
20
0
30
0
70
128
71
6
72
7
73
-8
0
VERTEX
8
OBJECT017
10
0
20
0
30
0
70
128
71
-6
72
8
73
5
0
VERTEX
8
OBJECT017
10
0
20
0
30
0
70
128
71
1
72
4
73
-5
0
VERTEX
8
OBJECT017
10
0
20
0
30
0
70
128
71
-1
72
5
73
8
0
VERTEX
8
OBJECT017
10
0
20
0
30
0
70
128
71
3
72
2
73
-7
0
VERTEX
8
OBJECT017
10
0
20
0
30
0
70
128
71
-3
72
7
73
6
0
VERTEX
8
OBJECT017
10
0
20
0
30
0
70
128
71
2
72
1
73
-8
0
VERTEX
8
OBJECT017
10
0
20
0
30
0
70
128
71
-2
72
8
73
7
0
VERTEX
8
OBJECT017
10
0
20
0
30
0
70
128
71
4
72
3
73
-6
0
VERTEX
8
OBJECT017
10
0
20
0
30
0
70
128
71
-4
72
6
73
5
0
SEQEND
8
OBJECT017
0
POLYLINE
8
OBJECT018
66
1
70
64
71
8
72
12
62
50
0
VERTEX
8
OBJECT018
10
704.000000
20
-432.000000
30
448.000000
70
192
0
VERTEX
8
OBJECT018
10
768.000000
20
-432.000000
30
448.000000
70
192
0
VERTEX
8
OBJECT018
10
768.000000
20
-528.000000
30
448.000000
70
192
0
VERTEX
8
OBJECT018
10
704.000000
20
-528.000000
30
448.000000
70
192
0
VERTEX
8
OBJECT018
10
704.000000
20
-528.000000
30
-2176.000000
70
192
0
VERTEX
8
OBJECT018
10
768.000000
20
-528.000000
30
-2176.000000
70
192
0
VERTEX
8
OBJECT018
10
768.000000
20
-432.000000
30
-2176.000000
70
192
0
VERTEX
8
OBJECT018
10
704.000000
20
-432.000000
30
-2176.000000
70
192
0
VERTEX
8
OBJECT018
10
0
20
0
30
0
70
128
71
2
72
3
73
-4
0
VERTEX
8
OBJECT018
10
0
20
0
30
0
70
128
71
-2
72
4
73
1
0
VERTEX
8
OBJECT018
10
0
20
0
30
0
70
128
71
6
72
7
73
-8
0
VERTEX
8
OBJECT018
10
0
20
0
30
0
70
128
71
-6
72
8
73
5
0
VERTEX
8
OBJECT018
10
0
20
0
30
0
70
128
71
1
72
4
73
-5
0
VERTEX
8
OBJECT018
10
0
20
0
30
0
70
128
71
-1
72
5
73
8
0
VERTEX
8
OBJECT018
10
0
20
0
30
0
70
128
71
3
72
2
73
-7
0
VERTEX
8
OBJECT018
10
0
20
0
30
0
70
128
71
-3
72
7
73
6
0
VERTEX
8
OBJECT018
10
0
20
0
30
0
70
128
71
2
72
1
73
-8
0
VERTEX
8
OBJECT018
10
0
20
0
30
0
70
128
71
-2
72
8
73
7
0
VERTEX
8
OBJECT018
10
0
20
0
30
0
70
128
71
4
72
3
73
-6
0
VERTEX
8
OBJECT018
10
0
20
0
30
0
70
128
71
-4
72
6
73
5
0
SEQEND
8
OBJECT018
0
POLYLINE
8
OBJECT019
66
1
70
64
71
8
72
12
62
50
0
VERTEX
8
OBJECT019
10
704.000000
20
-144.000000
30
448.000000
70
192
0
VERTEX
8
OBJECT019
10
768.000000
20
-144.000000
30
448.000000
70
192
0
VERTEX
8
OBJECT019
10
768.000000
20
-240.000000
30
448.000000
70
192
0
VERTEX
8
OBJECT019
10
704.000000
20
-240.000000
30
448.000000
70
192
0
VERTEX
8
OBJECT019
10
704.000000
20
-240.000000
30
-2176.000000
70
192
0
VERTEX
8
OBJECT019
10
768.000000
20
-240.000000
30
-2176.000000
70
192
0
VERTEX
8
OBJECT019
10
768.000000
20
-144.000000
30
-2176.000000
70
192
0
VERTEX
8
OBJECT019
10
704.000000
20
-144.000000
30
-2176.000000
70
192
0
VERTEX
8
OBJECT019
10
0
20
0
30
0
70
128
71
2
72
3
73
-4
0
VERTEX
8
OBJECT019
10
0
20
0
30
0
70
128
71
-2
72
4
73
1
0
VERTEX
8
OBJECT019
10
0
20
0
30
0
70
128
71
6
72
7
73
-8
0
VERTEX
8
OBJECT019
10
0
20
0
30
0
70
128
71
-6
72
8
73
5
0
VERTEX
8
OBJECT019
10
0
20
0
30
0
70
128
71
1
72
4
73
-5
0
VERTEX
8
OBJECT019
10
0
20
0
30
0
70
128
71
-1
72
5
73
8
0
VERTEX
8
OBJECT019
10
0
20
0
30
0
70
128
71
3
72
2
73
-7
0
VERTEX
8
OBJECT019
10
0
20
0
30
0
70
128
71
-3
72
7
73
6
0
VERTEX
8
OBJECT019
10
0
20
0
30
0
70
128
71
2
72
1
73
-8
0
VERTEX
8
OBJECT019
10
0
20
0
30
0
70
128
71
-2
72
8
73
7
0
VERTEX
8
OBJECT019
10
0
20
0
30
0
70
128
71
4
72
3
73
-6
0
VERTEX
8
OBJECT019
10
0
20
0
30
0
70
128
71
-4
72
6
73
5
0
SEQEND
8
OBJECT019
0
POLYLINE
8
OBJECT020
66
1
70
64
71
8
72
12
62
50
0
VERTEX
8
OBJECT020
10
704.000000
20
144.000000
30
448.000000
70
192
0
VERTEX
8
OBJECT020
10
768.000000
20
144.000000
30
448.000000
70
192
0
VERTEX
8
OBJECT020
10
768.000000
20
48.000000
30
448.000000
70
192
0
VERTEX
8
OBJECT020
10
704.000000
20
48.000000
30
448.000000
70
192
0
VERTEX
8
OBJECT020
10
704.000000
20
48.000000
30
-2176.000000
70
192
0
VERTEX
8
OBJECT020
10
768.000000
20
48.000000
30
-2176.000000
70
192
0
VERTEX
8
OBJECT020
10
768.000000
20
144.000000
30
-2176.000000
70
192
0
VERTEX
8
OBJECT020
10
704.000000
20
144.000000
30
-2176.000000
70
192
0
VERTEX
8
OBJECT020
10
0
20
0
30
0
70
128
71
2
72
3
73
-4
0
VERTEX
8
OBJECT020
10
0
20
0
30
0
70
128
71
-2
72
4
73
1
0
VERTEX
8
OBJECT020
10
0
20
0
30
0
70
128
71
6
72
7
73
-8
0
VERTEX
8
OBJECT020
10
0
20
0
30
0
70
128
71
-6
72
8
73
5
0
VERTEX
8
OBJECT020
10
0
20
0
30
0
70
128
71
1
72
4
73
-5
0
VERTEX
8
OBJECT020
10
0
20
0
30
0
70
128
71
-1
72
5
73
8
0
VERTEX
8
OBJECT020
10
0
20
0
30
0
70
128
71
3
72
2
73
-7
0
VERTEX
8
OBJECT020
10
0
20
0
30
0
70
128
71
-3
72
7
73
6
0
VERTEX
8
OBJECT020
10
0
20
0
30
0
70
128
71
2
72
1
73
-8
0
VERTEX
8
OBJECT020
10
0
20
0
30
0
70
128
71
-2
72
8
73
7
0
VERTEX
8
OBJECT020
10
0
20
0
30
0
70
128
71
4
72
3
73
-6
0
VERTEX
8
OBJECT020
10
0
20
0
30
0
70
128
71
-4
72
6
73
5
0
SEQEND
8
OBJECT020
0
POLYLINE
8
OBJECT021
66
1
70
64
71
8
72
12
62
50
0
VERTEX
8
OBJECT021
10
704.000000
20
-816.000000
30
-2176.000000
70
192
0
VERTEX
8
OBJECT021
10
768.000000
20
-816.000000
30
-2176.000000
70
192
0
VERTEX
8
OBJECT021
10
768.000000
20
-720.000000
30
-2176.000000
70
192
0
VERTEX
8
OBJECT021
10
704.000000
20
-720.000000
30
-2176.000000
70
192
0
VERTEX
8
OBJECT021
10
704.000000
20
-720.000000
30
448.000000
70
192
0
VERTEX
8
OBJECT021
10
704.000000
20
-816.000000
30
448.000000
70
192
0
VERTEX
8
OBJECT021
10
768.000000
20
-816.000000
30
448.000000
70
192
0
VERTEX
8
OBJECT021
10
768.000000
20
-720.000000
30
448.000000
70
192
0
VERTEX
8
OBJECT021
10
0
20
0
30
0
70
128
71
2
72
3
73
-4
0
VERTEX
8
OBJECT021
10
0
20
0
30
0
70
128
71
-2
72
4
73
1
0
VERTEX
8
OBJECT021
10
0
20
0
30
0
70
128
71
4
72
5
73
-6
0
VERTEX
8
OBJECT021
10
0
20
0
30
0
70
128
71
-4
72
6
73
1
0
VERTEX
8
OBJECT021
10
0
20
0
30
0
70
128
71
2
72
7
73
-8
0
VERTEX
8
OBJECT021
10
0
20
0
30
0
70
128
71
-2
72
8
73
3
0
VERTEX
8
OBJECT021
10
0
20
0
30
0
70
128
71
3
72
8
73
-5
0
VERTEX
8
OBJECT021
10
0
20
0
30
0
70
128
71
-3
72
5
73
4
0
VERTEX
8
OBJECT021
10
0
20
0
30
0
70
128
71
1
72
6
73
-7
0
VERTEX
8
OBJECT021
10
0
20
0
30
0
70
128
71
-1
72
7
73
2
0
VERTEX
8
OBJECT021
10
0
20
0
30
0
70
128
71
8
72
7
73
-6
0
VERTEX
8
OBJECT021
10
0
20
0
30
0
70
128
71
-8
72
6
73
5
0
SEQEND
8
OBJECT021
0
POLYLINE
8
OBJECT022
66
1
70
64
71
8
72
12
62
50
0
VERTEX
8
OBJECT022
10
448.000000
20
48.000000
30
608.000000
70
192
0
VERTEX
8
OBJECT022
10
448.000000
20
144.000000
30
608.000000
70
192
0
VERTEX
8
OBJECT022
10
512.000000
20
144.000000
30
608.000000
70
192
0
VERTEX
8
OBJECT022
10
512.000000
20
48.000000
30
608.000000
70
192
0
VERTEX
8
OBJECT022
10
704.000000
20
144.000000
30
448.000000
70
192
0
VERTEX
8
OBJECT022
10
704.000000
20
48.000000
30
448.000000
70
192
0
VERTEX
8
OBJECT022
10
768.000000
20
48.000000
30
448.000000
70
192
0
VERTEX
8
OBJECT022
10
768.000000
20
144.000000
30
448.000000
70
192
0
VERTEX
8
OBJECT022
10
0
20
0
30
0
70
128
71
2
72
3
73
-4
0
VERTEX
8
OBJECT022
10
0
20
0
30
0
70
128
71
-2
72
4
73
1
0
VERTEX
8
OBJECT022
10
0
20
0
30
0
70
128
71
2
72
1
73
-6
0
VERTEX
8
OBJECT022
10
0
20
0
30
0
70
128
71
-2
72
6
73
5
0
VERTEX
8
OBJECT022
10
0
20
0
30
0
70
128
71
4
72
3
73
-8
0
VERTEX
8
OBJECT022
10
0
20
0
30
0
70
128
71
-4
72
8
73
7
0
VERTEX
8
OBJECT022
10
0
20
0
30
0
70
128
71
3
72
2
73
-5
0
VERTEX
8
OBJECT022
10
0
20
0
30
0
70
128
71
-3
72
5
73
8
0
VERTEX
8
OBJECT022
10
0
20
0
30
0
70
128
71
1
72
4
73
-7
0
VERTEX
8
OBJECT022
10
0
20
0
30
0
70
128
71
-1
72
7
73
6
0
VERTEX
8
OBJECT022
10
0
20
0
30
0
70
128
71
6
72
7
73
-8
0
VERTEX
8
OBJECT022
10
0
20
0
30
0
70
128
71
-6
72
8
73
5
0
SEQEND
8
OBJECT022
0
POLYLINE
8
OBJECT023
66
1
70
64
71
8
72
12
62
50
0
VERTEX
8
OBJECT023
10
-512.000000
20
48.000000
30
608.000000
70
192
0
VERTEX
8
OBJECT023
10
-512.000000
20
144.000000
30
608.000000
70
192
0
VERTEX
8
OBJECT023
10
-448.000000
20
144.000000
30
608.000000
70
192
0
VERTEX
8
OBJECT023
10
-448.000000
20
48.000000
30
608.000000
70
192
0
VERTEX
8
OBJECT023
10
-704.000000
20
48.000000
30
448.000000
70
192
0
VERTEX
8
OBJECT023
10
-704.000000
20
144.000000
30
448.000000
70
192
0
VERTEX
8
OBJECT023
10
-768.000000
20
144.000000
30
448.000000
70
192
0
VERTEX
8
OBJECT023
10
-768.000000
20
48.000000
30
448.000000
70
192
0
VERTEX
8
OBJECT023
10
0
20
0
30
0
70
128
71
2
72
3
73
-4
0
VERTEX
8
OBJECT023
10
0
20
0
30
0
70
128
71
-2
72
4
73
1
0
VERTEX
8
OBJECT023
10
0
20
0
30
0
70
128
71
4
72
3
73
-6
0
VERTEX
8
OBJECT023
10
0
20
0
30
0
70
128
71
-4
72
6
73
5
0
VERTEX
8
OBJECT023
10
0
20
0
30
0
70
128
71
2
72
1
73
-8
0
VERTEX
8
OBJECT023
10
0
20
0
30
0
70
128
71
-2
72
8
73
7
0
VERTEX
8
OBJECT023
10
0
20
0
30
0
70
128
71
1
72
4
73
-5
0
VERTEX
8
OBJECT023
10
0
20
0
30
0
70
128
71
-1
72
5
73
8
0
VERTEX
8
OBJECT023
10
0
20
0
30
0
70
128
71
3
72
2
73
-7
0
VERTEX
8
OBJECT023
10
0
20
0
30
0
70
128
71
-3
72
7
73
6
0
VERTEX
8
OBJECT023
10
0
20
0
30
0
70
128
71
8
72
5
73
-6
0
VERTEX
8
OBJECT023
10
0
20
0
30
0
70
128
71
-8
72
6
73
7
0
SEQEND
8
OBJECT023
0
POLYLINE
8
OBJECT024
66
1
70
64
71
8
72
12
62
50
0
VERTEX
8
OBJECT024
10
-512.000000
20
-240.000000
30
608.000000
70
192
0
VERTEX
8
OBJECT024
10
-512.000000
20
-144.000000
30
608.000000
70
192
0
VERTEX
8
OBJECT024
10
-448.000000
20
-144.000000
30
608.000000
70
192
0
VERTEX
8
OBJECT024
10
-448.000000
20
-240.000000
30
608.000000
70
192
0
VERTEX
8
OBJECT024
10
-704.000000
20
-240.000000
30
448.000000
70
192
0
VERTEX
8
OBJECT024
10
-704.000000
20
-144.000000
30
448.000000
70
192
0
VERTEX
8
OBJECT024
10
-768.000000
20
-144.000000
30
448.000000
70
192
0
VERTEX
8
OBJECT024
10
-768.000000
20
-240.000000
30
448.000000
70
192
0
VERTEX
8
OBJECT024
10
0
20
0
30
0
70
128
71
2
72
3
73
-4
0
VERTEX
8
OBJECT024
10
0
20
0
30
0
70
128
71
-2
72
4
73
1
0
VERTEX
8
OBJECT024
10
0
20
0
30
0
70
128
71
4
72
3
73
-6
0
VERTEX
8
OBJECT024
10
0
20
0
30
0
70
128
71
-4
72
6
73
5
0
VERTEX
8
OBJECT024
10
0
20
0
30
0
70
128
71
2
72
1
73
-8
0
VERTEX
8
OBJECT024
10
0
20
0
30
0
70
128
71
-2
72
8
73
7
0
VERTEX
8
OBJECT024
10
0
20
0
30
0
70
128
71
1
72
4
73
-5
0
VERTEX
8
OBJECT024
10
0
20
0
30
0
70
128
71
-1
72
5
73
8
0
VERTEX
8
OBJECT024
10
0
20
0
30
0
70
128
71
3
72
2
73
-7
0
VERTEX
8
OBJECT024
10
0
20
0
30
0
70
128
71
-3
72
7
73
6
0
VERTEX
8
OBJECT024
10
0
20
0
30
0
70
128
71
8
72
5
73
-6
0
VERTEX
8
OBJECT024
10
0
20
0
30
0
70
128
71
-8
72
6
73
7
0
SEQEND
8
OBJECT024
0
POLYLINE
8
OBJECT025
66
1
70
64
71
8
72
12
62
50
0
VERTEX
8
OBJECT025
10
-512.000000
20
-528.000000
30
608.000000
70
192
0
VERTEX
8
OBJECT025
10
-512.000000
20
-432.000000
30
608.000000
70
192
0
VERTEX
8
OBJECT025
10
-448.000000
20
-432.000000
30
608.000000
70
192
0
VERTEX
8
OBJECT025
10
-448.000000
20
-528.000000
30
608.000000
70
192
0
VERTEX
8
OBJECT025
10
-704.000000
20
-528.000000
30
448.000000
70
192
0
VERTEX
8
OBJECT025
10
-704.000000
20
-432.000000
30
448.000000
70
192
0
VERTEX
8
OBJECT025
10
-768.000000
20
-432.000000
30
448.000000
70
192
0
VERTEX
8
OBJECT025
10
-768.000000
20
-528.000000
30
448.000000
70
192
0
VERTEX
8
OBJECT025
10
0
20
0
30
0
70
128
71
2
72
3
73
-4
0
VERTEX
8
OBJECT025
10
0
20
0
30
0
70
128
71
-2
72
4
73
1
0
VERTEX
8
OBJECT025
10
0
20
0
30
0
70
128
71
4
72
3
73
-6
0
VERTEX
8
OBJECT025
10
0
20
0
30
0
70
128
71
-4
72
6
73
5
0
VERTEX
8
OBJECT025
10
0
20
0
30
0
70
128
71
2
72
1
73
-8
0
VERTEX
8
OBJECT025
10
0
20
0
30
0
70
128
71
-2
72
8
73
7
0
VERTEX
8
OBJECT025
10
0
20
0
30
0
70
128
71
1
72
4
73
-5
0
VERTEX
8
OBJECT025
10
0
20
0
30
0
70
128
71
-1
72
5
73
8
0
VERTEX
8
OBJECT025
10
0
20
0
30
0
70
128
71
3
72
2
73
-7
0
VERTEX
8
OBJECT025
10
0
20
0
30
0
70
128
71
-3
72
7
73
6
0
VERTEX
8
OBJECT025
10
0
20
0
30
0
70
128
71
8
72
5
73
-6
0
VERTEX
8
OBJECT025
10
0
20
0
30
0
70
128
71
-8
72
6
73
7
0
SEQEND
8
OBJECT025
0
POLYLINE
8
OBJECT026
66
1
70
64
71
8
72
12
62
50
0
VERTEX
8
OBJECT026
10
-512.000000
20
-816.000000
30
608.000000
70
192
0
VERTEX
8
OBJECT026
10
-512.000000
20
-720.000000
30
608.000000
70
192
0
VERTEX
8
OBJECT026
10
-448.000000
20
-720.000000
30
608.000000
70
192
0
VERTEX
8
OBJECT026
10
-448.000000
20
-816.000000
30
608.000000
70
192
0
VERTEX
8
OBJECT026
10
-704.000000
20
-816.000000
30
448.000000
70
192
0
VERTEX
8
OBJECT026
10
-704.000000
20
-720.000000
30
448.000000
70
192
0
VERTEX
8
OBJECT026
10
-768.000000
20
-720.000000
30
448.000000
70
192
0
VERTEX
8
OBJECT026
10
-768.000000
20
-816.000000
30
448.000000
70
192
0
VERTEX
8
OBJECT026
10
0
20
0
30
0
70
128
71
2
72
3
73
-4
0
VERTEX
8
OBJECT026
10
0
20
0
30
0
70
128
71
-2
72
4
73
1
0
VERTEX
8
OBJECT026
10
0
20
0
30
0
70
128
71
4
72
3
73
-6
0
VERTEX
8
OBJECT026
10
0
20
0
30
0
70
128
71
-4
72
6
73
5
0
VERTEX
8
OBJECT026
10
0
20
0
30
0
70
128
71
2
72
1
73
-8
0
VERTEX
8
OBJECT026
10
0
20
0
30
0
70
128
71
-2
72
8
73
7
0
VERTEX
8
OBJECT026
10
0
20
0
30
0
70
128
71
1
72
4
73
-5
0
VERTEX
8
OBJECT026
10
0
20
0
30
0
70
128
71
-1
72
5
73
8
0
VERTEX
8
OBJECT026
10
0
20
0
30
0
70
128
71
3
72
2
73
-7
0
VERTEX
8
OBJECT026
10
0
20
0
30
0
70
128
71
-3
72
7
73
6
0
VERTEX
8
OBJECT026
10
0
20
0
30
0
70
128
71
8
72
5
73
-6
0
VERTEX
8
OBJECT026
10
0
20
0
30
0
70
128
71
-8
72
6
73
7
0
SEQEND
8
OBJECT026
0
POLYLINE
8
OBJECT027
66
1
70
64
71
8
72
12
62
50
0
VERTEX
8
OBJECT027
10
832.000000
20
-1280.000000
30
-2176.000000
70
192
0
VERTEX
8
OBJECT027
10
832.000000
20
-832.000000
30
-2176.000000
70
192
0
VERTEX
8
OBJECT027
10
768.000000
20
-832.000000
30
-2176.000000
70
192
0
VERTEX
8
OBJECT027
10
768.000000
20
-1280.000000
30
-2176.000000
70
192
0
VERTEX
8
OBJECT027
10
768.000000
20
-832.000000
30
288.000000
70
192
0
VERTEX
8
OBJECT027
10
768.000000
20
-1280.000000
30
288.000000
70
192
0
VERTEX
8
OBJECT027
10
832.000000
20
-1280.000000
30
288.000000
70
192
0
VERTEX
8
OBJECT027
10
832.000000
20
-832.000000
30
288.000000
70
192
0
VERTEX
8
OBJECT027
10
0
20
0
30
0
70
128
71
2
72
3
73
-4
0
VERTEX
8
OBJECT027
10
0
20
0
30
0
70
128
71
-2
72
4
73
1
0
VERTEX
8
OBJECT027
10
0
20
0
30
0
70
128
71
5
72
6
73
-4
0
VERTEX
8
OBJECT027
10
0
20
0
30
0
70
128
71
-5
72
4
73
3
0
VERTEX
8
OBJECT027
10
0
20
0
30
0
70
128
71
8
72
2
73
-1
0
VERTEX
8
OBJECT027
10
0
20
0
30
0
70
128
71
-8
72
1
73
7
0
VERTEX
8
OBJECT027
10
0
20
0
30
0
70
128
71
6
72
7
73
-1
0
VERTEX
8
OBJECT027
10
0
20
0
30
0
70
128
71
-6
72
1
73
4
0
VERTEX
8
OBJECT027
10
0
20
0
30
0
70
128
71
7
72
6
73
-5
0
VERTEX
8
OBJECT027
10
0
20
0
30
0
70
128
71
-7
72
5
73
8
0
VERTEX
8
OBJECT027
10
0
20
0
30
0
70
128
71
8
72
5
73
-3
0
VERTEX
8
OBJECT027
10
0
20
0
30
0
70
128
71
-8
72
3
73
2
0
SEQEND
8
OBJECT027
0
POLYLINE
8
OBJECT028
66
1
70
64
71
8
72
12
62
50
0
VERTEX
8
OBJECT028
10
768.000000
20
512.000000
30
-768.000000
70
192
0
VERTEX
8
OBJECT028
10
768.000000
20
320.000000
30
-768.000000
70
192
0
VERTEX
8
OBJECT028
10
832.000000
20
320.000000
30
-768.000000
70
192
0
VERTEX
8
OBJECT028
10
832.000000
20
512.000000
30
-768.000000
70
192
0
VERTEX
8
OBJECT028
10
768.000000
20
512.000000
30
288.000000
70
192
0
VERTEX
8
OBJECT028
10
768.000000
20
320.000000
30
288.000000
70
192
0
VERTEX
8
OBJECT028
10
832.000000
20
512.000000
30
288.000000
70
192
0
VERTEX
8
OBJECT028
10
832.000000
20
320.000000
30
288.000000
70
192
0
VERTEX
8
OBJECT028
10
0
20
0
30
0
70
128
71
2
72
3
73
-4
0
VERTEX
8
OBJECT028
10
0
20
0
30
0
70
128
71
-2
72
4
73
1
0
VERTEX
8
OBJECT028
10
0
20
0
30
0
70
128
71
1
72
5
73
-6
0
VERTEX
8
OBJECT028
10
0
20
0
30
0
70
128
71
-1
72
6
73
2
0
VERTEX
8
OBJECT028
10
0
20
0
30
0
70
128
71
4
72
3
73
-8
0
VERTEX
8
OBJECT028
10
0
20
0
30
0
70
128
71
-4
72
8
73
7
0
VERTEX
8
OBJECT028
10
0
20
0
30
0
70
128
71
1
72
4
73
-7
0
VERTEX
8
OBJECT028
10
0
20
0
30
0
70
128
71
-1
72
7
73
5
0
VERTEX
8
OBJECT028
10
0
20
0
30
0
70
128
71
5
72
7
73
-8
0
VERTEX
8
OBJECT028
10
0
20
0
30
0
70
128
71
-5
72
8
73
6
0
VERTEX
8
OBJECT028
10
0
20
0
30
0
70
128
71
3
72
2
73
-6
0
VERTEX
8
OBJECT028
10
0
20
0
30
0
70
128
71
-3
72
6
73
8
0
SEQEND
8
OBJECT028
0
POLYLINE
8
OBJECT029
66
1
70
64
71
8
72
12
62
50
0
VERTEX
8
OBJECT029
10
768.000000
20
-1280.000000
30
288.000000
70
192
0
VERTEX
8
OBJECT029
10
768.000000
20
-832.000000
30
288.000000
70
192
0
VERTEX
8
OBJECT029
10
768.000000
20
-832.000000
30
352.000000
70
192
0
VERTEX
8
OBJECT029
10
768.000000
20
-1280.000000
30
352.000000
70
192
0
VERTEX
8
OBJECT029
10
832.000000
20
-1280.000000
30
288.000000
70
192
0
VERTEX
8
OBJECT029
10
832.000000
20
-1280.000000
30
352.000000
70
192
0
VERTEX
8
OBJECT029
10
832.000000
20
-832.000000
30
352.000000
70
192
0
VERTEX
8
OBJECT029
10
832.000000
20
-832.000000
30
288.000000
70
192
0
VERTEX
8
OBJECT029
10
0
20
0
30
0
70
128
71
2
72
3
73
-4
0
VERTEX
8
OBJECT029
10
0
20
0
30
0
70
128
71
-2
72
4
73
1
0
VERTEX
8
OBJECT029
10
0
20
0
30
0
70
128
71
6
72
7
73
-8
0
VERTEX
8
OBJECT029
10
0
20
0
30
0
70
128
71
-6
72
8
73
5
0
VERTEX
8
OBJECT029
10
0
20
0
30
0
70
128
71
1
72
4
73
-6
0
VERTEX
8
OBJECT029
10
0
20
0
30
0
70
128
71
-1
72
6
73
5
0
VERTEX
8
OBJECT029
10
0
20
0
30
0
70
128
71
7
72
6
73
-4
0
VERTEX
8
OBJECT029
10
0
20
0
30
0
70
128
71
-7
72
4
73
3
0
VERTEX
8
OBJECT029
10
0
20
0
30
0
70
128
71
5
72
8
73
-2
0
VERTEX
8
OBJECT029
10
0
20
0
30
0
70
128
71
-5
72
2
73
1
0
VERTEX
8
OBJECT029
10
0
20
0
30
0
70
128
71
8
72
7
73
-3
0
VERTEX
8
OBJECT029
10
0
20
0
30
0
70
128
71
-8
72
3
73
2
0
SEQEND
8
OBJECT029
0
POLYLINE
8
OBJECT030
66
1
70
64
71
8
72
12
62
50
0
VERTEX
8
OBJECT030
10
768.000000
20
320.000000
30
288.000000
70
192
0
VERTEX
8
OBJECT030
10
768.000000
20
512.000000
30
288.000000
70
192
0
VERTEX
8
OBJECT030
10
768.000000
20
512.000000
30
352.000000
70
192
0
VERTEX
8
OBJECT030
10
768.000000
20
320.000000
30
352.000000
70
192
0
VERTEX
8
OBJECT030
10
832.000000
20
512.000000
30
352.000000
70
192
0
VERTEX
8
OBJECT030
10
832.000000
20
512.000000
30
288.000000
70
192
0
VERTEX
8
OBJECT030
10
832.000000
20
320.000000
30
288.000000
70
192
0
VERTEX
8
OBJECT030
10
832.000000
20
320.000000
30
352.000000
70
192
0
VERTEX
8
OBJECT030
10
0
20
0
30
0
70
128
71
2
72
3
73
-4
0
VERTEX
8
OBJECT030
10
0
20
0
30
0
70
128
71
-2
72
4
73
1
0
VERTEX
8
OBJECT030
10
0
20
0
30
0
70
128
71
6
72
7
73
-8
0
VERTEX
8
OBJECT030
10
0
20
0
30
0
70
128
71
-6
72
8
73
5
0
VERTEX
8
OBJECT030
10
0
20
0
30
0
70
128
71
2
72
6
73
-5
0
VERTEX
8
OBJECT030
10
0
20
0
30
0
70
128
71
-2
72
5
73
3
0
VERTEX
8
OBJECT030
10
0
20
0
30
0
70
128
71
3
72
5
73
-8
0
VERTEX
8
OBJECT030
10
0
20
0
30
0
70
128
71
-3
72
8
73
4
0
VERTEX
8
OBJECT030
10
0
20
0
30
0
70
128
71
1
72
7
73
-6
0
VERTEX
8
OBJECT030
10
0
20
0
30
0
70
128
71
-1
72
6
73
2
0
VERTEX
8
OBJECT030
10
0
20
0
30
0
70
128
71
7
72
1
73
-4
0
VERTEX
8
OBJECT030
10
0
20
0
30
0
70
128
71
-7
72
4
73
8
0
SEQEND
8
OBJECT030
0
POLYLINE
8
OBJECT031
66
1
70
64
71
8
72
12
62
50
0
VERTEX
8
OBJECT031
10
768.000000
20
-832.000000
30
448.000000
70
192
0
VERTEX
8
OBJECT031
10
832.000000
20
-832.000000
30
448.000000
70
192
0
VERTEX
8
OBJECT031
10
832.000000
20
-1280.000000
30
448.000000
70
192
0
VERTEX
8
OBJECT031
10
768.000000
20
-1280.000000
30
448.000000
70
192
0
VERTEX
8
OBJECT031
10
768.000000
20
-1280.000000
30
352.000000
70
192
0
VERTEX
8
OBJECT031
10
768.000000
20
-832.000000
30
352.000000
70
192
0
VERTEX
8
OBJECT031
10
832.000000
20
-1280.000000
30
352.000000
70
192
0
VERTEX
8
OBJECT031
10
832.000000
20
-832.000000
30
352.000000
70
192
0
VERTEX
8
OBJECT031
10
0
20
0
30
0
70
128
71
2
72
3
73
-4
0
VERTEX
8
OBJECT031
10
0
20
0
30
0
70
128
71
-2
72
4
73
1
0
VERTEX
8
OBJECT031
10
0
20
0
30
0
70
128
71
5
72
6
73
-1
0
VERTEX
8
OBJECT031
10
0
20
0
30
0
70
128
71
-5
72
1
73
4
0
VERTEX
8
OBJECT031
10
0
20
0
30
0
70
128
71
3
72
2
73
-8
0
VERTEX
8
OBJECT031
10
0
20
0
30
0
70
128
71
-3
72
8
73
7
0
VERTEX
8
OBJECT031
10
0
20
0
30
0
70
128
71
3
72
7
73
-5
0
VERTEX
8
OBJECT031
10
0
20
0
30
0
70
128
71
-3
72
5
73
4
0
VERTEX
8
OBJECT031
10
0
20
0
30
0
70
128
71
7
72
8
73
-6
0
VERTEX
8
OBJECT031
10
0
20
0
30
0
70
128
71
-7
72
6
73
5
0
VERTEX
8
OBJECT031
10
0
20
0
30
0
70
128
71
1
72
6
73
-8
0
VERTEX
8
OBJECT031
10
0
20
0
30
0
70
128
71
-1
72
8
73
2
0
SEQEND
8
OBJECT031
0
POLYLINE
8
OBJECT032
66
1
70
64
71
8
72
12
62
50
0
VERTEX
8
OBJECT032
10
768.000000
20
320.000000
30
448.000000
70
192
0
VERTEX
8
OBJECT032
10
768.000000
20
512.000000
30
448.000000
70
192
0
VERTEX
8
OBJECT032
10
832.000000
20
512.000000
30
448.000000
70
192
0
VERTEX
8
OBJECT032
10
832.000000
20
320.000000
30
448.000000
70
192
0
VERTEX
8
OBJECT032
10
768.000000
20
320.000000
30
352.000000
70
192
0
VERTEX
8
OBJECT032
10
768.000000
20
512.000000
30
352.000000
70
192
0
VERTEX
8
OBJECT032
10
832.000000
20
512.000000
30
352.000000
70
192
0
VERTEX
8
OBJECT032
10
832.000000
20
320.000000
30
352.000000
70
192
0
VERTEX
8
OBJECT032
10
0
20
0
30
0
70
128
71
2
72
3
73
-4
0
VERTEX
8
OBJECT032
10
0
20
0
30
0
70
128
71
-2
72
4
73
1
0
VERTEX
8
OBJECT032
10
0
20
0
30
0
70
128
71
6
72
2
73
-1
0
VERTEX
8
OBJECT032
10
0
20
0
30
0
70
128
71
-6
72
1
73
5
0
VERTEX
8
OBJECT032
10
0
20
0
30
0
70
128
71
3
72
7
73
-8
0
VERTEX
8
OBJECT032
10
0
20
0
30
0
70
128
71
-3
72
8
73
4
0
VERTEX
8
OBJECT032
10
0
20
0
30
0
70
128
71
3
72
2
73
-6
0
VERTEX
8
OBJECT032
10
0
20
0
30
0
70
128
71
-3
72
6
73
7
0
VERTEX
8
OBJECT032
10
0
20
0
30
0
70
128
71
5
72
8
73
-7
0
VERTEX
8
OBJECT032
10
0
20
0
30
0
70
128
71
-5
72
7
73
6
0
VERTEX
8
OBJECT032
10
0
20
0
30
0
70
128
71
1
72
4
73
-8
0
VERTEX
8
OBJECT032
10
0
20
0
30
0
70
128
71
-1
72
8
73
5
0
SEQEND
8
OBJECT032
0
POLYLINE
8
OBJECT033
66
1
70
64
71
6
72
8
62
50
0
VERTEX
8
OBJECT033
10
768.000000
20
512.000000
30
-2176.000000
70
192
0
VERTEX
8
OBJECT033
10
576.000000
20
512.000000
30
-2176.000000
70
192
0
VERTEX
8
OBJECT033
10
768.000000
20
320.000000
30
-2176.000000
70
192
0
VERTEX
8
OBJECT033
10
768.000000
20
320.000000
30
448.000000
70
192
0
VERTEX
8
OBJECT033
10
768.000000
20
512.000000
30
448.000000
70
192
0
VERTEX
8
OBJECT033
10
576.000000
20
512.000000
30
448.000000
70
192
0
VERTEX
8
OBJECT033
10
0
20
0
30
0
70
128
71
2
72
3
73
1
0
VERTEX
8
OBJECT033
10
0
20
0
30
0
70
128
71
3
72
4
73
-5
0
VERTEX
8
OBJECT033
10
0
20
0
30
0
70
128
71
-3
72
5
73
1
0
VERTEX
8
OBJECT033
10
0
20
0
30
0
70
128
71
1
72
5
73
-6
0
VERTEX
8
OBJECT033
10
0
20
0
30
0
70
128
71
-1
72
6
73
2
0
VERTEX
8
OBJECT033
10
0
20
0
30
0
70
128
71
2
72
6
73
-4
0
VERTEX
8
OBJECT033
10
0
20
0
30
0
70
128
71
-2
72
4
73
3
0
VERTEX
8
OBJECT033
10
0
20
0
30
0
70
128
71
4
72
6
73
5
0
SEQEND
8
OBJECT033
0
POLYLINE
8
OBJECT034
66
1
70
64
71
8
72
12
62
50
0
VERTEX
8
OBJECT034
10
128.000000
20
512.000000
30
88.000000
70
192
0
VERTEX
8
OBJECT034
10
129.000000
20
512.000000
30
88.000000
70
192
0
VERTEX
8
OBJECT034
10
129.000000
20
-1472.000000
30
88.000000
70
192
0
VERTEX
8
OBJECT034
10
128.000000
20
-1472.000000
30
88.000000
70
192
0
VERTEX
8
OBJECT034
10
128.000000
20
-1472.000000
30
56.000000
70
192
0
VERTEX
8
OBJECT034
10
129.000000
20
-1472.000000
30
56.000000
70
192
0
VERTEX
8
OBJECT034
10
129.000000
20
512.000000
30
56.000000
70
192
0
VERTEX
8
OBJECT034
10
128.000000
20
512.000000
30
56.000000
70
192
0
VERTEX
8
OBJECT034
10
0
20
0
30
0
70
128
71
2
72
3
73
-4
0
VERTEX
8
OBJECT034
10
0
20
0
30
0
70
128
71
-2
72
4
73
1
0
VERTEX
8
OBJECT034
10
0
20
0
30
0
70
128
71
6
72
7
73
-8
0
VERTEX
8
OBJECT034
10
0
20
0
30
0
70
128
71
-6
72
8
73
5
0
VERTEX
8
OBJECT034
10
0
20
0
30
0
70
128
71
1
72
4
73
-5
0
VERTEX
8
OBJECT034
10
0
20
0
30
0
70
128
71
-1
72
5
73
8
0
VERTEX
8
OBJECT034
10
0
20
0
30
0
70
128
71
3
72
2
73
-7
0
VERTEX
8
OBJECT034
10
0
20
0
30
0
70
128
71
-3
72
7
73
6
0
VERTEX
8
OBJECT034
10
0
20
0
30
0
70
128
71
2
72
1
73
-8
0
VERTEX
8
OBJECT034
10
0
20
0
30
0
70
128
71
-2
72
8
73
7
0
VERTEX
8
OBJECT034
10
0
20
0
30
0
70
128
71
4
72
3
73
-6
0
VERTEX
8
OBJECT034
10
0
20
0
30
0
70
128
71
-4
72
6
73
5
0
SEQEND
8
OBJECT034
0
POLYLINE
8
OBJECT035
66
1
70
64
71
8
72
12
62
50
0
VERTEX
8
OBJECT035
10
-129.000000
20
512.000000
30
88.000000
70
192
0
VERTEX
8
OBJECT035
10
-128.000000
20
512.000000
30
88.000000
70
192
0
VERTEX
8
OBJECT035
10
-128.000000
20
-1472.000000
30
88.000000
70
192
0
VERTEX
8
OBJECT035
10
-129.000000
20
-1472.000000
30
88.000000
70
192
0
VERTEX
8
OBJECT035
10
-129.000000
20
-1472.000000
30
56.000000
70
192
0
VERTEX
8
OBJECT035
10
-128.000000
20
-1472.000000
30
56.000000
70
192
0
VERTEX
8
OBJECT035
10
-128.000000
20
512.000000
30
56.000000
70
192
0
VERTEX
8
OBJECT035
10
-129.000000
20
512.000000
30
56.000000
70
192
0
VERTEX
8
OBJECT035
10
0
20
0
30
0
70
128
71
2
72
3
73
-4
0
VERTEX
8
OBJECT035
10
0
20
0
30
0
70
128
71
-2
72
4
73
1
0
VERTEX
8
OBJECT035
10
0
20
0
30
0
70
128
71
6
72
7
73
-8
0
VERTEX
8
OBJECT035
10
0
20
0
30
0
70
128
71
-6
72
8
73
5
0
VERTEX
8
OBJECT035
10
0
20
0
30
0
70
128
71
1
72
4
73
-5
0
VERTEX
8
OBJECT035
10
0
20
0
30
0
70
128
71
-1
72
5
73
8
0
VERTEX
8
OBJECT035
10
0
20
0
30
0
70
128
71
3
72
2
73
-7
0
VERTEX
8
OBJECT035
10
0
20
0
30
0
70
128
71
-3
72
7
73
6
0
VERTEX
8
OBJECT035
10
0
20
0
30
0
70
128
71
2
72
1
73
-8
0
VERTEX
8
OBJECT035
10
0
20
0
30
0
70
128
71
-2
72
8
73
7
0
VERTEX
8
OBJECT035
10
0
20
0
30
0
70
128
71
4
72
3
73
-6
0
VERTEX
8
OBJECT035
10
0
20
0
30
0
70
128
71
-4
72
6
73
5
0
SEQEND
8
OBJECT035
0
POLYLINE
8
OBJECT036
66
1
70
64
71
6
72
8
62
50
0
VERTEX
8
OBJECT036
10
768.000000
20
-1472.000000
30
512.000000
70
192
0
VERTEX
8
OBJECT036
10
512.000000
20
-1216.000000
30
672.000000
70
192
0
VERTEX
8
OBJECT036
10
768.000000
20
-1216.000000
30
512.000000
70
192
0
VERTEX
8
OBJECT036
10
768.000000
20
-1472.000000
30
448.000000
70
192
0
VERTEX
8
OBJECT036
10
768.000000
20
-1216.000000
30
448.000000
70
192
0
VERTEX
8
OBJECT036
10
512.000000
20
-1216.000000
30
608.000000
70
192
0
VERTEX
8
OBJECT036
10
0
20
0
30
0
70
128
71
2
72
3
73
1
0
VERTEX
8
OBJECT036
10
0
20
0
30
0
70
128
71
5
72
6
73
4
0
VERTEX
8
OBJECT036
10
0
20
0
30
0
70
128
71
1
72
3
73
-5
0
VERTEX
8
OBJECT036
10
0
20
0
30
0
70
128
71
-1
72
5
73
4
0
VERTEX
8
OBJECT036
10
0
20
0
30
0
70
128
71
2
72
1
73
-4
0
VERTEX
8
OBJECT036
10
0
20
0
30
0
70
128
71
-2
72
4
73
6
0
VERTEX
8
OBJECT036
10
0
20
0
30
0
70
128
71
3
72
2
73
-6
0
VERTEX
8
OBJECT036
10
0
20
0
30
0
70
128
71
-3
72
6
73
5
0
SEQEND
8
OBJECT036
0
POLYLINE
8
OBJECT037
66
1
70
64
71
8
72
12
62
50
0
VERTEX
8
OBJECT037
10
512.000000
20
-64.000000
30
672.000000
70
192
0
VERTEX
8
OBJECT037
10
512.000000
20
256.000000
30
672.000000
70
192
0
VERTEX
8
OBJECT037
10
768.000000
20
512.000000
30
512.000000
70
192
0
VERTEX
8
OBJECT037
10
768.000000
20
-64.000000
30
512.000000
70
192
0
VERTEX
8
OBJECT037
10
768.000000
20
-64.000000
30
448.000000
70
192
0
VERTEX
8
OBJECT037
10
768.000000
20
512.000000
30
448.000000
70
192
0
VERTEX
8
OBJECT037
10
512.000000
20
256.000000
30
608.000000
70
192
0
VERTEX
8
OBJECT037
10
512.000000
20
-64.000000
30
608.000000
70
192
0
VERTEX
8
OBJECT037
10
0
20
0
30
0
70
128
71
2
72
3
73
-4
0
VERTEX
8
OBJECT037
10
0
20
0
30
0
70
128
71
-2
72
4
73
1
0
VERTEX
8
OBJECT037
10
0
20
0
30
0
70
128
71
6
72
7
73
-8
0
VERTEX
8
OBJECT037
10
0
20
0
30
0
70
128
71
-6
72
8
73
5
0
VERTEX
8
OBJECT037
10
0
20
0
30
0
70
128
71
5
72
4
73
-3
0
VERTEX
8
OBJECT037
10
0
20
0
30
0
70
128
71
-5
72
3
73
6
0
VERTEX
8
OBJECT037
10
0
20
0
30
0
70
128
71
6
72
3
73
-2
0
VERTEX
8
OBJECT037
10
0
20
0
30
0
70
128
71
-6
72
2
73
7
0
VERTEX
8
OBJECT037
10
0
20
0
30
0
70
128
71
7
72
2
73
-1
0
VERTEX
8
OBJECT037
10
0
20
0
30
0
70
128
71
-7
72
1
73
8
0
VERTEX
8
OBJECT037
10
0
20
0
30
0
70
128
71
8
72
1
73
-4
0
VERTEX
8
OBJECT037
10
0
20
0
30
0
70
128
71
-8
72
4
73
5
0
SEQEND
8
OBJECT037
0
POLYLINE
8
OBJECT038
66
1
70
64
71
8
72
12
62
50
0
VERTEX
8
OBJECT038
10
768.000000
20
-64.000000
30
448.000000
70
192
0
VERTEX
8
OBJECT038
10
768.000000
20
320.000000
30
448.000000
70
192
0
VERTEX
8
OBJECT038
10
832.000000
20
320.000000
30
448.000000
70
192
0
VERTEX
8
OBJECT038
10
832.000000
20
-64.000000
30
448.000000
70
192
0
VERTEX
8
OBJECT038
10
768.000000
20
-64.000000
30
352.000000
70
192
0
VERTEX
8
OBJECT038
10
768.000000
20
320.000000
30
352.000000
70
192
0
VERTEX
8
OBJECT038
10
832.000000
20
320.000000
30
352.000000
70
192
0
VERTEX
8
OBJECT038
10
832.000000
20
-64.000000
30
352.000000
70
192
0
VERTEX
8
OBJECT038
10
0
20
0
30
0
70
128
71
2
72
3
73
-4
0
VERTEX
8
OBJECT038
10
0
20
0
30
0
70
128
71
-2
72
4
73
1
0
VERTEX
8
OBJECT038
10
0
20
0
30
0
70
128
71
6
72
2
73
-1
0
VERTEX
8
OBJECT038
10
0
20
0
30
0
70
128
71
-6
72
1
73
5
0
VERTEX
8
OBJECT038
10
0
20
0
30
0
70
128
71
8
72
4
73
-3
0
VERTEX
8
OBJECT038
10
0
20
0
30
0
70
128
71
-8
72
3
73
7
0
VERTEX
8
OBJECT038
10
0
20
0
30
0
70
128
71
5
72
8
73
-7
0
VERTEX
8
OBJECT038
10
0
20
0
30
0
70
128
71
-5
72
7
73
6
0
VERTEX
8
OBJECT038
10
0
20
0
30
0
70
128
71
3
72
2
73
-6
0
VERTEX
8
OBJECT038
10
0
20
0
30
0
70
128
71
-3
72
6
73
7
0
VERTEX
8
OBJECT038
10
0
20
0
30
0
70
128
71
1
72
4
73
-8
0
VERTEX
8
OBJECT038
10
0
20
0
30
0
70
128
71
-1
72
8
73
5
0
SEQEND
8
OBJECT038
0
POLYLINE
8
OBJECT039
66
1
70
64
71
8
72
12
62
50
0
VERTEX
8
OBJECT039
10
768.000000
20
-64.000000
30
288.000000
70
192
0
VERTEX
8
OBJECT039
10
768.000000
20
320.000000
30
288.000000
70
192
0
VERTEX
8
OBJECT039
10
768.000000
20
320.000000
30
352.000000
70
192
0
VERTEX
8
OBJECT039
10
768.000000
20
-64.000000
30
352.000000
70
192
0
VERTEX
8
OBJECT039
10
832.000000
20
320.000000
30
288.000000
70
192
0
VERTEX
8
OBJECT039
10
832.000000
20
-64.000000
30
288.000000
70
192
0
VERTEX
8
OBJECT039
10
832.000000
20
-64.000000
30
352.000000
70
192
0
VERTEX
8
OBJECT039
10
832.000000
20
320.000000
30
352.000000
70
192
0
VERTEX
8
OBJECT039
10
0
20
0
30
0
70
128
71
2
72
3
73
-4
0
VERTEX
8
OBJECT039
10
0
20
0
30
0
70
128
71
-2
72
4
73
1
0
VERTEX
8
OBJECT039
10
0
20
0
30
0
70
128
71
6
72
7
73
-8
0
VERTEX
8
OBJECT039
10
0
20
0
30
0
70
128
71
-6
72
8
73
5
0
VERTEX
8
OBJECT039
10
0
20
0
30
0
70
128
71
3
72
8
73
-7
0
VERTEX
8
OBJECT039
10
0
20
0
30
0
70
128
71
-3
72
7
73
4
0
VERTEX
8
OBJECT039
10
0
20
0
30
0
70
128
71
1
72
6
73
-5
0
VERTEX
8
OBJECT039
10
0
20
0
30
0
70
128
71
-1
72
5
73
2
0
VERTEX
8
OBJECT039
10
0
20
0
30
0
70
128
71
2
72
5
73
-8
0
VERTEX
8
OBJECT039
10
0
20
0
30
0
70
128
71
-2
72
8
73
3
0
VERTEX
8
OBJECT039
10
0
20
0
30
0
70
128
71
6
72
1
73
-4
0
VERTEX
8
OBJECT039
10
0
20
0
30
0
70
128
71
-6
72
4
73
7
0
SEQEND
8
OBJECT039
0
POLYLINE
8
OBJECT040
66
1
70
64
71
8
72
12
62
50
0
VERTEX
8
OBJECT040
10
768.000000
20
-832.000000
30
-2176.000000
70
192
0
VERTEX
8
OBJECT040
10
832.000000
20
-832.000000
30
-2176.000000
70
192
0
VERTEX
8
OBJECT040
10
832.000000
20
-64.000000
30
-2176.000000
70
192
0
VERTEX
8
OBJECT040
10
768.000000
20
-64.000000
30
-2176.000000
70
192
0
VERTEX
8
OBJECT040
10
768.000000
20
-64.000000
30
224.000000
70
192
0
VERTEX
8
OBJECT040
10
768.000000
20
-832.000000
30
224.000000
70
192
0
VERTEX
8
OBJECT040
10
832.000000
20
-832.000000
30
224.000000
70
192
0
VERTEX
8
OBJECT040
10
832.000000
20
-64.000000
30
224.000000
70
192
0
VERTEX
8
OBJECT040
10
0
20
0
30
0
70
128
71
2
72
3
73
-4
0
VERTEX
8
OBJECT040
10
0
20
0
30
0
70
128
71
-2
72
4
73
1
0
VERTEX
8
OBJECT040
10
0
20
0
30
0
70
128
71
4
72
5
73
-6
0
VERTEX
8
OBJECT040
10
0
20
0
30
0
70
128
71
-4
72
6
73
1
0
VERTEX
8
OBJECT040
10
0
20
0
30
0
70
128
71
2
72
7
73
-8
0
VERTEX
8
OBJECT040
10
0
20
0
30
0
70
128
71
-2
72
8
73
3
0
VERTEX
8
OBJECT040
10
0
20
0
30
0
70
128
71
1
72
6
73
-7
0
VERTEX
8
OBJECT040
10
0
20
0
30
0
70
128
71
-1
72
7
73
2
0
VERTEX
8
OBJECT040
10
0
20
0
30
0
70
128
71
3
72
8
73
-5
0
VERTEX
8
OBJECT040
10
0
20
0
30
0
70
128
71
-3
72
5
73
4
0
VERTEX
8
OBJECT040
10
0
20
0
30
0
70
128
71
8
72
7
73
-6
0
VERTEX
8
OBJECT040
10
0
20
0
30
0
70
128
71
-8
72
6
73
5
0
SEQEND
8
OBJECT040
0
POLYLINE
8
OBJECT041
66
1
70
64
71
8
72
12
62
50
0
VERTEX
8
OBJECT041
10
768.000000
20
320.000000
30
224.000000
70
192
0
VERTEX
8
OBJECT041
10
768.000000
20
320.000000
30
288.000000
70
192
0
VERTEX
8
OBJECT041
10
768.000000
20
-64.000000
30
288.000000
70
192
0
VERTEX
8
OBJECT041
10
768.000000
20
-64.000000
30
224.000000
70
192
0
VERTEX
8
OBJECT041
10
832.000000
20
-64.000000
30
224.000000
70
192
0
VERTEX
8
OBJECT041
10
832.000000
20
-64.000000
30
288.000000
70
192
0
VERTEX
8
OBJECT041
10
832.000000
20
320.000000
30
288.000000
70
192
0
VERTEX
8
OBJECT041
10
832.000000
20
320.000000
30
224.000000
70
192
0
VERTEX
8
OBJECT041
10
0
20
0
30
0
70
128
71
2
72
3
73
-4
0
VERTEX
8
OBJECT041
10
0
20
0
30
0
70
128
71
-2
72
4
73
1
0
VERTEX
8
OBJECT041
10
0
20
0
30
0
70
128
71
6
72
7
73
-8
0
VERTEX
8
OBJECT041
10
0
20
0
30
0
70
128
71
-6
72
8
73
5
0
VERTEX
8
OBJECT041
10
0
20
0
30
0
70
128
71
2
72
7
73
-6
0
VERTEX
8
OBJECT041
10
0
20
0
30
0
70
128
71
-2
72
6
73
3
0
VERTEX
8
OBJECT041
10
0
20
0
30
0
70
128
71
1
72
8
73
-7
0
VERTEX
8
OBJECT041
10
0
20
0
30
0
70
128
71
-1
72
7
73
2
0
VERTEX
8
OBJECT041
10
0
20
0
30
0
70
128
71
5
72
4
73
-3
0
VERTEX
8
OBJECT041
10
0
20
0
30
0
70
128
71
-5
72
3
73
6
0
VERTEX
8
OBJECT041
10
0
20
0
30
0
70
128
71
4
72
5
73
-8
0
VERTEX
8
OBJECT041
10
0
20
0
30
0
70
128
71
-4
72
8
73
1
0
SEQEND
8
OBJECT041
0
POLYLINE
8
OBJECT042
66
1
70
64
71
8
72
12
62
50
0
VERTEX
8
OBJECT042
10
768.000000
20
-64.000000
30
-2176.000000
70
192
0
VERTEX
8
OBJECT042
10
832.000000
20
-64.000000
30
-2176.000000
70
192
0
VERTEX
8
OBJECT042
10
832.000000
20
320.000000
30
-2176.000000
70
192
0
VERTEX
8
OBJECT042
10
768.000000
20
320.000000
30
-2176.000000
70
192
0
VERTEX
8
OBJECT042
10
768.000000
20
320.000000
30
224.000000
70
192
0
VERTEX
8
OBJECT042
10
768.000000
20
-64.000000
30
224.000000
70
192
0
VERTEX
8
OBJECT042
10
832.000000
20
-64.000000
30
224.000000
70
192
0
VERTEX
8
OBJECT042
10
832.000000
20
320.000000
30
224.000000
70
192
0
VERTEX
8
OBJECT042
10
0
20
0
30
0
70
128
71
2
72
3
73
-4
0
VERTEX
8
OBJECT042
10
0
20
0
30
0
70
128
71
-2
72
4
73
1
0
VERTEX
8
OBJECT042
10
0
20
0
30
0
70
128
71
4
72
5
73
-6
0
VERTEX
8
OBJECT042
10
0
20
0
30
0
70
128
71
-4
72
6
73
1
0
VERTEX
8
OBJECT042
10
0
20
0
30
0
70
128
71
2
72
7
73
-8
0
VERTEX
8
OBJECT042
10
0
20
0
30
0
70
128
71
-2
72
8
73
3
0
VERTEX
8
OBJECT042
10
0
20
0
30
0
70
128
71
3
72
8
73
-5
0
VERTEX
8
OBJECT042
10
0
20
0
30
0
70
128
71
-3
72
5
73
4
0
VERTEX
8
OBJECT042
10
0
20
0
30
0
70
128
71
1
72
6
73
-7
0
VERTEX
8
OBJECT042
10
0
20
0
30
0
70
128
71
-1
72
7
73
2
0
VERTEX
8
OBJECT042
10
0
20
0
30
0
70
128
71
8
72
7
73
-6
0
VERTEX
8
OBJECT042
10
0
20
0
30
0
70
128
71
-8
72
6
73
5
0
SEQEND
8
OBJECT042
0
POLYLINE
8
OBJECT043
66
1
70
64
71
8
72
12
62
50
0
VERTEX
8
OBJECT043
10
768.000000
20
-832.000000
30
448.000000
70
192
0
VERTEX
8
OBJECT043
10
768.000000
20
-64.000000
30
448.000000
70
192
0
VERTEX
8
OBJECT043
10
832.000000
20
-64.000000
30
448.000000
70
192
0
VERTEX
8
OBJECT043
10
832.000000
20
-832.000000
30
448.000000
70
192
0
VERTEX
8
OBJECT043
10
768.000000
20
-832.000000
30
352.000000
70
192
0
VERTEX
8
OBJECT043
10
768.000000
20
-64.000000
30
352.000000
70
192
0
VERTEX
8
OBJECT043
10
832.000000
20
-64.000000
30
352.000000
70
192
0
VERTEX
8
OBJECT043
10
832.000000
20
-832.000000
30
352.000000
70
192
0
VERTEX
8
OBJECT043
10
0
20
0
30
0
70
128
71
2
72
3
73
-4
0
VERTEX
8
OBJECT043
10
0
20
0
30
0
70
128
71
-2
72
4
73
1
0
VERTEX
8
OBJECT043
10
0
20
0
30
0
70
128
71
6
72
2
73
-1
0
VERTEX
8
OBJECT043
10
0
20
0
30
0
70
128
71
-6
72
1
73
5
0
VERTEX
8
OBJECT043
10
0
20
0
30
0
70
128
71
8
72
4
73
-3
0
VERTEX
8
OBJECT043
10
0
20
0
30
0
70
128
71
-8
72
3
73
7
0
VERTEX
8
OBJECT043
10
0
20
0
30
0
70
128
71
5
72
8
73
-7
0
VERTEX
8
OBJECT043
10
0
20
0
30
0
70
128
71
-5
72
7
73
6
0
VERTEX
8
OBJECT043
10
0
20
0
30
0
70
128
71
1
72
4
73
-8
0
VERTEX
8
OBJECT043
10
0
20
0
30
0
70
128
71
-1
72
8
73
5
0
VERTEX
8
OBJECT043
10
0
20
0
30
0
70
128
71
3
72
2
73
-6
0
VERTEX
8
OBJECT043
10
0
20
0
30
0
70
128
71
-3
72
6
73
7
0
SEQEND
8
OBJECT043
0
POLYLINE
8
OBJECT044
66
1
70
64
71
8
72
12
62
50
0
VERTEX
8
OBJECT044
10
768.000000
20
-832.000000
30
288.000000
70
192
0
VERTEX
8
OBJECT044
10
768.000000
20
-64.000000
30
288.000000
70
192
0
VERTEX
8
OBJECT044
10
768.000000
20
-64.000000
30
352.000000
70
192
0
VERTEX
8
OBJECT044
10
768.000000
20
-832.000000
30
352.000000
70
192
0
VERTEX
8
OBJECT044
10
832.000000
20
-64.000000
30
288.000000
70
192
0
VERTEX
8
OBJECT044
10
832.000000
20
-832.000000
30
288.000000
70
192
0
VERTEX
8
OBJECT044
10
832.000000
20
-832.000000
30
352.000000
70
192
0
VERTEX
8
OBJECT044
10
832.000000
20
-64.000000
30
352.000000
70
192
0
VERTEX
8
OBJECT044
10
0
20
0
30
0
70
128
71
2
72
3
73
-4
0
VERTEX
8
OBJECT044
10
0
20
0
30
0
70
128
71
-2
72
4
73
1
0
VERTEX
8
OBJECT044
10
0
20
0
30
0
70
128
71
6
72
7
73
-8
0
VERTEX
8
OBJECT044
10
0
20
0
30
0
70
128
71
-6
72
8
73
5
0
VERTEX
8
OBJECT044
10
0
20
0
30
0
70
128
71
3
72
8
73
-7
0
VERTEX
8
OBJECT044
10
0
20
0
30
0
70
128
71
-3
72
7
73
4
0
VERTEX
8
OBJECT044
10
0
20
0
30
0
70
128
71
1
72
6
73
-5
0
VERTEX
8
OBJECT044
10
0
20
0
30
0
70
128
71
-1
72
5
73
2
0
VERTEX
8
OBJECT044
10
0
20
0
30
0
70
128
71
6
72
1
73
-4
0
VERTEX
8
OBJECT044
10
0
20
0
30
0
70
128
71
-6
72
4
73
7
0
VERTEX
8
OBJECT044
10
0
20
0
30
0
70
128
71
2
72
5
73
-8
0
VERTEX
8
OBJECT044
10
0
20
0
30
0
70
128
71
-2
72
8
73
3
0
SEQEND
8
OBJECT044
0
POLYLINE
8
OBJECT045
66
1
70
64
71
8
72
12
62
50
0
VERTEX
8
OBJECT045
10
768.000000
20
-64.000000
30
288.000000
70
192
0
VERTEX
8
OBJECT045
10
768.000000
20
-832.000000
30
288.000000
70
192
0
VERTEX
8
OBJECT045
10
768.000000
20
-832.000000
30
224.000000
70
192
0
VERTEX
8
OBJECT045
10
768.000000
20
-64.000000
30
224.000000
70
192
0
VERTEX
8
OBJECT045
10
832.000000
20
-64.000000
30
224.000000
70
192
0
VERTEX
8
OBJECT045
10
832.000000
20
-832.000000
30
224.000000
70
192
0
VERTEX
8
OBJECT045
10
832.000000
20
-832.000000
30
288.000000
70
192
0
VERTEX
8
OBJECT045
10
832.000000
20
-64.000000
30
288.000000
70
192
0
VERTEX
8
OBJECT045
10
0
20
0
30
0
70
128
71
2
72
3
73
-4
0
VERTEX
8
OBJECT045
10
0
20
0
30
0
70
128
71
-2
72
4
73
1
0
VERTEX
8
OBJECT045
10
0
20
0
30
0
70
128
71
6
72
7
73
-8
0
VERTEX
8
OBJECT045
10
0
20
0
30
0
70
128
71
-6
72
8
73
5
0
VERTEX
8
OBJECT045
10
0
20
0
30
0
70
128
71
1
72
8
73
-7
0
VERTEX
8
OBJECT045
10
0
20
0
30
0
70
128
71
-1
72
7
73
2
0
VERTEX
8
OBJECT045
10
0
20
0
30
0
70
128
71
6
72
3
73
-2
0
VERTEX
8
OBJECT045
10
0
20
0
30
0
70
128
71
-6
72
2
73
7
0
VERTEX
8
OBJECT045
10
0
20
0
30
0
70
128
71
3
72
6
73
-5
0
VERTEX
8
OBJECT045
10
0
20
0
30
0
70
128
71
-3
72
5
73
4
0
VERTEX
8
OBJECT045
10
0
20
0
30
0
70
128
71
4
72
5
73
-8
0
VERTEX
8
OBJECT045
10
0
20
0
30
0
70
128
71
-4
72
8
73
1
0
SEQEND
8
OBJECT045
0
POLYLINE
8
OBJECT046
66
1
70
64
71
8
72
12
62
50
0
VERTEX
8
OBJECT046
10
512.000000
20
-64.000000
30
672.000000
70
192
0
VERTEX
8
OBJECT046
10
768.000000
20
-64.000000
30
512.000000
70
192
0
VERTEX
8
OBJECT046
10
768.000000
20
-1216.000000
30
512.000000
70
192
0
VERTEX
8
OBJECT046
10
512.000000
20
-1216.000000
30
672.000000
70
192
0
VERTEX
8
OBJECT046
10
512.000000
20
-1216.000000
30
608.000000
70
192
0
VERTEX
8
OBJECT046
10
768.000000
20
-1216.000000
30
448.000000
70
192
0
VERTEX
8
OBJECT046
10
768.000000
20
-64.000000
30
448.000000
70
192
0
VERTEX
8
OBJECT046
10
512.000000
20
-64.000000
30
608.000000
70
192
0
VERTEX
8
OBJECT046
10
0
20
0
30
0
70
128
71
2
72
3
73
-4
0
VERTEX
8
OBJECT046
10
0
20
0
30
0
70
128
71
-2
72
4
73
1
0
VERTEX
8
OBJECT046
10
0
20
0
30
0
70
128
71
6
72
7
73
-8
0
VERTEX
8
OBJECT046
10
0
20
0
30
0
70
128
71
-6
72
8
73
5
0
VERTEX
8
OBJECT046
10
0
20
0
30
0
70
128
71
3
72
2
73
-7
0
VERTEX
8
OBJECT046
10
0
20
0
30
0
70
128
71
-3
72
7
73
6
0
VERTEX
8
OBJECT046
10
0
20
0
30
0
70
128
71
1
72
4
73
-5
0
VERTEX
8
OBJECT046
10
0
20
0
30
0
70
128
71
-1
72
5
73
8
0
VERTEX
8
OBJECT046
10
0
20
0
30
0
70
128
71
4
72
3
73
-6
0
VERTEX
8
OBJECT046
10
0
20
0
30
0
70
128
71
-4
72
6
73
5
0
VERTEX
8
OBJECT046
10
0
20
0
30
0
70
128
71
2
72
1
73
-8
0
VERTEX
8
OBJECT046
10
0
20
0
30
0
70
128
71
-2
72
8
73
7
0
SEQEND
8
OBJECT046
0
POLYLINE
8
OBJECT047
66
1
70
64
71
8
72
12
62
50
0
VERTEX
8
OBJECT047
10
448.000000
20
-240.000000
30
608.000000
70
192
0
VERTEX
8
OBJECT047
10
448.000000
20
-144.000000
30
608.000000
70
192
0
VERTEX
8
OBJECT047
10
512.000000
20
-144.000000
30
608.000000
70
192
0
VERTEX
8
OBJECT047
10
512.000000
20
-240.000000
30
608.000000
70
192
0
VERTEX
8
OBJECT047
10
704.000000
20
-144.000000
30
448.000000
70
192
0
VERTEX
8
OBJECT047
10
704.000000
20
-240.000000
30
448.000000
70
192
0
VERTEX
8
OBJECT047
10
768.000000
20
-240.000000
30
448.000000
70
192
0
VERTEX
8
OBJECT047
10
768.000000
20
-144.000000
30
448.000000
70
192
0
VERTEX
8
OBJECT047
10
0
20
0
30
0
70
128
71
2
72
3
73
-4
0
VERTEX
8
OBJECT047
10
0
20
0
30
0
70
128
71
-2
72
4
73
1
0
VERTEX
8
OBJECT047
10
0
20
0
30
0
70
128
71
2
72
1
73
-6
0
VERTEX
8
OBJECT047
10
0
20
0
30
0
70
128
71
-2
72
6
73
5
0
VERTEX
8
OBJECT047
10
0
20
0
30
0
70
128
71
4
72
3
73
-8
0
VERTEX
8
OBJECT047
10
0
20
0
30
0
70
128
71
-4
72
8
73
7
0
VERTEX
8
OBJECT047
10
0
20
0
30
0
70
128
71
3
72
2
73
-5
0
VERTEX
8
OBJECT047
10
0
20
0
30
0
70
128
71
-3
72
5
73
8
0
VERTEX
8
OBJECT047
10
0
20
0
30
0
70
128
71
1
72
4
73
-7
0
VERTEX
8
OBJECT047
10
0
20
0
30
0
70
128
71
-1
72
7
73
6
0
VERTEX
8
OBJECT047
10
0
20
0
30
0
70
128
71
6
72
7
73
-8
0
VERTEX
8
OBJECT047
10
0
20
0
30
0
70
128
71
-6
72
8
73
5
0
SEQEND
8
OBJECT047
0
POLYLINE
8
OBJECT048
66
1
70
64
71
8
72
12
62
50
0
VERTEX
8
OBJECT048
10
448.000000
20
-528.000000
30
608.000000
70
192
0
VERTEX
8
OBJECT048
10
448.000000
20
-432.000000
30
608.000000
70
192
0
VERTEX
8
OBJECT048
10
512.000000
20
-432.000000
30
608.000000
70
192
0
VERTEX
8
OBJECT048
10
512.000000
20
-528.000000
30
608.000000
70
192
0
VERTEX
8
OBJECT048
10
704.000000
20
-432.000000
30
448.000000
70
192
0
VERTEX
8
OBJECT048
10
704.000000
20
-528.000000
30
448.000000
70
192
0
VERTEX
8
OBJECT048
10
768.000000
20
-528.000000
30
448.000000
70
192
0
VERTEX
8
OBJECT048
10
768.000000
20
-432.000000
30
448.000000
70
192
0
VERTEX
8
OBJECT048
10
0
20
0
30
0
70
128
71
2
72
3
73
-4
0
VERTEX
8
OBJECT048
10
0
20
0
30
0
70
128
71
-2
72
4
73
1
0
VERTEX
8
OBJECT048
10
0
20
0
30
0
70
128
71
2
72
1
73
-6
0
VERTEX
8
OBJECT048
10
0
20
0
30
0
70
128
71
-2
72
6
73
5
0
VERTEX
8
OBJECT048
10
0
20
0
30
0
70
128
71
4
72
3
73
-8
0
VERTEX
8
OBJECT048
10
0
20
0
30
0
70
128
71
-4
72
8
73
7
0
VERTEX
8
OBJECT048
10
0
20
0
30
0
70
128
71
3
72
2
73
-5
0
VERTEX
8
OBJECT048
10
0
20
0
30
0
70
128
71
-3
72
5
73
8
0
VERTEX
8
OBJECT048
10
0
20
0
30
0
70
128
71
1
72
4
73
-7
0
VERTEX
8
OBJECT048
10
0
20
0
30
0
70
128
71
-1
72
7
73
6
0
VERTEX
8
OBJECT048
10
0
20
0
30
0
70
128
71
6
72
7
73
-8
0
VERTEX
8
OBJECT048
10
0
20
0
30
0
70
128
71
-6
72
8
73
5
0
SEQEND
8
OBJECT048
0
POLYLINE
8
OBJECT049
66
1
70
64
71
8
72
12
62
50
0
VERTEX
8
OBJECT049
10
448.000000
20
-816.000000
30
608.000000
70
192
0
VERTEX
8
OBJECT049
10
448.000000
20
-720.000000
30
608.000000
70
192
0
VERTEX
8
OBJECT049
10
512.000000
20
-720.000000
30
608.000000
70
192
0
VERTEX
8
OBJECT049
10
512.000000
20
-816.000000
30
608.000000
70
192
0
VERTEX
8
OBJECT049
10
704.000000
20
-720.000000
30
448.000000
70
192
0
VERTEX
8
OBJECT049
10
704.000000
20
-816.000000
30
448.000000
70
192
0
VERTEX
8
OBJECT049
10
768.000000
20
-816.000000
30
448.000000
70
192
0
VERTEX
8
OBJECT049
10
768.000000
20
-720.000000
30
448.000000
70
192
0
VERTEX
8
OBJECT049
10
0
20
0
30
0
70
128
71
2
72
3
73
-4
0
VERTEX
8
OBJECT049
10
0
20
0
30
0
70
128
71
-2
72
4
73
1
0
VERTEX
8
OBJECT049
10
0
20
0
30
0
70
128
71
2
72
1
73
-6
0
VERTEX
8
OBJECT049
10
0
20
0
30
0
70
128
71
-2
72
6
73
5
0
VERTEX
8
OBJECT049
10
0
20
0
30
0
70
128
71
4
72
3
73
-8
0
VERTEX
8
OBJECT049
10
0
20
0
30
0
70
128
71
-4
72
8
73
7
0
VERTEX
8
OBJECT049
10
0
20
0
30
0
70
128
71
3
72
2
73
-5
0
VERTEX
8
OBJECT049
10
0
20
0
30
0
70
128
71
-3
72
5
73
8
0
VERTEX
8
OBJECT049
10
0
20
0
30
0
70
128
71
1
72
4
73
-7
0
VERTEX
8
OBJECT049
10
0
20
0
30
0
70
128
71
-1
72
7
73
6
0
VERTEX
8
OBJECT049
10
0
20
0
30
0
70
128
71
6
72
7
73
-8
0
VERTEX
8
OBJECT049
10
0
20
0
30
0
70
128
71
-6
72
8
73
5
0
SEQEND
8
OBJECT049
0
POLYLINE
8
OBJECT050
66
1
70
64
71
8
72
12
62
50
0
VERTEX
8
OBJECT050
10
-556.283203
20
-640.000000
30
254.269531
70
192
0
VERTEX
8
OBJECT050
10
-548.000000
20
-672.000000
30
285.179688
70
192
0
VERTEX
8
OBJECT050
10
-857.094910
20
-672.000000
30
368.000000
70
192
0
VERTEX
8
OBJECT050
10
-865.377502
20
-640.000000
30
337.091919
70
192
0
VERTEX
8
OBJECT050
10
-869.520508
20
-640.000000
30
321.632813
70
192
0
VERTEX
8
OBJECT050
10
-860.202148
20
-672.000000
30
356.406250
70
192
0
VERTEX
8
OBJECT050
10
-551.102783
20
-672.000000
30
273.583588
70
192
0
VERTEX
8
OBJECT050
10
-560.419800
20
-640.000000
30
238.809601
70
192
0
VERTEX
8
OBJECT050
10
0
20
0
30
0
70
128
71
2
72
3
73
-4
0
VERTEX
8
OBJECT050
10
0
20
0
30
0
70
128
71
-2
72
4
73
1
0
VERTEX
8
OBJECT050
10
0
20
0
30
0
70
128
71
6
72
7
73
-8
0
VERTEX
8
OBJECT050
10
0
20
0
30
0
70
128
71
-6
72
8
73
5
0
VERTEX
8
OBJECT050
10
0
20
0
30
0
70
128
71
7
72
2
73
-1
0
VERTEX
8
OBJECT050
10
0
20
0
30
0
70
128
71
-7
72
1
73
8
0
VERTEX
8
OBJECT050
10
0
20
0
30
0
70
128
71
3
72
6
73
-5
0
VERTEX
8
OBJECT050
10
0
20
0
30
0
70
128
71
-3
72
5
73
4
0
VERTEX
8
OBJECT050
10
0
20
0
30
0
70
128
71
6
72
3
73
-2
0
VERTEX
8
OBJECT050
10
0
20
0
30
0
70
128
71
-6
72
2
73
7
0
VERTEX
8
OBJECT050
10
0
20
0
30
0
70
128
71
8
72
1
73
-4
0
VERTEX
8
OBJECT050
10
0
20
0
30
0
70
128
71
-8
72
4
73
5
0
SEQEND
8
OBJECT050
0
POLYLINE
8
OBJECT051
66
1
70
64
71
8
72
12
62
50
0
VERTEX
8
OBJECT051
10
-865.373047
20
-640.000000
30
337.089844
70
192
0
VERTEX
8
OBJECT051
10
-857.090820
20
-608.000000
30
368.000000
70
192
0
VERTEX
8
OBJECT051
10
-548.000000
20
-608.000000
30
285.178192
70
192
0
VERTEX
8
OBJECT051
10
-556.284058
20
-640.000000
30
254.268143
70
192
0
VERTEX
8
OBJECT051
10
-560.425781
20
-640.000000
30
238.812500
70
192
0
VERTEX
8
OBJECT051
10
-551.108398
20
-608.000000
30
273.585938
70
192
0
VERTEX
8
OBJECT051
10
-860.201904
20
-608.000000
30
356.409363
70
192
0
VERTEX
8
OBJECT051
10
-869.520081
20
-640.000000
30
321.635712
70
192
0
VERTEX
8
OBJECT051
10
0
20
0
30
0
70
128
71
2
72
3
73
-4
0
VERTEX
8
OBJECT051
10
0
20
0
30
0
70
128
71
-2
72
4
73
1
0
VERTEX
8
OBJECT051
10
0
20
0
30
0
70
128
71
6
72
7
73
-8
0
VERTEX
8
OBJECT051
10
0
20
0
30
0
70
128
71
-6
72
8
73
5
0
VERTEX
8
OBJECT051
10
0
20
0
30
0
70
128
71
3
72
6
73
-5
0
VERTEX
8
OBJECT051
10
0
20
0
30
0
70
128
71
-3
72
5
73
4
0
VERTEX
8
OBJECT051
10
0
20
0
30
0
70
128
71
1
72
8
73
-7
0
VERTEX
8
OBJECT051
10
0
20
0
30
0
70
128
71
-1
72
7
73
2
0
VERTEX
8
OBJECT051
10
0
20
0
30
0
70
128
71
6
72
3
73
-2
0
VERTEX
8
OBJECT051
10
0
20
0
30
0
70
128
71
-6
72
2
73
7
0
VERTEX
8
OBJECT051
10
0
20
0
30
0
70
128
71
8
72
1
73
-4
0
VERTEX
8
OBJECT051
10
0
20
0
30
0
70
128
71
-8
72
4
73
5
0
SEQEND
8
OBJECT051
0
POLYLINE
8
OBJECT052
66
1
70
64
71
8
72
12
62
50
0
VERTEX
8
OBJECT052
10
-572.276367
20
-64.000000
30
254.269531
70
192
0
VERTEX
8
OBJECT052
10
-564.000000
20
-96.000000
30
285.179688
70
192
0
VERTEX
8
OBJECT052
10
-873.096191
20
-96.000000
30
368.000000
70
192
0
VERTEX
8
OBJECT052
10
-881.378052
20
-64.000000
30
337.089905
70
192
0
VERTEX
8
OBJECT052
10
-885.519531
20
-64.000000
30
321.636719
70
192
0
VERTEX
8
OBJECT052
10
-876.202148
20
-96.000000
30
356.410156
70
192
0
VERTEX
8
OBJECT052
10
-567.106873
20
-96.000000
30
273.587708
70
192
0
VERTEX
8
OBJECT052
10
-576.423889
20
-64.000000
30
238.813705
70
192
0
VERTEX
8
OBJECT052
10
0
20
0
30
0
70
128
71
2
72
3
73
-4
0
VERTEX
8
OBJECT052
10
0
20
0
30
0
70
128
71
-2
72
4
73
1
0
VERTEX
8
OBJECT052
10
0
20
0
30
0
70
128
71
6
72
7
73
-8
0
VERTEX
8
OBJECT052
10
0
20
0
30
0
70
128
71
-6
72
8
73
5
0
VERTEX
8
OBJECT052
10
0
20
0
30
0
70
128
71
1
72
8
73
-7
0
VERTEX
8
OBJECT052
10
0
20
0
30
0
70
128
71
-1
72
7
73
2
0
VERTEX
8
OBJECT052
10
0
20
0
30
0
70
128
71
3
72
6
73
-5
0
VERTEX
8
OBJECT052
10
0
20
0
30
0
70
128
71
-3
72
5
73
4
0
VERTEX
8
OBJECT052
10
0
20
0
30
0
70
128
71
6
72
3
73
-2
0
VERTEX
8
OBJECT052
10
0
20
0
30
0
70
128
71
-6
72
2
73
7
0
VERTEX
8
OBJECT052
10
0
20
0
30
0
70
128
71
8
72
1
73
-4
0
VERTEX
8
OBJECT052
10
0
20
0
30
0
70
128
71
-8
72
4
73
5
0
SEQEND
8
OBJECT052
0
POLYLINE
8
OBJECT053
66
1
70
64
71
8
72
12
62
50
0
VERTEX
8
OBJECT053
10
-881.380859
20
-64.000000
30
337.085938
70
192
0
VERTEX
8
OBJECT053
10
-873.099609
20
-32.000000
30
368.000000
70
192
0
VERTEX
8
OBJECT053
10
-564.000000
20
-32.000000
30
285.173767
70
192
0
VERTEX
8
OBJECT053
10
-572.279053
20
-64.000000
30
254.263687
70
192
0
VERTEX
8
OBJECT053
10
-576.421875
20
-64.000000
30
238.808594
70
192
0
VERTEX
8
OBJECT053
10
-567.104492
20
-32.000000
30
273.582031
70
192
0
VERTEX
8
OBJECT053
10
-876.201599
20
-32.000000
30
356.410461
70
192
0
VERTEX
8
OBJECT053
10
-885.518799
20
-64.000000
30
321.636536
70
192
0
VERTEX
8
OBJECT053
10
0
20
0
30
0
70
128
71
2
72
3
73
-4
0
VERTEX
8
OBJECT053
10
0
20
0
30
0
70
128
71
-2
72
4
73
1
0
VERTEX
8
OBJECT053
10
0
20
0
30
0
70
128
71
6
72
7
73
-8
0
VERTEX
8
OBJECT053
10
0
20
0
30
0
70
128
71
-6
72
8
73
5
0
VERTEX
8
OBJECT053
10
0
20
0
30
0
70
128
71
3
72
6
73
-5
0
VERTEX
8
OBJECT053
10
0
20
0
30
0
70
128
71
-3
72
5
73
4
0
VERTEX
8
OBJECT053
10
0
20
0
30
0
70
128
71
1
72
8
73
-7
0
VERTEX
8
OBJECT053
10
0
20
0
30
0
70
128
71
-1
72
7
73
2
0
VERTEX
8
OBJECT053
10
0
20
0
30
0
70
128
71
6
72
3
73
-2
0
VERTEX
8
OBJECT053
10
0
20
0
30
0
70
128
71
-6
72
2
73
7
0
VERTEX
8
OBJECT053
10
0
20
0
30
0
70
128
71
8
72
1
73
-4
0
VERTEX
8
OBJECT053
10
0
20
0
30
0
70
128
71
-8
72
4
73
5
0
SEQEND
8
OBJECT053
0
POLYLINE
8
OBJECT054
66
1
70
64
71
8
72
12
62
50
0
VERTEX
8
OBJECT054
10
-572.291016
20
-352.000000
30
254.269531
70
192
0
VERTEX
8
OBJECT054
10
-564.000000
20
-384.000000
30
285.179688
70
192
0
VERTEX
8
OBJECT054
10
-873.095459
20
-384.000000
30
368.000000
70
192
0
VERTEX
8
OBJECT054
10
-881.378052
20
-352.000000
30
337.089661
70
192
0
VERTEX
8
OBJECT054
10
-885.520508
20
-352.000000
30
321.636719
70
192
0
VERTEX
8
OBJECT054
10
-876.202148
20
-384.000000
30
356.410156
70
192
0
VERTEX
8
OBJECT054
10
-567.110718
20
-384.000000
30
273.588806
70
192
0
VERTEX
8
OBJECT054
10
-576.427734
20
-352.000000
30
238.814804
70
192
0
VERTEX
8
OBJECT054
10
0
20
0
30
0
70
128
71
2
72
3
73
-4
0
VERTEX
8
OBJECT054
10
0
20
0
30
0
70
128
71
-2
72
4
73
1
0
VERTEX
8
OBJECT054
10
0
20
0
30
0
70
128
71
6
72
7
73
-8
0
VERTEX
8
OBJECT054
10
0
20
0
30
0
70
128
71
-6
72
8
73
5
0
VERTEX
8
OBJECT054
10
0
20
0
30
0
70
128
71
7
72
2
73
-1
0
VERTEX
8
OBJECT054
10
0
20
0
30
0
70
128
71
-7
72
1
73
8
0
VERTEX
8
OBJECT054
10
0
20
0
30
0
70
128
71
3
72
6
73
-5
0
VERTEX
8
OBJECT054
10
0
20
0
30
0
70
128
71
-3
72
5
73
4
0
VERTEX
8
OBJECT054
10
0
20
0
30
0
70
128
71
6
72
3
73
-2
0
VERTEX
8
OBJECT054
10
0
20
0
30
0
70
128
71
-6
72
2
73
7
0
VERTEX
8
OBJECT054
10
0
20
0
30
0
70
128
71
8
72
1
73
-4
0
VERTEX
8
OBJECT054
10
0
20
0
30
0
70
128
71
-8
72
4
73
5
0
SEQEND
8
OBJECT054
0
POLYLINE
8
OBJECT055
66
1
70
64
71
8
72
12
62
50
0
VERTEX
8
OBJECT055
10
-881.380859
20
-352.000000
30
337.082031
70
192
0
VERTEX
8
OBJECT055
10
-873.097656
20
-320.000000
30
368.000000
70
192
0
VERTEX
8
OBJECT055
10
-564.000000
20
-320.000000
30
285.174133
70
192
0
VERTEX
8
OBJECT055
10
-572.285400
20
-352.000000
30
254.264053
70
192
0
VERTEX
8
OBJECT055
10
-576.423828
20
-352.000000
30
238.812500
70
192
0
VERTEX
8
OBJECT055
10
-567.106445
20
-320.000000
30
273.585938
70
192
0
VERTEX
8
OBJECT055
10
-876.202209
20
-320.000000
30
356.408325
70
192
0
VERTEX
8
OBJECT055
10
-885.520386
20
-352.000000
30
321.634644
70
192
0
VERTEX
8
OBJECT055
10
0
20
0
30
0
70
128
71
2
72
3
73
-4
0
VERTEX
8
OBJECT055
10
0
20
0
30
0
70
128
71
-2
72
4
73
1
0
VERTEX
8
OBJECT055
10
0
20
0
30
0
70
128
71
6
72
7
73
-8
0
VERTEX
8
OBJECT055
10
0
20
0
30
0
70
128
71
-6
72
8
73
5
0
VERTEX
8
OBJECT055
10
0
20
0
30
0
70
128
71
3
72
6
73
-5
0
VERTEX
8
OBJECT055
10
0
20
0
30
0
70
128
71
-3
72
5
73
4
0
VERTEX
8
OBJECT055
10
0
20
0
30
0
70
128
71
1
72
8
73
-7
0
VERTEX
8
OBJECT055
10
0
20
0
30
0
70
128
71
-1
72
7
73
2
0
VERTEX
8
OBJECT055
10
0
20
0
30
0
70
128
71
6
72
3
73
-2
0
VERTEX
8
OBJECT055
10
0
20
0
30
0
70
128
71
-6
72
2
73
7
0
VERTEX
8
OBJECT055
10
0
20
0
30
0
70
128
71
8
72
1
73
-4
0
VERTEX
8
OBJECT055
10
0
20
0
30
0
70
128
71
-8
72
4
73
5
0
SEQEND
8
OBJECT055
0
POLYLINE
8
OBJECT056
66
1
70
64
71
8
72
12
62
50
0
VERTEX
8
OBJECT056
10
530.756836
20
224.000000
30
254.265625
70
192
0
VERTEX
8
OBJECT056
10
522.474609
20
256.000000
30
285.175781
70
192
0
VERTEX
8
OBJECT056
10
831.577026
20
256.000000
30
368.000000
70
192
0
VERTEX
8
OBJECT056
10
839.859009
20
224.000000
30
337.090393
70
192
0
VERTEX
8
OBJECT056
10
844.000000
20
224.000000
30
321.632813
70
192
0
VERTEX
8
OBJECT056
10
834.680664
20
256.000000
30
356.406250
70
192
0
VERTEX
8
OBJECT056
10
525.583496
20
256.000000
30
273.585938
70
192
0
VERTEX
8
OBJECT056
10
534.901489
20
224.000000
30
238.811920
70
192
0
VERTEX
8
OBJECT056
10
0
20
0
30
0
70
128
71
2
72
3
73
-4
0
VERTEX
8
OBJECT056
10
0
20
0
30
0
70
128
71
-2
72
4
73
1
0
VERTEX
8
OBJECT056
10
0
20
0
30
0
70
128
71
6
72
7
73
-8
0
VERTEX
8
OBJECT056
10
0
20
0
30
0
70
128
71
-6
72
8
73
5
0
VERTEX
8
OBJECT056
10
0
20
0
30
0
70
128
71
1
72
8
73
-7
0
VERTEX
8
OBJECT056
10
0
20
0
30
0
70
128
71
-1
72
7
73
2
0
VERTEX
8
OBJECT056
10
0
20
0
30
0
70
128
71
3
72
6
73
-5
0
VERTEX
8
OBJECT056
10
0
20
0
30
0
70
128
71
-3
72
5
73
4
0
VERTEX
8
OBJECT056
10
0
20
0
30
0
70
128
71
6
72
3
73
-2
0
VERTEX
8
OBJECT056
10
0
20
0
30
0
70
128
71
-6
72
2
73
7
0
VERTEX
8
OBJECT056
10
0
20
0
30
0
70
128
71
8
72
1
73
-4
0
VERTEX
8
OBJECT056
10
0
20
0
30
0
70
128
71
-8
72
4
73
5
0
SEQEND
8
OBJECT056
0
POLYLINE
8
OBJECT057
66
1
70
64
71
8
72
12
62
50
0
VERTEX
8
OBJECT057
10
839.856445
20
224.000000
30
337.093750
70
192
0
VERTEX
8
OBJECT057
10
831.574219
20
192.000000
30
368.000000
70
192
0
VERTEX
8
OBJECT057
10
522.474976
20
192.000000
30
285.178680
70
192
0
VERTEX
8
OBJECT057
10
530.757690
20
224.000000
30
254.268585
70
192
0
VERTEX
8
OBJECT057
10
534.899414
20
224.000000
30
238.812500
70
192
0
VERTEX
8
OBJECT057
10
525.582031
20
192.000000
30
273.585938
70
192
0
VERTEX
8
OBJECT057
10
834.683105
20
192.000000
30
356.408813
70
192
0
VERTEX
8
OBJECT057
10
844.000000
20
224.000000
30
321.634644
70
192
0
VERTEX
8
OBJECT057
10
0
20
0
30
0
70
128
71
2
72
3
73
-4
0
VERTEX
8
OBJECT057
10
0
20
0
30
0
70
128
71
-2
72
4
73
1
0
VERTEX
8
OBJECT057
10
0
20
0
30
0
70
128
71
6
72
7
73
-8
0
VERTEX
8
OBJECT057
10
0
20
0
30
0
70
128
71
-6
72
8
73
5
0
VERTEX
8
OBJECT057
10
0
20
0
30
0
70
128
71
3
72
6
73
-5
0
VERTEX
8
OBJECT057
10
0
20
0
30
0
70
128
71
-3
72
5
73
4
0
VERTEX
8
OBJECT057
10
0
20
0
30
0
70
128
71
1
72
8
73
-7
0
VERTEX
8
OBJECT057
10
0
20
0
30
0
70
128
71
-1
72
7
73
2
0
VERTEX
8
OBJECT057
10
0
20
0
30
0
70
128
71
6
72
3
73
-2
0
VERTEX
8
OBJECT057
10
0
20
0
30
0
70
128
71
-6
72
2
73
7
0
VERTEX
8
OBJECT057
10
0
20
0
30
0
70
128
71
8
72
1
73
-4
0
VERTEX
8
OBJECT057
10
0
20
0
30
0
70
128
71
-8
72
4
73
5
0
SEQEND
8
OBJECT057
0
POLYLINE
8
OBJECT058
66
1
70
64
71
8
72
12
62
50
0
VERTEX
8
OBJECT058
10
1152.000000
20
512.000000
30
-2176.000000
70
192
0
VERTEX
8
OBJECT058
10
2304.000000
20
512.000000
30
-2176.000000
70
192
0
VERTEX
8
OBJECT058
10
2304.000000
20
576.000000
30
-2176.000000
70
192
0
VERTEX
8
OBJECT058
10
1152.000000
20
576.000000
30
-2176.000000
70
192
0
VERTEX
8
OBJECT058
10
1152.000000
20
576.000000
30
-1344.000000
70
192
0
VERTEX
8
OBJECT058
10
1152.000000
20
512.000000
30
-1344.000000
70
192
0
VERTEX
8
OBJECT058
10
2304.000000
20
512.000000
30
-1344.000000
70
192
0
VERTEX
8
OBJECT058
10
2304.000000
20
576.000000
30
-1344.000000
70
192
0
VERTEX
8
OBJECT058
10
0
20
0
30
0
70
128
71
2
72
3
73
-4
0
VERTEX
8
OBJECT058
10
0
20
0
30
0
70
128
71
-2
72
4
73
1
0
VERTEX
8
OBJECT058
10
0
20
0
30
0
70
128
71
5
72
6
73
-1
0
VERTEX
8
OBJECT058
10
0
20
0
30
0
70
128
71
-5
72
1
73
4
0
VERTEX
8
OBJECT058
10
0
20
0
30
0
70
128
71
7
72
8
73
-3
0
VERTEX
8
OBJECT058
10
0
20
0
30
0
70
128
71
-7
72
3
73
2
0
VERTEX
8
OBJECT058
10
0
20
0
30
0
70
128
71
8
72
5
73
-4
0
VERTEX
8
OBJECT058
10
0
20
0
30
0
70
128
71
-8
72
4
73
3
0
VERTEX
8
OBJECT058
10
0
20
0
30
0
70
128
71
6
72
7
73
-2
0
VERTEX
8
OBJECT058
10
0
20
0
30
0
70
128
71
-6
72
2
73
1
0
VERTEX
8
OBJECT058
10
0
20
0
30
0
70
128
71
8
72
7
73
-6
0
VERTEX
8
OBJECT058
10
0
20
0
30
0
70
128
71
-8
72
6
73
5
0
SEQEND
8
OBJECT058
0
POLYLINE
8
OBJECT059
66
1
70
64
71
8
72
12
62
50
0
VERTEX
8
OBJECT059
10
2304.000000
20
576.000000
30
-960.000000
70
192
0
VERTEX
8
OBJECT059
10
2304.000000
20
512.000000
30
-960.000000
70
192
0
VERTEX
8
OBJECT059
10
1812.000000
20
512.000000
30
-960.000000
70
192
0
VERTEX
8
OBJECT059
10
1812.000000
20
576.000000
30
-960.000000
70
192
0
VERTEX
8
OBJECT059
10
2304.000000
20
576.000000
30
-1344.000000
70
192
0
VERTEX
8
OBJECT059
10
2304.000000
20
512.000000
30
-1344.000000
70
192
0
VERTEX
8
OBJECT059
10
1812.000000
20
576.000000
30
-1344.000000
70
192
0
VERTEX
8
OBJECT059
10
1812.000000
20
512.000000
30
-1344.000000
70
192
0
VERTEX
8
OBJECT059
10
0
20
0
30
0
70
128
71
2
72
3
73
-4
0
VERTEX
8
OBJECT059
10
0
20
0
30
0
70
128
71
-2
72
4
73
1
0
VERTEX
8
OBJECT059
10
0
20
0
30
0
70
128
71
1
72
5
73
-6
0
VERTEX
8
OBJECT059
10
0
20
0
30
0
70
128
71
-1
72
6
73
2
0
VERTEX
8
OBJECT059
10
0
20
0
30
0
70
128
71
1
72
4
73
-7
0
VERTEX
8
OBJECT059
10
0
20
0
30
0
70
128
71
-1
72
7
73
5
0
VERTEX
8
OBJECT059
10
0
20
0
30
0
70
128
71
6
72
8
73
-3
0
VERTEX
8
OBJECT059
10
0
20
0
30
0
70
128
71
-6
72
3
73
2
0
VERTEX
8
OBJECT059
10
0
20
0
30
0
70
128
71
5
72
7
73
-8
0
VERTEX
8
OBJECT059
10
0
20
0
30
0
70
128
71
-5
72
8
73
6
0
VERTEX
8
OBJECT059
10
0
20
0
30
0
70
128
71
3
72
8
73
-7
0
VERTEX
8
OBJECT059
10
0
20
0
30
0
70
128
71
-3
72
7
73
4
0
SEQEND
8
OBJECT059
0
POLYLINE
8
OBJECT060
66
1
70
64
71
8
72
12
62
50
0
VERTEX
8
OBJECT060
10
1644.000000
20
576.000000
30
-960.000000
70
192
0
VERTEX
8
OBJECT060
10
1812.000000
20
576.000000
30
-960.000000
70
192
0
VERTEX
8
OBJECT060
10
1812.000000
20
512.000000
30
-960.000000
70
192
0
VERTEX
8
OBJECT060
10
1644.000000
20
512.000000
30
-960.000000
70
192
0
VERTEX
8
OBJECT060
10
1644.000000
20
576.000000
30
-1236.000000
70
192
0
VERTEX
8
OBJECT060
10
1812.000000
20
576.000000
30
-1236.000000
70
192
0
VERTEX
8
OBJECT060
10
1812.000000
20
512.000000
30
-1236.000000
70
192
0
VERTEX
8
OBJECT060
10
1644.000000
20
512.000000
30
-1236.000000
70
192
0
VERTEX
8
OBJECT060
10
0
20
0
30
0
70
128
71
2
72
3
73
-4
0
VERTEX
8
OBJECT060
10
0
20
0
30
0
70
128
71
-2
72
4
73
1
0
VERTEX
8
OBJECT060
10
0
20
0
30
0
70
128
71
6
72
2
73
-1
0
VERTEX
8
OBJECT060
10
0
20
0
30
0
70
128
71
-6
72
1
73
5
0
VERTEX
8
OBJECT060
10
0
20
0
30
0
70
128
71
3
72
7
73
-8
0
VERTEX
8
OBJECT060
10
0
20
0
30
0
70
128
71
-3
72
8
73
4
0
VERTEX
8
OBJECT060
10
0
20
0
30
0
70
128
71
7
72
6
73
-5
0
VERTEX
8
OBJECT060
10
0
20
0
30
0
70
128
71
-7
72
5
73
8
0
VERTEX
8
OBJECT060
10
0
20
0
30
0
70
128
71
1
72
4
73
-8
0
VERTEX
8
OBJECT060
10
0
20
0
30
0
70
128
71
-1
72
8
73
5
0
VERTEX
8
OBJECT060
10
0
20
0
30
0
70
128
71
3
72
2
73
-6
0
VERTEX
8
OBJECT060
10
0
20
0
30
0
70
128
71
-3
72
6
73
7
0
SEQEND
8
OBJECT060
0
POLYLINE
8
OBJECT061
66
1
70
64
71
8
72
12
62
50
0
VERTEX
8
OBJECT061
10
1152.000000
20
512.000000
30
-960.000000
70
192
0
VERTEX
8
OBJECT061
10
1152.000000
20
576.000000
30
-960.000000
70
192
0
VERTEX
8
OBJECT061
10
1644.000000
20
576.000000
30
-960.000000
70
192
0
VERTEX
8
OBJECT061
10
1644.000000
20
512.000000
30
-960.000000
70
192
0
VERTEX
8
OBJECT061
10
1152.000000
20
512.000000
30
-1344.000000
70
192
0
VERTEX
8
OBJECT061
10
1152.000000
20
576.000000
30
-1344.000000
70
192
0
VERTEX
8
OBJECT061
10
1644.000000
20
576.000000
30
-1344.000000
70
192
0
VERTEX
8
OBJECT061
10
1644.000000
20
512.000000
30
-1344.000000
70
192
0
VERTEX
8
OBJECT061
10
0
20
0
30
0
70
128
71
2
72
3
73
-4
0
VERTEX
8
OBJECT061
10
0
20
0
30
0
70
128
71
-2
72
4
73
1
0
VERTEX
8
OBJECT061
10
0
20
0
30
0
70
128
71
1
72
5
73
-6
0
VERTEX
8
OBJECT061
10
0
20
0
30
0
70
128
71
-1
72
6
73
2
0
VERTEX
8
OBJECT061
10
0
20
0
30
0
70
128
71
6
72
7
73
-3
0
VERTEX
8
OBJECT061
10
0
20
0
30
0
70
128
71
-6
72
3
73
2
0
VERTEX
8
OBJECT061
10
0
20
0
30
0
70
128
71
1
72
4
73
-8
0
VERTEX
8
OBJECT061
10
0
20
0
30
0
70
128
71
-1
72
8
73
5
0
VERTEX
8
OBJECT061
10
0
20
0
30
0
70
128
71
5
72
8
73
-7
0
VERTEX
8
OBJECT061
10
0
20
0
30
0
70
128
71
-5
72
7
73
6
0
VERTEX
8
OBJECT061
10
0
20
0
30
0
70
128
71
3
72
7
73
-8
0
VERTEX
8
OBJECT061
10
0
20
0
30
0
70
128
71
-3
72
8
73
4
0
SEQEND
8
OBJECT061
0
POLYLINE
8
OBJECT062
66
1
70
64
71
8
72
12
62
50
0
VERTEX
8
OBJECT062
10
1856.000000
20
-1472.000000
30
-1352.000000
70
192
0
VERTEX
8
OBJECT062
10
1600.000000
20
-1472.000000
30
-1352.000000
70
192
0
VERTEX
8
OBJECT062
10
1600.000000
20
512.000000
30
-1352.000000
70
192
0
VERTEX
8
OBJECT062
10
1856.000000
20
512.000000
30
-1352.000000
70
192
0
VERTEX
8
OBJECT062
10
1856.000000
20
512.000000
30
-1360.000000
70
192
0
VERTEX
8
OBJECT062
10
1600.000000
20
512.000000
30
-1360.000000
70
192
0
VERTEX
8
OBJECT062
10
1600.000000
20
-1472.000000
30
-1360.000000
70
192
0
VERTEX
8
OBJECT062
10
1856.000000
20
-1472.000000
30
-1360.000000
70
192
0
VERTEX
8
OBJECT062
10
0
20
0
30
0
70
128
71
2
72
3
73
-4
0
VERTEX
8
OBJECT062
10
0
20
0
30
0
70
128
71
-2
72
4
73
1
0
VERTEX
8
OBJECT062
10
0
20
0
30
0
70
128
71
6
72
7
73
-8
0
VERTEX
8
OBJECT062
10
0
20
0
30
0
70
128
71
-6
72
8
73
5
0
VERTEX
8
OBJECT062
10
0
20
0
30
0
70
128
71
6
72
3
73
-2
0
VERTEX
8
OBJECT062
10
0
20
0
30
0
70
128
71
-6
72
2
73
7
0
VERTEX
8
OBJECT062
10
0
20
0
30
0
70
128
71
4
72
5
73
-8
0
VERTEX
8
OBJECT062
10
0
20
0
30
0
70
128
71
-4
72
8
73
1
0
VERTEX
8
OBJECT062
10
0
20
0
30
0
70
128
71
5
72
4
73
-3
0
VERTEX
8
OBJECT062
10
0
20
0
30
0
70
128
71
-5
72
3
73
6
0
VERTEX
8
OBJECT062
10
0
20
0
30
0
70
128
71
1
72
8
73
-7
0
VERTEX
8
OBJECT062
10
0
20
0
30
0
70
128
71
-1
72
7
73
2
0
SEQEND
8
OBJECT062
0
POLYLINE
8
OBJECT063
66
1
70
64
71
6
72
8
62
50
0
VERTEX
8
OBJECT063
10
960.000000
20
320.000000
30
-960.000000
70
192
0
VERTEX
8
OBJECT063
10
960.000000
20
512.000000
30
-960.000000
70
192
0
VERTEX
8
OBJECT063
10
1152.000000
20
512.000000
30
-960.000000
70
192
0
VERTEX
8
OBJECT063
10
960.000000
20
320.000000
30
-2176.000000
70
192
0
VERTEX
8
OBJECT063
10
1152.000000
20
512.000000
30
-2176.000000
70
192
0
VERTEX
8
OBJECT063
10
960.000000
20
512.000000
30
-2176.000000
70
192
0
VERTEX
8
OBJECT063
10
0
20
0
30
0
70
128
71
2
72
3
73
1
0
VERTEX
8
OBJECT063
10
0
20
0
30
0
70
128
71
5
72
6
73
4
0
VERTEX
8
OBJECT063
10
0
20
0
30
0
70
128
71
5
72
3
73
-2
0
VERTEX
8
OBJECT063
10
0
20
0
30
0
70
128
71
-5
72
2
73
6
0
VERTEX
8
OBJECT063
10
0
20
0
30
0
70
128
71
6
72
2
73
-1
0
VERTEX
8
OBJECT063
10
0
20
0
30
0
70
128
71
-6
72
1
73
4
0
VERTEX
8
OBJECT063
10
0
20
0
30
0
70
128
71
4
72
1
73
-3
0
VERTEX
8
OBJECT063
10
0
20
0
30
0
70
128
71
-4
72
3
73
5
0
SEQEND
8
OBJECT063
0
POLYLINE
8
OBJECT064
66
1
70
64
71
6
72
8
62
50
0
VERTEX
8
OBJECT064
10
1152.000000
20
-1472.000000
30
-960.000000
70
192
0
VERTEX
8
OBJECT064
10
960.000000
20
-1472.000000
30
-960.000000
70
192
0
VERTEX
8
OBJECT064
10
960.000000
20
-1280.000000
30
-960.000000
70
192
0
VERTEX
8
OBJECT064
10
1152.000000
20
-1472.000000
30
-2176.000000
70
192
0
VERTEX
8
OBJECT064
10
960.000000
20
-1280.000000
30
-2176.000000
70
192
0
VERTEX
8
OBJECT064
10
960.000000
20
-1472.000000
30
-2176.000000
70
192
0
VERTEX
8
OBJECT064
10
0
20
0
30
0
70
128
71
2
72
3
73
1
0
VERTEX
8
OBJECT064
10
0
20
0
30
0
70
128
71
5
72
6
73
4
0
VERTEX
8
OBJECT064
10
0
20
0
30
0
70
128
71
5
72
3
73
-2
0
VERTEX
8
OBJECT064
10
0
20
0
30
0
70
128
71
-5
72
2
73
6
0
VERTEX
8
OBJECT064
10
0
20
0
30
0
70
128
71
6
72
2
73
-1
0
VERTEX
8
OBJECT064
10
0
20
0
30
0
70
128
71
-6
72
1
73
4
0
VERTEX
8
OBJECT064
10
0
20
0
30
0
70
128
71
4
72
1
73
-3
0
VERTEX
8
OBJECT064
10
0
20
0
30
0
70
128
71
-4
72
3
73
5
0
SEQEND
8
OBJECT064
0
POLYLINE
8
OBJECT065
66
1
70
64
71
6
72
8
62
50
0
VERTEX
8
OBJECT065
10
2304.000000
20
-1472.000000
30
-2176.000000
70
192
0
VERTEX
8
OBJECT065
10
2496.000000
20
-1472.000000
30
-2176.000000
70
192
0
VERTEX
8
OBJECT065
10
2496.000000
20
-1280.000000
30
-2176.000000
70
192
0
VERTEX
8
OBJECT065
10
2304.000000
20
-1472.000000
30
-960.000000
70
192
0
VERTEX
8
OBJECT065
10
2496.000000
20
-1472.000000
30
-960.000000
70
192
0
VERTEX
8
OBJECT065
10
2496.000000
20
-1280.000000
30
-960.000000
70
192
0
VERTEX
8
OBJECT065
10
0
20
0
30
0
70
128
71
2
72
3
73
1
0
VERTEX
8
OBJECT065
10
0
20
0
30
0
70
128
71
1
72
4
73
-5
0
VERTEX
8
OBJECT065
10
0
20
0
30
0
70
128
71
-1
72
5
73
2
0
VERTEX
8
OBJECT065
10
0
20
0
30
0
70
128
71
2
72
5
73
-6
0
VERTEX
8
OBJECT065
10
0
20
0
30
0
70
128
71
-2
72
6
73
3
0
VERTEX
8
OBJECT065
10
0
20
0
30
0
70
128
71
3
72
6
73
-4
0
VERTEX
8
OBJECT065
10
0
20
0
30
0
70
128
71
-3
72
4
73
1
0
VERTEX
8
OBJECT065
10
0
20
0
30
0
70
128
71
4
72
6
73
5
0
SEQEND
8
OBJECT065
0
POLYLINE
8
OBJECT066
66
1
70
64
71
8
72
12
62
50
0
VERTEX
8
OBJECT066
10
1216.000000
20
256.000000
30
-736.000000
70
192
0
VERTEX
8
OBJECT066
10
2240.000000
20
256.000000
30
-736.000000
70
192
0
VERTEX
8
OBJECT066
10
2240.000000
20
-1216.000000
30
-736.000000
70
192
0
VERTEX
8
OBJECT066
10
1216.000000
20
-1216.000000
30
-736.000000
70
192
0
VERTEX
8
OBJECT066
10
1216.000000
20
-1216.000000
30
-800.000000
70
192
0
VERTEX
8
OBJECT066
10
2240.000000
20
-1216.000000
30
-800.000000
70
192
0
VERTEX
8
OBJECT066
10
2240.000000
20
256.000000
30
-800.000000
70
192
0
VERTEX
8
OBJECT066
10
1216.000000
20
256.000000
30
-800.000000
70
192
0
VERTEX
8
OBJECT066
10
0
20
0
30
0
70
128
71
2
72
3
73
-4
0
VERTEX
8
OBJECT066
10
0
20
0
30
0
70
128
71
-2
72
4
73
1
0
VERTEX
8
OBJECT066
10
0
20
0
30
0
70
128
71
6
72
7
73
-8
0
VERTEX
8
OBJECT066
10
0
20
0
30
0
70
128
71
-6
72
8
73
5
0
VERTEX
8
OBJECT066
10
0
20
0
30
0
70
128
71
3
72
6
73
-5
0
VERTEX
8
OBJECT066
10
0
20
0
30
0
70
128
71
-3
72
5
73
4
0
VERTEX
8
OBJECT066
10
0
20
0
30
0
70
128
71
1
72
8
73
-7
0
VERTEX
8
OBJECT066
10
0
20
0
30
0
70
128
71
-1
72
7
73
2
0
VERTEX
8
OBJECT066
10
0
20
0
30
0
70
128
71
2
72
7
73
-6
0
VERTEX
8
OBJECT066
10
0
20
0
30
0
70
128
71
-2
72
6
73
3
0
VERTEX
8
OBJECT066
10
0
20
0
30
0
70
128
71
4
72
5
73
-8
0
VERTEX
8
OBJECT066
10
0
20
0
30
0
70
128
71
-4
72
8
73
1
0
SEQEND
8
OBJECT066
0
POLYLINE
8
OBJECT067
66
1
70
64
71
8
72
12
62
50
0
VERTEX
8
OBJECT067
10
960.000000
20
-1472.000000
30
-896.000000
70
192
0
VERTEX
8
OBJECT067
10
1216.000000
20
-1216.000000
30
-736.000000
70
192
0
VERTEX
8
OBJECT067
10
2240.000000
20
-1216.000000
30
-736.000000
70
192
0
VERTEX
8
OBJECT067
10
2496.000000
20
-1472.000000
30
-896.000000
70
192
0
VERTEX
8
OBJECT067
10
1216.000000
20
-1216.000000
30
-800.000000
70
192
0
VERTEX
8
OBJECT067
10
960.000000
20
-1472.000000
30
-960.000000
70
192
0
VERTEX
8
OBJECT067
10
2496.000000
20
-1472.000000
30
-960.000000
70
192
0
VERTEX
8
OBJECT067
10
2240.000000
20
-1216.000000
30
-800.000000
70
192
0
VERTEX
8
OBJECT067
10
0
20
0
30
0
70
128
71
2
72
3
73
-4
0
VERTEX
8
OBJECT067
10
0
20
0
30
0
70
128
71
-2
72
4
73
1
0
VERTEX
8
OBJECT067
10
0
20
0
30
0
70
128
71
6
72
7
73
-8
0
VERTEX
8
OBJECT067
10
0
20
0
30
0
70
128
71
-6
72
8
73
5
0
VERTEX
8
OBJECT067
10
0
20
0
30
0
70
128
71
7
72
6
73
-1
0
VERTEX
8
OBJECT067
10
0
20
0
30
0
70
128
71
-7
72
1
73
4
0
VERTEX
8
OBJECT067
10
0
20
0
30
0
70
128
71
5
72
8
73
-3
0
VERTEX
8
OBJECT067
10
0
20
0
30
0
70
128
71
-5
72
3
73
2
0
VERTEX
8
OBJECT067
10
0
20
0
30
0
70
128
71
6
72
5
73
-2
0
VERTEX
8
OBJECT067
10
0
20
0
30
0
70
128
71
-6
72
2
73
1
0
VERTEX
8
OBJECT067
10
0
20
0
30
0
70
128
71
8
72
7
73
-4
0
VERTEX
8
OBJECT067
10
0
20
0
30
0
70
128
71
-8
72
4
73
3
0
SEQEND
8
OBJECT067
0
POLYLINE
8
OBJECT068
66
1
70
64
71
8
72
12
62
50
0
VERTEX
8
OBJECT068
10
960.000000
20
512.000000
30
-896.000000
70
192
0
VERTEX
8
OBJECT068
10
2496.000000
20
512.000000
30
-896.000000
70
192
0
VERTEX
8
OBJECT068
10
2240.000000
20
256.000000
30
-736.000000
70
192
0
VERTEX
8
OBJECT068
10
1216.000000
20
256.000000
30
-736.000000
70
192
0
VERTEX
8
OBJECT068
10
1216.000000
20
256.000000
30
-800.000000
70
192
0
VERTEX
8
OBJECT068
10
2240.000000
20
256.000000
30
-800.000000
70
192
0
VERTEX
8
OBJECT068
10
2496.000000
20
512.000000
30
-960.000000
70
192
0
VERTEX
8
OBJECT068
10
960.000000
20
512.000000
30
-960.000000
70
192
0
VERTEX
8
OBJECT068
10
0
20
0
30
0
70
128
71
2
72
3
73
-4
0
VERTEX
8
OBJECT068
10
0
20
0
30
0
70
128
71
-2
72
4
73
1
0
VERTEX
8
OBJECT068
10
0
20
0
30
0
70
128
71
6
72
7
73
-8
0
VERTEX
8
OBJECT068
10
0
20
0
30
0
70
128
71
-6
72
8
73
5
0
VERTEX
8
OBJECT068
10
0
20
0
30
0
70
128
71
7
72
2
73
-1
0
VERTEX
8
OBJECT068
10
0
20
0
30
0
70
128
71
-7
72
1
73
8
0
VERTEX
8
OBJECT068
10
0
20
0
30
0
70
128
71
5
72
4
73
-3
0
VERTEX
8
OBJECT068
10
0
20
0
30
0
70
128
71
-5
72
3
73
6
0
VERTEX
8
OBJECT068
10
0
20
0
30
0
70
128
71
8
72
1
73
-4
0
VERTEX
8
OBJECT068
10
0
20
0
30
0
70
128
71
-8
72
4
73
5
0
VERTEX
8
OBJECT068
10
0
20
0
30
0
70
128
71
6
72
3
73
-2
0
VERTEX
8
OBJECT068
10
0
20
0
30
0
70
128
71
-6
72
2
73
7
0
SEQEND
8
OBJECT068
0
POLYLINE
8
OBJECT069
66
1
70
64
71
8
72
12
62
50
0
VERTEX
8
OBJECT069
10
1024.000000
20
-800.000000
30
-960.000000
70
192
0
VERTEX
8
OBJECT069
10
960.000000
20
-800.000000
30
-960.000000
70
192
0
VERTEX
8
OBJECT069
10
960.000000
20
-704.000000
30
-960.000000
70
192
0
VERTEX
8
OBJECT069
10
1024.000000
20
-704.000000
30
-960.000000
70
192
0
VERTEX
8
OBJECT069
10
1024.000000
20
-704.000000
30
-2176.000000
70
192
0
VERTEX
8
OBJECT069
10
960.000000
20
-704.000000
30
-2176.000000
70
192
0
VERTEX
8
OBJECT069
10
960.000000
20
-800.000000
30
-2176.000000
70
192
0
VERTEX
8
OBJECT069
10
1024.000000
20
-800.000000
30
-2176.000000
70
192
0
VERTEX
8
OBJECT069
10
0
20
0
30
0
70
128
71
2
72
3
73
-4
0
VERTEX
8
OBJECT069
10
0
20
0
30
0
70
128
71
-2
72
4
73
1
0
VERTEX
8
OBJECT069
10
0
20
0
30
0
70
128
71
6
72
7
73
-8
0
VERTEX
8
OBJECT069
10
0
20
0
30
0
70
128
71
-6
72
8
73
5
0
VERTEX
8
OBJECT069
10
0
20
0
30
0
70
128
71
6
72
3
73
-2
0
VERTEX
8
OBJECT069
10
0
20
0
30
0
70
128
71
-6
72
2
73
7
0
VERTEX
8
OBJECT069
10
0
20
0
30
0
70
128
71
4
72
5
73
-8
0
VERTEX
8
OBJECT069
10
0
20
0
30
0
70
128
71
-4
72
8
73
1
0
VERTEX
8
OBJECT069
10
0
20
0
30
0
70
128
71
5
72
4
73
-3
0
VERTEX
8
OBJECT069
10
0
20
0
30
0
70
128
71
-5
72
3
73
6
0
VERTEX
8
OBJECT069
10
0
20
0
30
0
70
128
71
1
72
8
73
-7
0
VERTEX
8
OBJECT069
10
0
20
0
30
0
70
128
71
-1
72
7
73
2
0
SEQEND
8
OBJECT069
0
POLYLINE
8
OBJECT070
66
1
70
64
71
8
72
12
62
50
0
VERTEX
8
OBJECT070
10
1024.000000
20
32.000000
30
-960.000000
70
192
0
VERTEX
8
OBJECT070
10
1024.000000
20
-64.000000
30
-960.000000
70
192
0
VERTEX
8
OBJECT070
10
960.000000
20
-64.000000
30
-960.000000
70
192
0
VERTEX
8
OBJECT070
10
960.000000
20
32.000000
30
-960.000000
70
192
0
VERTEX
8
OBJECT070
10
1024.000000
20
-64.000000
30
-2176.000000
70
192
0
VERTEX
8
OBJECT070
10
1024.000000
20
32.000000
30
-2176.000000
70
192
0
VERTEX
8
OBJECT070
10
960.000000
20
32.000000
30
-2176.000000
70
192
0
VERTEX
8
OBJECT070
10
960.000000
20
-64.000000
30
-2176.000000
70
192
0
VERTEX
8
OBJECT070
10
0
20
0
30
0
70
128
71
2
72
3
73
-4
0
VERTEX
8
OBJECT070
10
0
20
0
30
0
70
128
71
-2
72
4
73
1
0
VERTEX
8
OBJECT070
10
0
20
0
30
0
70
128
71
6
72
7
73
-8
0
VERTEX
8
OBJECT070
10
0
20
0
30
0
70
128
71
-6
72
8
73
5
0
VERTEX
8
OBJECT070
10
0
20
0
30
0
70
128
71
8
72
7
73
-4
0
VERTEX
8
OBJECT070
10
0
20
0
30
0
70
128
71
-8
72
4
73
3
0
VERTEX
8
OBJECT070
10
0
20
0
30
0
70
128
71
2
72
1
73
-6
0
VERTEX
8
OBJECT070
10
0
20
0
30
0
70
128
71
-2
72
6
73
5
0
VERTEX
8
OBJECT070
10
0
20
0
30
0
70
128
71
7
72
6
73
-1
0
VERTEX
8
OBJECT070
10
0
20
0
30
0
70
128
71
-7
72
1
73
4
0
VERTEX
8
OBJECT070
10
0
20
0
30
0
70
128
71
3
72
2
73
-5
0
VERTEX
8
OBJECT070
10
0
20
0
30
0
70
128
71
-3
72
5
73
8
0
SEQEND
8
OBJECT070
0
POLYLINE
8
OBJECT071
66
1
70
64
71
8
72
12
62
50
0
VERTEX
8
OBJECT071
10
960.000000
20
320.000000
30
-960.000000
70
192
0
VERTEX
8
OBJECT071
10
1024.000000
20
320.000000
30
-960.000000
70
192
0
VERTEX
8
OBJECT071
10
1024.000000
20
224.000000
30
-960.000000
70
192
0
VERTEX
8
OBJECT071
10
960.000000
20
224.000000
30
-960.000000
70
192
0
VERTEX
8
OBJECT071
10
960.000000
20
224.000000
30
-2176.000000
70
192
0
VERTEX
8
OBJECT071
10
1024.000000
20
224.000000
30
-2176.000000
70
192
0
VERTEX
8
OBJECT071
10
1024.000000
20
320.000000
30
-2176.000000
70
192
0
VERTEX
8
OBJECT071
10
960.000000
20
320.000000
30
-2176.000000
70
192
0
VERTEX
8
OBJECT071
10
0
20
0
30
0
70
128
71
2
72
3
73
-4
0
VERTEX
8
OBJECT071
10
0
20
0
30
0
70
128
71
-2
72
4
73
1
0
VERTEX
8
OBJECT071
10
0
20
0
30
0
70
128
71
6
72
7
73
-8
0
VERTEX
8
OBJECT071
10
0
20
0
30
0
70
128
71
-6
72
8
73
5
0
VERTEX
8
OBJECT071
10
0
20
0
30
0
70
128
71
4
72
5
73
-8
0
VERTEX
8
OBJECT071
10
0
20
0
30
0
70
128
71
-4
72
8
73
1
0
VERTEX
8
OBJECT071
10
0
20
0
30
0
70
128
71
6
72
3
73
-2
0
VERTEX
8
OBJECT071
10
0
20
0
30
0
70
128
71
-6
72
2
73
7
0
VERTEX
8
OBJECT071
10
0
20
0
30
0
70
128
71
1
72
8
73
-7
0
VERTEX
8
OBJECT071
10
0
20
0
30
0
70
128
71
-1
72
7
73
2
0
VERTEX
8
OBJECT071
10
0
20
0
30
0
70
128
71
5
72
4
73
-3
0
VERTEX
8
OBJECT071
10
0
20
0
30
0
70
128
71
-5
72
3
73
6
0
SEQEND
8
OBJECT071
0
POLYLINE
8
OBJECT072
66
1
70
64
71
8
72
12
62
50
0
VERTEX
8
OBJECT072
10
2432.000000
20
224.000000
30
-960.000000
70
192
0
VERTEX
8
OBJECT072
10
2496.000000
20
224.000000
30
-960.000000
70
192
0
VERTEX
8
OBJECT072
10
2496.000000
20
128.000000
30
-960.000000
70
192
0
VERTEX
8
OBJECT072
10
2432.000000
20
128.000000
30
-960.000000
70
192
0
VERTEX
8
OBJECT072
10
2432.000000
20
128.000000
30
-2176.000000
70
192
0
VERTEX
8
OBJECT072
10
2496.000000
20
128.000000
30
-2176.000000
70
192
0
VERTEX
8
OBJECT072
10
2496.000000
20
224.000000
30
-2176.000000
70
192
0
VERTEX
8
OBJECT072
10
2432.000000
20
224.000000
30
-2176.000000
70
192
0
VERTEX
8
OBJECT072
10
0
20
0
30
0
70
128
71
2
72
3
73
-4
0
VERTEX
8
OBJECT072
10
0
20
0
30
0
70
128
71
-2
72
4
73
1
0
VERTEX
8
OBJECT072
10
0
20
0
30
0
70
128
71
6
72
7
73
-8
0
VERTEX
8
OBJECT072
10
0
20
0
30
0
70
128
71
-6
72
8
73
5
0
VERTEX
8
OBJECT072
10
0
20
0
30
0
70
128
71
4
72
5
73
-8
0
VERTEX
8
OBJECT072
10
0
20
0
30
0
70
128
71
-4
72
8
73
1
0
VERTEX
8
OBJECT072
10
0
20
0
30
0
70
128
71
6
72
3
73
-2
0
VERTEX
8
OBJECT072
10
0
20
0
30
0
70
128
71
-6
72
2
73
7
0
VERTEX
8
OBJECT072
10
0
20
0
30
0
70
128
71
1
72
8
73
-7
0
VERTEX
8
OBJECT072
10
0
20
0
30
0
70
128
71
-1
72
7
73
2
0
VERTEX
8
OBJECT072
10
0
20
0
30
0
70
128
71
5
72
4
73
-3
0
VERTEX
8
OBJECT072
10
0
20
0
30
0
70
128
71
-5
72
3
73
6
0
SEQEND
8
OBJECT072
0
POLYLINE
8
OBJECT073
66
1
70
64
71
8
72
12
62
50
0
VERTEX
8
OBJECT073
10
2176.000000
20
224.000000
30
-800.000000
70
192
0
VERTEX
8
OBJECT073
10
2240.000000
20
224.000000
30
-800.000000
70
192
0
VERTEX
8
OBJECT073
10
2240.000000
20
128.000000
30
-800.000000
70
192
0
VERTEX
8
OBJECT073
10
2176.000000
20
128.000000
30
-800.000000
70
192
0
VERTEX
8
OBJECT073
10
2432.000000
20
128.000000
30
-960.000000
70
192
0
VERTEX
8
OBJECT073
10
2432.000000
20
224.000000
30
-960.000000
70
192
0
VERTEX
8
OBJECT073
10
2496.000000
20
224.000000
30
-960.000000
70
192
0
VERTEX
8
OBJECT073
10
2496.000000
20
128.000000
30
-960.000000
70
192
0
VERTEX
8
OBJECT073
10
0
20
0
30
0
70
128
71
2
72
3
73
-4
0
VERTEX
8
OBJECT073
10
0
20
0
30
0
70
128
71
-2
72
4
73
1
0
VERTEX
8
OBJECT073
10
0
20
0
30
0
70
128
71
4
72
5
73
-6
0
VERTEX
8
OBJECT073
10
0
20
0
30
0
70
128
71
-4
72
6
73
1
0
VERTEX
8
OBJECT073
10
0
20
0
30
0
70
128
71
2
72
7
73
-8
0
VERTEX
8
OBJECT073
10
0
20
0
30
0
70
128
71
-2
72
8
73
3
0
VERTEX
8
OBJECT073
10
0
20
0
30
0
70
128
71
1
72
6
73
-7
0
VERTEX
8
OBJECT073
10
0
20
0
30
0
70
128
71
-1
72
7
73
2
0
VERTEX
8
OBJECT073
10
0
20
0
30
0
70
128
71
3
72
8
73
-5
0
VERTEX
8
OBJECT073
10
0
20
0
30
0
70
128
71
-3
72
5
73
4
0
VERTEX
8
OBJECT073
10
0
20
0
30
0
70
128
71
8
72
7
73
-6
0
VERTEX
8
OBJECT073
10
0
20
0
30
0
70
128
71
-8
72
6
73
5
0
SEQEND
8
OBJECT073
0
POLYLINE
8
OBJECT074
66
1
70
64
71
8
72
12
62
50
0
VERTEX
8
OBJECT074
10
1280.000000
20
224.000000
30
-800.000000
70
192
0
VERTEX
8
OBJECT074
10
1216.000000
20
224.000000
30
-800.000000
70
192
0
VERTEX
8
OBJECT074
10
1216.000000
20
320.000000
30
-800.000000
70
192
0
VERTEX
8
OBJECT074
10
1280.000000
20
320.000000
30
-800.000000
70
192
0
VERTEX
8
OBJECT074
10
1024.000000
20
320.000000
30
-960.000000
70
192
0
VERTEX
8
OBJECT074
10
1024.000000
20
224.000000
30
-960.000000
70
192
0
VERTEX
8
OBJECT074
10
960.000000
20
224.000000
30
-960.000000
70
192
0
VERTEX
8
OBJECT074
10
960.000000
20
320.000000
30
-960.000000
70
192
0
VERTEX
8
OBJECT074
10
0
20
0
30
0
70
128
71
2
72
3
73
-4
0
VERTEX
8
OBJECT074
10
0
20
0
30
0
70
128
71
-2
72
4
73
1
0
VERTEX
8
OBJECT074
10
0
20
0
30
0
70
128
71
4
72
5
73
-6
0
VERTEX
8
OBJECT074
10
0
20
0
30
0
70
128
71
-4
72
6
73
1
0
VERTEX
8
OBJECT074
10
0
20
0
30
0
70
128
71
2
72
7
73
-8
0
VERTEX
8
OBJECT074
10
0
20
0
30
0
70
128
71
-2
72
8
73
3
0
VERTEX
8
OBJECT074
10
0
20
0
30
0
70
128
71
1
72
6
73
-7
0
VERTEX
8
OBJECT074
10
0
20
0
30
0
70
128
71
-1
72
7
73
2
0
VERTEX
8
OBJECT074
10
0
20
0
30
0
70
128
71
3
72
8
73
-5
0
VERTEX
8
OBJECT074
10
0
20
0
30
0
70
128
71
-3
72
5
73
4
0
VERTEX
8
OBJECT074
10
0
20
0
30
0
70
128
71
8
72
7
73
-6
0
VERTEX
8
OBJECT074
10
0
20
0
30
0
70
128
71
-8
72
6
73
5
0
SEQEND
8
OBJECT074
0
POLYLINE
8
OBJECT075
66
1
70
64
71
8
72
12
62
50
0
VERTEX
8
OBJECT075
10
1216.000000
20
-128.000000
30
-800.000000
70
192
0
VERTEX
8
OBJECT075
10
1280.000000
20
-128.000000
30
-800.000000
70
192
0
VERTEX
8
OBJECT075
10
1280.000000
20
-224.000000
30
-800.000000
70
192
0
VERTEX
8
OBJECT075
10
1216.000000
20
-224.000000
30
-800.000000
70
192
0
VERTEX
8
OBJECT075
10
1024.000000
20
32.000000
30
-960.000000
70
192
0
VERTEX
8
OBJECT075
10
1024.000000
20
-64.000000
30
-960.000000
70
192
0
VERTEX
8
OBJECT075
10
960.000000
20
-64.000000
30
-960.000000
70
192
0
VERTEX
8
OBJECT075
10
960.000000
20
32.000000
30
-960.000000
70
192
0
VERTEX
8
OBJECT075
10
0
20
0
30
0
70
128
71
2
72
3
73
-4
0
VERTEX
8
OBJECT075
10
0
20
0
30
0
70
128
71
-2
72
4
73
1
0
VERTEX
8
OBJECT075
10
0
20
0
30
0
70
128
71
6
72
3
73
-2
0
VERTEX
8
OBJECT075
10
0
20
0
30
0
70
128
71
-6
72
2
73
5
0
VERTEX
8
OBJECT075
10
0
20
0
30
0
70
128
71
8
72
1
73
-4
0
VERTEX
8
OBJECT075
10
0
20
0
30
0
70
128
71
-8
72
4
73
7
0
VERTEX
8
OBJECT075
10
0
20
0
30
0
70
128
71
7
72
4
73
-3
0
VERTEX
8
OBJECT075
10
0
20
0
30
0
70
128
71
-7
72
3
73
6
0
VERTEX
8
OBJECT075
10
0
20
0
30
0
70
128
71
5
72
2
73
-1
0
VERTEX
8
OBJECT075
10
0
20
0
30
0
70
128
71
-5
72
1
73
8
0
VERTEX
8
OBJECT075
10
0
20
0
30
0
70
128
71
6
72
5
73
-8
0
VERTEX
8
OBJECT075
10
0
20
0
30
0
70
128
71
-6
72
8
73
7
0
SEQEND
8
OBJECT075
0
POLYLINE
8
OBJECT076
66
1
70
64
71
8
72
12
62
50
0
VERTEX
8
OBJECT076
10
1216.000000
20
-640.000000
30
-800.000000
70
192
0
VERTEX
8
OBJECT076
10
1216.000000
20
-544.000000
30
-800.000000
70
192
0
VERTEX
8
OBJECT076
10
1280.000000
20
-544.000000
30
-800.000000
70
192
0
VERTEX
8
OBJECT076
10
1280.000000
20
-640.000000
30
-800.000000
70
192
0
VERTEX
8
OBJECT076
10
1024.000000
20
-704.000000
30
-960.000000
70
192
0
VERTEX
8
OBJECT076
10
1024.000000
20
-800.000000
30
-960.000000
70
192
0
VERTEX
8
OBJECT076
10
960.000000
20
-800.000000
30
-960.000000
70
192
0
VERTEX
8
OBJECT076
10
960.000000
20
-704.000000
30
-960.000000
70
192
0
VERTEX
8
OBJECT076
10
0
20
0
30
0
70
128
71
2
72
3
73
-4
0
VERTEX
8
OBJECT076
10
0
20
0
30
0
70
128
71
-2
72
4
73
1
0
VERTEX
8
OBJECT076
10
0
20
0
30
0
70
128
71
5
72
6
73
-4
0
VERTEX
8
OBJECT076
10
0
20
0
30
0
70
128
71
-5
72
4
73
3
0
VERTEX
8
OBJECT076
10
0
20
0
30
0
70
128
71
7
72
8
73
-2
0
VERTEX
8
OBJECT076
10
0
20
0
30
0
70
128
71
-7
72
2
73
1
0
VERTEX
8
OBJECT076
10
0
20
0
30
0
70
128
71
6
72
7
73
-1
0
VERTEX
8
OBJECT076
10
0
20
0
30
0
70
128
71
-6
72
1
73
4
0
VERTEX
8
OBJECT076
10
0
20
0
30
0
70
128
71
8
72
5
73
-3
0
VERTEX
8
OBJECT076
10
0
20
0
30
0
70
128
71
-8
72
3
73
2
0
VERTEX
8
OBJECT076
10
0
20
0
30
0
70
128
71
7
72
6
73
-5
0
VERTEX
8
OBJECT076
10
0
20
0
30
0
70
128
71
-7
72
5
73
8
0
SEQEND
8
OBJECT076
0
POLYLINE
8
OBJECT077
66
1
70
64
71
8
72
12
62
50
0
VERTEX
8
OBJECT077
10
2496.000000
20
-832.000000
30
-2176.000000
70
192
0
VERTEX
8
OBJECT077
10
2496.000000
20
-1280.000000
30
-2176.000000
70
192
0
VERTEX
8
OBJECT077
10
2560.000000
20
-1280.000000
30
-2176.000000
70
192
0
VERTEX
8
OBJECT077
10
2560.000000
20
-832.000000
30
-2176.000000
70
192
0
VERTEX
8
OBJECT077
10
2496.000000
20
-1280.000000
30
-1120.000000
70
192
0
VERTEX
8
OBJECT077
10
2496.000000
20
-832.000000
30
-1120.000000
70
192
0
VERTEX
8
OBJECT077
10
2560.000000
20
-1280.000000
30
-1120.000000
70
192
0
VERTEX
8
OBJECT077
10
2560.000000
20
-832.000000
30
-1120.000000
70
192
0
VERTEX
8
OBJECT077
10
0
20
0
30
0
70
128
71
2
72
3
73
-4
0
VERTEX
8
OBJECT077
10
0
20
0
30
0
70
128
71
-2
72
4
73
1
0
VERTEX
8
OBJECT077
10
0
20
0
30
0
70
128
71
2
72
1
73
-6
0
VERTEX
8
OBJECT077
10
0
20
0
30
0
70
128
71
-2
72
6
73
5
0
VERTEX
8
OBJECT077
10
0
20
0
30
0
70
128
71
3
72
7
73
-8
0
VERTEX
8
OBJECT077
10
0
20
0
30
0
70
128
71
-3
72
8
73
4
0
VERTEX
8
OBJECT077
10
0
20
0
30
0
70
128
71
3
72
2
73
-5
0
VERTEX
8
OBJECT077
10
0
20
0
30
0
70
128
71
-3
72
5
73
7
0
VERTEX
8
OBJECT077
10
0
20
0
30
0
70
128
71
6
72
8
73
-7
0
VERTEX
8
OBJECT077
10
0
20
0
30
0
70
128
71
-6
72
7
73
5
0
VERTEX
8
OBJECT077
10
0
20
0
30
0
70
128
71
1
72
4
73
-8
0
VERTEX
8
OBJECT077
10
0
20
0
30
0
70
128
71
-1
72
8
73
6
0
SEQEND
8
OBJECT077
0
POLYLINE
8
OBJECT078
66
1
70
64
71
8
72
12
62
50
0
VERTEX
8
OBJECT078
10
2496.000000
20
512.000000
30
-2176.000000
70
192
0
VERTEX
8
OBJECT078
10
2496.000000
20
320.000000
30
-2176.000000
70
192
0
VERTEX
8
OBJECT078
10
2560.000000
20
320.000000
30
-2176.000000
70
192
0
VERTEX
8
OBJECT078
10
2560.000000
20
512.000000
30
-2176.000000
70
192
0
VERTEX
8
OBJECT078
10
2496.000000
20
512.000000
30
-1120.000000
70
192
0
VERTEX
8
OBJECT078
10
2496.000000
20
320.000000
30
-1120.000000
70
192
0
VERTEX
8
OBJECT078
10
2560.000000
20
512.000000
30
-1120.000000
70
192
0
VERTEX
8
OBJECT078
10
2560.000000
20
320.000000
30
-1120.000000
70
192
0
VERTEX
8
OBJECT078
10
0
20
0
30
0
70
128
71
2
72
3
73
-4
0
VERTEX
8
OBJECT078
10
0
20
0
30
0
70
128
71
-2
72
4
73
1
0
VERTEX
8
OBJECT078
10
0
20
0
30
0
70
128
71
1
72
5
73
-6
0
VERTEX
8
OBJECT078
10
0
20
0
30
0
70
128
71
-1
72
6
73
2
0
VERTEX
8
OBJECT078
10
0
20
0
30
0
70
128
71
4
72
3
73
-8
0
VERTEX
8
OBJECT078
10
0
20
0
30
0
70
128
71
-4
72
8
73
7
0
VERTEX
8
OBJECT078
10
0
20
0
30
0
70
128
71
1
72
4
73
-7
0
VERTEX
8
OBJECT078
10
0
20
0
30
0
70
128
71
-1
72
7
73
5
0
VERTEX
8
OBJECT078
10
0
20
0
30
0
70
128
71
5
72
7
73
-8
0
VERTEX
8
OBJECT078
10
0
20
0
30
0
70
128
71
-5
72
8
73
6
0
VERTEX
8
OBJECT078
10
0
20
0
30
0
70
128
71
3
72
2
73
-6
0
VERTEX
8
OBJECT078
10
0
20
0
30
0
70
128
71
-3
72
6
73
8
0
SEQEND
8
OBJECT078
0
POLYLINE
8
OBJECT079
66
1
70
64
71
8
72
12
62
50
0
VERTEX
8
OBJECT079
10
2496.000000
20
-1280.000000
30
-1056.000000
70
192
0
VERTEX
8
OBJECT079
10
2496.000000
20
-1280.000000
30
-1120.000000
70
192
0
VERTEX
8
OBJECT079
10
2496.000000
20
-832.000000
30
-1120.000000
70
192
0
VERTEX
8
OBJECT079
10
2496.000000
20
-832.000000
30
-1056.000000
70
192
0
VERTEX
8
OBJECT079
10
2560.000000
20
-832.000000
30
-1120.000000
70
192
0
VERTEX
8
OBJECT079
10
2560.000000
20
-1280.000000
30
-1120.000000
70
192
0
VERTEX
8
OBJECT079
10
2560.000000
20
-1280.000000
30
-1056.000000
70
192
0
VERTEX
8
OBJECT079
10
2560.000000
20
-832.000000
30
-1056.000000
70
192
0
VERTEX
8
OBJECT079
10
0
20
0
30
0
70
128
71
2
72
3
73
-4
0
VERTEX
8
OBJECT079
10
0
20
0
30
0
70
128
71
-2
72
4
73
1
0
VERTEX
8
OBJECT079
10
0
20
0
30
0
70
128
71
6
72
7
73
-8
0
VERTEX
8
OBJECT079
10
0
20
0
30
0
70
128
71
-6
72
8
73
5
0
VERTEX
8
OBJECT079
10
0
20
0
30
0
70
128
71
6
72
2
73
-1
0
VERTEX
8
OBJECT079
10
0
20
0
30
0
70
128
71
-6
72
1
73
7
0
VERTEX
8
OBJECT079
10
0
20
0
30
0
70
128
71
4
72
8
73
-7
0
VERTEX
8
OBJECT079
10
0
20
0
30
0
70
128
71
-4
72
7
73
1
0
VERTEX
8
OBJECT079
10
0
20
0
30
0
70
128
71
2
72
6
73
-5
0
VERTEX
8
OBJECT079
10
0
20
0
30
0
70
128
71
-2
72
5
73
3
0
VERTEX
8
OBJECT079
10
0
20
0
30
0
70
128
71
3
72
5
73
-8
0
VERTEX
8
OBJECT079
10
0
20
0
30
0
70
128
71
-3
72
8
73
4
0
SEQEND
8
OBJECT079
0
POLYLINE
8
OBJECT080
66
1
70
64
71
8
72
12
62
50
0
VERTEX
8
OBJECT080
10
2496.000000
20
320.000000
30
-1120.000000
70
192
0
VERTEX
8
OBJECT080
10
2496.000000
20
512.000000
30
-1120.000000
70
192
0
VERTEX
8
OBJECT080
10
2496.000000
20
512.000000
30
-1056.000000
70
192
0
VERTEX
8
OBJECT080
10
2496.000000
20
320.000000
30
-1056.000000
70
192
0
VERTEX
8
OBJECT080
10
2560.000000
20
512.000000
30
-1056.000000
70
192
0
VERTEX
8
OBJECT080
10
2560.000000
20
512.000000
30
-1120.000000
70
192
0
VERTEX
8
OBJECT080
10
2560.000000
20
320.000000
30
-1120.000000
70
192
0
VERTEX
8
OBJECT080
10
2560.000000
20
320.000000
30
-1056.000000
70
192
0
VERTEX
8
OBJECT080
10
0
20
0
30
0
70
128
71
2
72
3
73
-4
0
VERTEX
8
OBJECT080
10
0
20
0
30
0
70
128
71
-2
72
4
73
1
0
VERTEX
8
OBJECT080
10
0
20
0
30
0
70
128
71
6
72
7
73
-8
0
VERTEX
8
OBJECT080
10
0
20
0
30
0
70
128
71
-6
72
8
73
5
0
VERTEX
8
OBJECT080
10
0
20
0
30
0
70
128
71
2
72
6
73
-5
0
VERTEX
8
OBJECT080
10
0
20
0
30
0
70
128
71
-2
72
5
73
3
0
VERTEX
8
OBJECT080
10
0
20
0
30
0
70
128
71
3
72
5
73
-8
0
VERTEX
8
OBJECT080
10
0
20
0
30
0
70
128
71
-3
72
8
73
4
0
VERTEX
8
OBJECT080
10
0
20
0
30
0
70
128
71
1
72
7
73
-6
0
VERTEX
8
OBJECT080
10
0
20
0
30
0
70
128
71
-1
72
6
73
2
0
VERTEX
8
OBJECT080
10
0
20
0
30
0
70
128
71
7
72
1
73
-4
0
VERTEX
8
OBJECT080
10
0
20
0
30
0
70
128
71
-7
72
4
73
8
0
SEQEND
8
OBJECT080
0
POLYLINE
8
OBJECT081
66
1
70
64
71
8
72
12
62
50
0
VERTEX
8
OBJECT081
10
2496.000000
20
-1280.000000
30
-960.000000
70
192
0
VERTEX
8
OBJECT081
10
2496.000000
20
-832.000000
30
-960.000000
70
192
0
VERTEX
8
OBJECT081
10
2560.000000
20
-832.000000
30
-960.000000
70
192
0
VERTEX
8
OBJECT081
10
2560.000000
20
-1280.000000
30
-960.000000
70
192
0
VERTEX
8
OBJECT081
10
2496.000000
20
-1280.000000
30
-1056.000000
70
192
0
VERTEX
8
OBJECT081
10
2496.000000
20
-832.000000
30
-1056.000000
70
192
0
VERTEX
8
OBJECT081
10
2560.000000
20
-832.000000
30
-1056.000000
70
192
0
VERTEX
8
OBJECT081
10
2560.000000
20
-1280.000000
30
-1056.000000
70
192
0
VERTEX
8
OBJECT081
10
0
20
0
30
0
70
128
71
2
72
3
73
-4
0
VERTEX
8
OBJECT081
10
0
20
0
30
0
70
128
71
-2
72
4
73
1
0
VERTEX
8
OBJECT081
10
0
20
0
30
0
70
128
71
1
72
5
73
-6
0
VERTEX
8
OBJECT081
10
0
20
0
30
0
70
128
71
-1
72
6
73
2
0
VERTEX
8
OBJECT081
10
0
20
0
30
0
70
128
71
8
72
4
73
-3
0
VERTEX
8
OBJECT081
10
0
20
0
30
0
70
128
71
-8
72
3
73
7
0
VERTEX
8
OBJECT081
10
0
20
0
30
0
70
128
71
1
72
4
73
-8
0
VERTEX
8
OBJECT081
10
0
20
0
30
0
70
128
71
-1
72
8
73
5
0
VERTEX
8
OBJECT081
10
0
20
0
30
0
70
128
71
5
72
8
73
-7
0
VERTEX
8
OBJECT081
10
0
20
0
30
0
70
128
71
-5
72
7
73
6
0
VERTEX
8
OBJECT081
10
0
20
0
30
0
70
128
71
3
72
2
73
-6
0
VERTEX
8
OBJECT081
10
0
20
0
30
0
70
128
71
-3
72
6
73
7
0
SEQEND
8
OBJECT081
0
POLYLINE
8
OBJECT082
66
1
70
64
71
8
72
12
62
50
0
VERTEX
8
OBJECT082
10
2496.000000
20
320.000000
30
-960.000000
70
192
0
VERTEX
8
OBJECT082
10
2496.000000
20
512.000000
30
-960.000000
70
192
0
VERTEX
8
OBJECT082
10
2560.000000
20
512.000000
30
-960.000000
70
192
0
VERTEX
8
OBJECT082
10
2560.000000
20
320.000000
30
-960.000000
70
192
0
VERTEX
8
OBJECT082
10
2496.000000
20
320.000000
30
-1056.000000
70
192
0
VERTEX
8
OBJECT082
10
2496.000000
20
512.000000
30
-1056.000000
70
192
0
VERTEX
8
OBJECT082
10
2560.000000
20
512.000000
30
-1056.000000
70
192
0
VERTEX
8
OBJECT082
10
2560.000000
20
320.000000
30
-1056.000000
70
192
0
VERTEX
8
OBJECT082
10
0
20
0
30
0
70
128
71
2
72
3
73
-4
0
VERTEX
8
OBJECT082
10
0
20
0
30
0
70
128
71
-2
72
4
73
1
0
VERTEX
8
OBJECT082
10
0
20
0
30
0
70
128
71
6
72
2
73
-1
0
VERTEX
8
OBJECT082
10
0
20
0
30
0
70
128
71
-6
72
1
73
5
0
VERTEX
8
OBJECT082
10
0
20
0
30
0
70
128
71
3
72
7
73
-8
0
VERTEX
8
OBJECT082
10
0
20
0
30
0
70
128
71
-3
72
8
73
4
0
VERTEX
8
OBJECT082
10
0
20
0
30
0
70
128
71
3
72
2
73
-6
0
VERTEX
8
OBJECT082
10
0
20
0
30
0
70
128
71
-3
72
6
73
7
0
VERTEX
8
OBJECT082
10
0
20
0
30
0
70
128
71
5
72
8
73
-7
0
VERTEX
8
OBJECT082
10
0
20
0
30
0
70
128
71
-5
72
7
73
6
0
VERTEX
8
OBJECT082
10
0
20
0
30
0
70
128
71
1
72
4
73
-8
0
VERTEX
8
OBJECT082
10
0
20
0
30
0
70
128
71
-1
72
8
73
5
0
SEQEND
8
OBJECT082
0
POLYLINE
8
OBJECT083
66
1
70
64
71
6
72
8
62
50
0
VERTEX
8
OBJECT083
10
2496.000000
20
320.000000
30
-2176.000000
70
192
0
VERTEX
8
OBJECT083
10
2496.000000
20
512.000000
30
-2176.000000
70
192
0
VERTEX
8
OBJECT083
10
2304.000000
20
512.000000
30
-2176.000000
70
192
0
VERTEX
8
OBJECT083
10
2496.000000
20
320.000000
30
-960.000000
70
192
0
VERTEX
8
OBJECT083
10
2496.000000
20
512.000000
30
-960.000000
70
192
0
VERTEX
8
OBJECT083
10
2304.000000
20
512.000000
30
-960.000000
70
192
0
VERTEX
8
OBJECT083
10
0
20
0
30
0
70
128
71
2
72
3
73
1
0
VERTEX
8
OBJECT083
10
0
20
0
30
0
70
128
71
1
72
4
73
-5
0
VERTEX
8
OBJECT083
10
0
20
0
30
0
70
128
71
-1
72
5
73
2
0
VERTEX
8
OBJECT083
10
0
20
0
30
0
70
128
71
2
72
5
73
-6
0
VERTEX
8
OBJECT083
10
0
20
0
30
0
70
128
71
-2
72
6
73
3
0
VERTEX
8
OBJECT083
10
0
20
0
30
0
70
128
71
3
72
6
73
-4
0
VERTEX
8
OBJECT083
10
0
20
0
30
0
70
128
71
-3
72
4
73
1
0
VERTEX
8
OBJECT083
10
0
20
0
30
0
70
128
71
5
72
4
73
6
0
SEQEND
8
OBJECT083
0
POLYLINE
8
OBJECT084
66
1
70
64
71
8
72
12
62
50
0
VERTEX
8
OBJECT084
10
1857.000000
20
512.000000
30
-1320.000000
70
192
0
VERTEX
8
OBJECT084
10
1857.000000
20
-1472.000000
30
-1320.000000
70
192
0
VERTEX
8
OBJECT084
10
1856.000000
20
-1472.000000
30
-1320.000000
70
192
0
VERTEX
8
OBJECT084
10
1856.000000
20
512.000000
30
-1320.000000
70
192
0
VERTEX
8
OBJECT084
10
1857.000000
20
-1472.000000
30
-1352.000000
70
192
0
VERTEX
8
OBJECT084
10
1857.000000
20
512.000000
30
-1352.000000
70
192
0
VERTEX
8
OBJECT084
10
1856.000000
20
512.000000
30
-1352.000000
70
192
0
VERTEX
8
OBJECT084
10
1856.000000
20
-1472.000000
30
-1352.000000
70
192
0
VERTEX
8
OBJECT084
10
0
20
0
30
0
70
128
71
2
72
3
73
-4
0
VERTEX
8
OBJECT084
10
0
20
0
30
0
70
128
71
-2
72
4
73
1
0
VERTEX
8
OBJECT084
10
0
20
0
30
0
70
128
71
6
72
7
73
-8
0
VERTEX
8
OBJECT084
10
0
20
0
30
0
70
128
71
-6
72
8
73
5
0
VERTEX
8
OBJECT084
10
0
20
0
30
0
70
128
71
8
72
7
73
-4
0
VERTEX
8
OBJECT084
10
0
20
0
30
0
70
128
71
-8
72
4
73
3
0
VERTEX
8
OBJECT084
10
0
20
0
30
0
70
128
71
2
72
1
73
-6
0
VERTEX
8
OBJECT084
10
0
20
0
30
0
70
128
71
-2
72
6
73
5
0
VERTEX
8
OBJECT084
10
0
20
0
30
0
70
128
71
7
72
6
73
-1
0
VERTEX
8
OBJECT084
10
0
20
0
30
0
70
128
71
-7
72
1
73
4
0
VERTEX
8
OBJECT084
10
0
20
0
30
0
70
128
71
3
72
2
73
-5
0
VERTEX
8
OBJECT084
10
0
20
0
30
0
70
128
71
-3
72
5
73
8
0
SEQEND
8
OBJECT084
0
POLYLINE
8
OBJECT085
66
1
70
64
71
8
72
12
62
50
0
VERTEX
8
OBJECT085
10
1600.000000
20
512.000000
30
-1320.000000
70
192
0
VERTEX
8
OBJECT085
10
1600.000000
20
-1472.000000
30
-1320.000000
70
192
0
VERTEX
8
OBJECT085
10
1599.000000
20
-1472.000000
30
-1320.000000
70
192
0
VERTEX
8
OBJECT085
10
1599.000000
20
512.000000
30
-1320.000000
70
192
0
VERTEX
8
OBJECT085
10
1600.000000
20
-1472.000000
30
-1352.000000
70
192
0
VERTEX
8
OBJECT085
10
1600.000000
20
512.000000
30
-1352.000000
70
192
0
VERTEX
8
OBJECT085
10
1599.000000
20
512.000000
30
-1352.000000
70
192
0
VERTEX
8
OBJECT085
10
1599.000000
20
-1472.000000
30
-1352.000000
70
192
0
VERTEX
8
OBJECT085
10
0
20
0
30
0
70
128
71
2
72
3
73
-4
0
VERTEX
8
OBJECT085
10
0
20
0
30
0
70
128
71
-2
72
4
73
1
0
VERTEX
8
OBJECT085
10
0
20
0
30
0
70
128
71
6
72
7
73
-8
0
VERTEX
8
OBJECT085
10
0
20
0
30
0
70
128
71
-6
72
8
73
5
0
VERTEX
8
OBJECT085
10
0
20
0
30
0
70
128
71
8
72
7
73
-4
0
VERTEX
8
OBJECT085
10
0
20
0
30
0
70
128
71
-8
72
4
73
3
0
VERTEX
8
OBJECT085
10
0
20
0
30
0
70
128
71
2
72
1
73
-6
0
VERTEX
8
OBJECT085
10
0
20
0
30
0
70
128
71
-2
72
6
73
5
0
VERTEX
8
OBJECT085
10
0
20
0
30
0
70
128
71
7
72
6
73
-1
0
VERTEX
8
OBJECT085
10
0
20
0
30
0
70
128
71
-7
72
1
73
4
0
VERTEX
8
OBJECT085
10
0
20
0
30
0
70
128
71
3
72
2
73
-5
0
VERTEX
8
OBJECT085
10
0
20
0
30
0
70
128
71
-3
72
5
73
8
0
SEQEND
8
OBJECT085
0
POLYLINE
8
OBJECT086
66
1
70
64
71
6
72
8
62
50
0
VERTEX
8
OBJECT086
10
2496.000000
20
-1472.000000
30
-896.000000
70
192
0
VERTEX
8
OBJECT086
10
2240.000000
20
-1216.000000
30
-736.000000
70
192
0
VERTEX
8
OBJECT086
10
2496.000000
20
-1216.000000
30
-896.000000
70
192
0
VERTEX
8
OBJECT086
10
2496.000000
20
-1472.000000
30
-960.000000
70
192
0
VERTEX
8
OBJECT086
10
2496.000000
20
-1216.000000
30
-960.000000
70
192
0
VERTEX
8
OBJECT086
10
2240.000000
20
-1216.000000
30
-800.000000
70
192
0
VERTEX
8
OBJECT086
10
0
20
0
30
0
70
128
71
2
72
3
73
1
0
VERTEX
8
OBJECT086
10
0
20
0
30
0
70
128
71
5
72
6
73
4
0
VERTEX
8
OBJECT086
10
0
20
0
30
0
70
128
71
1
72
3
73
-5
0
VERTEX
8
OBJECT086
10
0
20
0
30
0
70
128
71
-1
72
5
73
4
0
VERTEX
8
OBJECT086
10
0
20
0
30
0
70
128
71
2
72
1
73
-4
0
VERTEX
8
OBJECT086
10
0
20
0
30
0
70
128
71
-2
72
4
73
6
0
VERTEX
8
OBJECT086
10
0
20
0
30
0
70
128
71
3
72
2
73
-6
0
VERTEX
8
OBJECT086
10
0
20
0
30
0
70
128
71
-3
72
6
73
5
0
SEQEND
8
OBJECT086
0
POLYLINE
8
OBJECT087
66
1
70
64
71
8
72
12
62
50
0
VERTEX
8
OBJECT087
10
2240.000000
20
-64.000000
30
-736.000000
70
192
0
VERTEX
8
OBJECT087
10
2240.000000
20
256.000000
30
-736.000000
70
192
0
VERTEX
8
OBJECT087
10
2496.000000
20
512.000000
30
-896.000000
70
192
0
VERTEX
8
OBJECT087
10
2496.000000
20
-64.000000
30
-896.000000
70
192
0
VERTEX
8
OBJECT087
10
2496.000000
20
-64.000000
30
-960.000000
70
192
0
VERTEX
8
OBJECT087
10
2496.000000
20
512.000000
30
-960.000000
70
192
0
VERTEX
8
OBJECT087
10
2240.000000
20
256.000000
30
-800.000000
70
192
0
VERTEX
8
OBJECT087
10
2240.000000
20
-64.000000
30
-800.000000
70
192
0
VERTEX
8
OBJECT087
10
0
20
0
30
0
70
128
71
2
72
3
73
-4
0
VERTEX
8
OBJECT087
10
0
20
0
30
0
70
128
71
-2
72
4
73
1
0
VERTEX
8
OBJECT087
10
0
20
0
30
0
70
128
71
6
72
7
73
-8
0
VERTEX
8
OBJECT087
10
0
20
0
30
0
70
128
71
-6
72
8
73
5
0
VERTEX
8
OBJECT087
10
0
20
0
30
0
70
128
71
5
72
4
73
-3
0
VERTEX
8
OBJECT087
10
0
20
0
30
0
70
128
71
-5
72
3
73
6
0
VERTEX
8
OBJECT087
10
0
20
0
30
0
70
128
71
6
72
3
73
-2
0
VERTEX
8
OBJECT087
10
0
20
0
30
0
70
128
71
-6
72
2
73
7
0
VERTEX
8
OBJECT087
10
0
20
0
30
0
70
128
71
7
72
2
73
-1
0
VERTEX
8
OBJECT087
10
0
20
0
30
0
70
128
71
-7
72
1
73
8
0
VERTEX
8
OBJECT087
10
0
20
0
30
0
70
128
71
8
72
1
73
-4
0
VERTEX
8
OBJECT087
10
0
20
0
30
0
70
128
71
-8
72
4
73
5
0
SEQEND
8
OBJECT087
0
POLYLINE
8
OBJECT088
66
1
70
64
71
8
72
12
62
50
0
VERTEX
8
OBJECT088
10
2496.000000
20
-64.000000
30
-960.000000
70
192
0
VERTEX
8
OBJECT088
10
2496.000000
20
320.000000
30
-960.000000
70
192
0
VERTEX
8
OBJECT088
10
2560.000000
20
320.000000
30
-960.000000
70
192
0
VERTEX
8
OBJECT088
10
2560.000000
20
-64.000000
30
-960.000000
70
192
0
VERTEX
8
OBJECT088
10
2496.000000
20
-64.000000
30
-1056.000000
70
192
0
VERTEX
8
OBJECT088
10
2496.000000
20
320.000000
30
-1056.000000
70
192
0
VERTEX
8
OBJECT088
10
2560.000000
20
320.000000
30
-1056.000000
70
192
0
VERTEX
8
OBJECT088
10
2560.000000
20
-64.000000
30
-1056.000000
70
192
0
VERTEX
8
OBJECT088
10
0
20
0
30
0
70
128
71
2
72
3
73
-4
0
VERTEX
8
OBJECT088
10
0
20
0
30
0
70
128
71
-2
72
4
73
1
0
VERTEX
8
OBJECT088
10
0
20
0
30
0
70
128
71
6
72
2
73
-1
0
VERTEX
8
OBJECT088
10
0
20
0
30
0
70
128
71
-6
72
1
73
5
0
VERTEX
8
OBJECT088
10
0
20
0
30
0
70
128
71
8
72
4
73
-3
0
VERTEX
8
OBJECT088
10
0
20
0
30
0
70
128
71
-8
72
3
73
7
0
VERTEX
8
OBJECT088
10
0
20
0
30
0
70
128
71
5
72
8
73
-7
0
VERTEX
8
OBJECT088
10
0
20
0
30
0
70
128
71
-5
72
7
73
6
0
VERTEX
8
OBJECT088
10
0
20
0
30
0
70
128
71
3
72
2
73
-6
0
VERTEX
8
OBJECT088
10
0
20
0
30
0
70
128
71
-3
72
6
73
7
0
VERTEX
8
OBJECT088
10
0
20
0
30
0
70
128
71
1
72
4
73
-8
0
VERTEX
8
OBJECT088
10
0
20
0
30
0
70
128
71
-1
72
8
73
5
0
SEQEND
8
OBJECT088
0
POLYLINE
8
OBJECT089
66
1
70
64
71
8
72
12
62
50
0
VERTEX
8
OBJECT089
10
2496.000000
20
-64.000000
30
-1120.000000
70
192
0
VERTEX
8
OBJECT089
10
2496.000000
20
320.000000
30
-1120.000000
70
192
0
VERTEX
8
OBJECT089
10
2496.000000
20
320.000000
30
-1056.000000
70
192
0
VERTEX
8
OBJECT089
10
2496.000000
20
-64.000000
30
-1056.000000
70
192
0
VERTEX
8
OBJECT089
10
2560.000000
20
320.000000
30
-1120.000000
70
192
0
VERTEX
8
OBJECT089
10
2560.000000
20
-64.000000
30
-1120.000000
70
192
0
VERTEX
8
OBJECT089
10
2560.000000
20
-64.000000
30
-1056.000000
70
192
0
VERTEX
8
OBJECT089
10
2560.000000
20
320.000000
30
-1056.000000
70
192
0
VERTEX
8
OBJECT089
10
0
20
0
30
0
70
128
71
2
72
3
73
-4
0
VERTEX
8
OBJECT089
10
0
20
0
30
0
70
128
71
-2
72
4
73
1
0
VERTEX
8
OBJECT089
10
0
20
0
30
0
70
128
71
6
72
7
73
-8
0
VERTEX
8
OBJECT089
10
0
20
0
30
0
70
128
71
-6
72
8
73
5
0
VERTEX
8
OBJECT089
10
0
20
0
30
0
70
128
71
3
72
8
73
-7
0
VERTEX
8
OBJECT089
10
0
20
0
30
0
70
128
71
-3
72
7
73
4
0
VERTEX
8
OBJECT089
10
0
20
0
30
0
70
128
71
1
72
6
73
-5
0
VERTEX
8
OBJECT089
10
0
20
0
30
0
70
128
71
-1
72
5
73
2
0
VERTEX
8
OBJECT089
10
0
20
0
30
0
70
128
71
2
72
5
73
-8
0
VERTEX
8
OBJECT089
10
0
20
0
30
0
70
128
71
-2
72
8
73
3
0
VERTEX
8
OBJECT089
10
0
20
0
30
0
70
128
71
6
72
1
73
-4
0
VERTEX
8
OBJECT089
10
0
20
0
30
0
70
128
71
-6
72
4
73
7
0
SEQEND
8
OBJECT089
0
POLYLINE
8
OBJECT090
66
1
70
64
71
8
72
12
62
50
0
VERTEX
8
OBJECT090
10
2496.000000
20
-64.000000
30
-2176.000000
70
192
0
VERTEX
8
OBJECT090
10
2496.000000
20
-832.000000
30
-2176.000000
70
192
0
VERTEX
8
OBJECT090
10
2560.000000
20
-832.000000
30
-2176.000000
70
192
0
VERTEX
8
OBJECT090
10
2560.000000
20
-64.000000
30
-2176.000000
70
192
0
VERTEX
8
OBJECT090
10
2496.000000
20
-64.000000
30
-1184.000000
70
192
0
VERTEX
8
OBJECT090
10
2496.000000
20
-832.000000
30
-1184.000000
70
192
0
VERTEX
8
OBJECT090
10
2560.000000
20
-832.000000
30
-1184.000000
70
192
0
VERTEX
8
OBJECT090
10
2560.000000
20
-64.000000
30
-1184.000000
70
192
0
VERTEX
8
OBJECT090
10
0
20
0
30
0
70
128
71
2
72
3
73
-4
0
VERTEX
8
OBJECT090
10
0
20
0
30
0
70
128
71
-2
72
4
73
1
0
VERTEX
8
OBJECT090
10
0
20
0
30
0
70
128
71
1
72
5
73
-6
0
VERTEX
8
OBJECT090
10
0
20
0
30
0
70
128
71
-1
72
6
73
2
0
VERTEX
8
OBJECT090
10
0
20
0
30
0
70
128
71
3
72
7
73
-8
0
VERTEX
8
OBJECT090
10
0
20
0
30
0
70
128
71
-3
72
8
73
4
0
VERTEX
8
OBJECT090
10
0
20
0
30
0
70
128
71
3
72
2
73
-6
0
VERTEX
8
OBJECT090
10
0
20
0
30
0
70
128
71
-3
72
6
73
7
0
VERTEX
8
OBJECT090
10
0
20
0
30
0
70
128
71
1
72
4
73
-8
0
VERTEX
8
OBJECT090
10
0
20
0
30
0
70
128
71
-1
72
8
73
5
0
VERTEX
8
OBJECT090
10
0
20
0
30
0
70
128
71
5
72
8
73
-7
0
VERTEX
8
OBJECT090
10
0
20
0
30
0
70
128
71
-5
72
7
73
6
0
SEQEND
8
OBJECT090
0
POLYLINE
8
OBJECT091
66
1
70
64
71
8
72
12
62
50
0
VERTEX
8
OBJECT091
10
2496.000000
20
320.000000
30
-1184.000000
70
192
0
VERTEX
8
OBJECT091
10
2496.000000
20
320.000000
30
-1120.000000
70
192
0
VERTEX
8
OBJECT091
10
2496.000000
20
-64.000000
30
-1120.000000
70
192
0
VERTEX
8
OBJECT091
10
2496.000000
20
-64.000000
30
-1184.000000
70
192
0
VERTEX
8
OBJECT091
10
2560.000000
20
-64.000000
30
-1184.000000
70
192
0
VERTEX
8
OBJECT091
10
2560.000000
20
-64.000000
30
-1120.000000
70
192
0
VERTEX
8
OBJECT091
10
2560.000000
20
320.000000
30
-1120.000000
70
192
0
VERTEX
8
OBJECT091
10
2560.000000
20
320.000000
30
-1184.000000
70
192
0
VERTEX
8
OBJECT091
10
0
20
0
30
0
70
128
71
2
72
3
73
-4
0
VERTEX
8
OBJECT091
10
0
20
0
30
0
70
128
71
-2
72
4
73
1
0
VERTEX
8
OBJECT091
10
0
20
0
30
0
70
128
71
6
72
7
73
-8
0
VERTEX
8
OBJECT091
10
0
20
0
30
0
70
128
71
-6
72
8
73
5
0
VERTEX
8
OBJECT091
10
0
20
0
30
0
70
128
71
2
72
7
73
-6
0
VERTEX
8
OBJECT091
10
0
20
0
30
0
70
128
71
-2
72
6
73
3
0
VERTEX
8
OBJECT091
10
0
20
0
30
0
70
128
71
1
72
8
73
-7
0
VERTEX
8
OBJECT091
10
0
20
0
30
0
70
128
71
-1
72
7
73
2
0
VERTEX
8
OBJECT091
10
0
20
0
30
0
70
128
71
5
72
4
73
-3
0
VERTEX
8
OBJECT091
10
0
20
0
30
0
70
128
71
-5
72
3
73
6
0
VERTEX
8
OBJECT091
10
0
20
0
30
0
70
128
71
4
72
5
73
-8
0
VERTEX
8
OBJECT091
10
0
20
0
30
0
70
128
71
-4
72
8
73
1
0
SEQEND
8
OBJECT091
0
POLYLINE
8
OBJECT092
66
1
70
64
71
8
72
12
62
50
0
VERTEX
8
OBJECT092
10
2496.000000
20
320.000000
30
-2176.000000
70
192
0
VERTEX
8
OBJECT092
10
2496.000000
20
-64.000000
30
-2176.000000
70
192
0
VERTEX
8
OBJECT092
10
2560.000000
20
-64.000000
30
-2176.000000
70
192
0
VERTEX
8
OBJECT092
10
2560.000000
20
320.000000
30
-2176.000000
70
192
0
VERTEX
8
OBJECT092
10
2496.000000
20
320.000000
30
-1184.000000
70
192
0
VERTEX
8
OBJECT092
10
2496.000000
20
-64.000000
30
-1184.000000
70
192
0
VERTEX
8
OBJECT092
10
2560.000000
20
-64.000000
30
-1184.000000
70
192
0
VERTEX
8
OBJECT092
10
2560.000000
20
320.000000
30
-1184.000000
70
192
0
VERTEX
8
OBJECT092
10
0
20
0
30
0
70
128
71
2
72
3
73
-4
0
VERTEX
8
OBJECT092
10
0
20
0
30
0
70
128
71
-2
72
4
73
1
0
VERTEX
8
OBJECT092
10
0
20
0
30
0
70
128
71
1
72
5
73
-6
0
VERTEX
8
OBJECT092
10
0
20
0
30
0
70
128
71
-1
72
6
73
2
0
VERTEX
8
OBJECT092
10
0
20
0
30
0
70
128
71
3
72
7
73
-8
0
VERTEX
8
OBJECT092
10
0
20
0
30
0
70
128
71
-3
72
8
73
4
0
VERTEX
8
OBJECT092
10
0
20
0
30
0
70
128
71
1
72
4
73
-8
0
VERTEX
8
OBJECT092
10
0
20
0
30
0
70
128
71
-1
72
8
73
5
0
VERTEX
8
OBJECT092
10
0
20
0
30
0
70
128
71
3
72
2
73
-6
0
VERTEX
8
OBJECT092
10
0
20
0
30
0
70
128
71
-3
72
6
73
7
0
VERTEX
8
OBJECT092
10
0
20
0
30
0
70
128
71
5
72
8
73
-7
0
VERTEX
8
OBJECT092
10
0
20
0
30
0
70
128
71
-5
72
7
73
6
0
SEQEND
8
OBJECT092
0
POLYLINE
8
OBJECT093
66
1
70
64
71
8
72
12
62
50
0
VERTEX
8
OBJECT093
10
2496.000000
20
-832.000000
30
-960.000000
70
192
0
VERTEX
8
OBJECT093
10
2496.000000
20
-64.000000
30
-960.000000
70
192
0
VERTEX
8
OBJECT093
10
2560.000000
20
-64.000000
30
-960.000000
70
192
0
VERTEX
8
OBJECT093
10
2560.000000
20
-832.000000
30
-960.000000
70
192
0
VERTEX
8
OBJECT093
10
2496.000000
20
-832.000000
30
-1056.000000
70
192
0
VERTEX
8
OBJECT093
10
2496.000000
20
-64.000000
30
-1056.000000
70
192
0
VERTEX
8
OBJECT093
10
2560.000000
20
-64.000000
30
-1056.000000
70
192
0
VERTEX
8
OBJECT093
10
2560.000000
20
-832.000000
30
-1056.000000
70
192
0
VERTEX
8
OBJECT093
10
0
20
0
30
0
70
128
71
2
72
3
73
-4
0
VERTEX
8
OBJECT093
10
0
20
0
30
0
70
128
71
-2
72
4
73
1
0
VERTEX
8
OBJECT093
10
0
20
0
30
0
70
128
71
6
72
2
73
-1
0
VERTEX
8
OBJECT093
10
0
20
0
30
0
70
128
71
-6
72
1
73
5
0
VERTEX
8
OBJECT093
10
0
20
0
30
0
70
128
71
8
72
4
73
-3
0
VERTEX
8
OBJECT093
10
0
20
0
30
0
70
128
71
-8
72
3
73
7
0
VERTEX
8
OBJECT093
10
0
20
0
30
0
70
128
71
5
72
8
73
-7
0
VERTEX
8
OBJECT093
10
0
20
0
30
0
70
128
71
-5
72
7
73
6
0
VERTEX
8
OBJECT093
10
0
20
0
30
0
70
128
71
1
72
4
73
-8
0
VERTEX
8
OBJECT093
10
0
20
0
30
0
70
128
71
-1
72
8
73
5
0
VERTEX
8
OBJECT093
10
0
20
0
30
0
70
128
71
3
72
2
73
-6
0
VERTEX
8
OBJECT093
10
0
20
0
30
0
70
128
71
-3
72
6
73
7
0
SEQEND
8
OBJECT093
0
POLYLINE
8
OBJECT094
66
1
70
64
71
8
72
12
62
50
0
VERTEX
8
OBJECT094
10
2496.000000
20
-832.000000
30
-1120.000000
70
192
0
VERTEX
8
OBJECT094
10
2496.000000
20
-64.000000
30
-1120.000000
70
192
0
VERTEX
8
OBJECT094
10
2496.000000
20
-64.000000
30
-1056.000000
70
192
0
VERTEX
8
OBJECT094
10
2496.000000
20
-832.000000
30
-1056.000000
70
192
0
VERTEX
8
OBJECT094
10
2560.000000
20
-64.000000
30
-1120.000000
70
192
0
VERTEX
8
OBJECT094
10
2560.000000
20
-832.000000
30
-1120.000000
70
192
0
VERTEX
8
OBJECT094
10
2560.000000
20
-832.000000
30
-1056.000000
70
192
0
VERTEX
8
OBJECT094
10
2560.000000
20
-64.000000
30
-1056.000000
70
192
0
VERTEX
8
OBJECT094
10
0
20
0
30
0
70
128
71
2
72
3
73
-4
0
VERTEX
8
OBJECT094
10
0
20
0
30
0
70
128
71
-2
72
4
73
1
0
VERTEX
8
OBJECT094
10
0
20
0
30
0
70
128
71
6
72
7
73
-8
0
VERTEX
8
OBJECT094
10
0
20
0
30
0
70
128
71
-6
72
8
73
5
0
VERTEX
8
OBJECT094
10
0
20
0
30
0
70
128
71
3
72
8
73
-7
0
VERTEX
8
OBJECT094
10
0
20
0
30
0
70
128
71
-3
72
7
73
4
0
VERTEX
8
OBJECT094
10
0
20
0
30
0
70
128
71
1
72
6
73
-5
0
VERTEX
8
OBJECT094
10
0
20
0
30
0
70
128
71
-1
72
5
73
2
0
VERTEX
8
OBJECT094
10
0
20
0
30
0
70
128
71
6
72
1
73
-4
0
VERTEX
8
OBJECT094
10
0
20
0
30
0
70
128
71
-6
72
4
73
7
0
VERTEX
8
OBJECT094
10
0
20
0
30
0
70
128
71
2
72
5
73
-8
0
VERTEX
8
OBJECT094
10
0
20
0
30
0
70
128
71
-2
72
8
73
3
0
SEQEND
8
OBJECT094
0
POLYLINE
8
OBJECT095
66
1
70
64
71
8
72
12
62
50
0
VERTEX
8
OBJECT095
10
2496.000000
20
-64.000000
30
-1120.000000
70
192
0
VERTEX
8
OBJECT095
10
2496.000000
20
-832.000000
30
-1120.000000
70
192
0
VERTEX
8
OBJECT095
10
2496.000000
20
-832.000000
30
-1184.000000
70
192
0
VERTEX
8
OBJECT095
10
2496.000000
20
-64.000000
30
-1184.000000
70
192
0
VERTEX
8
OBJECT095
10
2560.000000
20
-832.000000
30
-1184.000000
70
192
0
VERTEX
8
OBJECT095
10
2560.000000
20
-832.000000
30
-1120.000000
70
192
0
VERTEX
8
OBJECT095
10
2560.000000
20
-64.000000
30
-1120.000000
70
192
0
VERTEX
8
OBJECT095
10
2560.000000
20
-64.000000
30
-1184.000000
70
192
0
VERTEX
8
OBJECT095
10
0
20
0
30
0
70
128
71
2
72
3
73
-4
0
VERTEX
8
OBJECT095
10
0
20
0
30
0
70
128
71
-2
72
4
73
1
0
VERTEX
8
OBJECT095
10
0
20
0
30
0
70
128
71
6
72
7
73
-8
0
VERTEX
8
OBJECT095
10
0
20
0
30
0
70
128
71
-6
72
8
73
5
0
VERTEX
8
OBJECT095
10
0
20
0
30
0
70
128
71
1
72
7
73
-6
0
VERTEX
8
OBJECT095
10
0
20
0
30
0
70
128
71
-1
72
6
73
2
0
VERTEX
8
OBJECT095
10
0
20
0
30
0
70
128
71
5
72
3
73
-2
0
VERTEX
8
OBJECT095
10
0
20
0
30
0
70
128
71
-5
72
2
73
6
0
VERTEX
8
OBJECT095
10
0
20
0
30
0
70
128
71
3
72
5
73
-8
0
VERTEX
8
OBJECT095
10
0
20
0
30
0
70
128
71
-3
72
8
73
4
0
VERTEX
8
OBJECT095
10
0
20
0
30
0
70
128
71
4
72
8
73
-7
0
VERTEX
8
OBJECT095
10
0
20
0
30
0
70
128
71
-4
72
7
73
1
0
SEQEND
8
OBJECT095
0
POLYLINE
8
OBJECT096
66
1
70
64
71
8
72
12
62
50
0
VERTEX
8
OBJECT096
10
2242.762695
20
32.000000
30
-1153.731689
70
192
0
VERTEX
8
OBJECT096
10
2234.480469
20
64.000000
30
-1122.822144
70
192
0
VERTEX
8
OBJECT096
10
2543.576660
20
64.000000
30
-1040.000000
70
192
0
VERTEX
8
OBJECT096
10
2551.858887
20
32.000000
30
-1070.909668
70
192
0
VERTEX
8
OBJECT096
10
2237.586426
20
64.000000
30
-1134.413208
70
192
0
VERTEX
8
OBJECT096
10
2246.903809
20
32.000000
30
-1169.186523
70
192
0
VERTEX
8
OBJECT096
10
2556.000000
20
32.000000
30
-1086.364502
70
192
0
VERTEX
8
OBJECT096
10
2546.682617
20
64.000000
30
-1051.591064
70
192
0
VERTEX
8
OBJECT096
10
0
20
0
30
0
70
128
71
2
72
3
73
-4
0
VERTEX
8
OBJECT096
10
0
20
0
30
0
70
128
71
-2
72
4
73
1
0
VERTEX
8
OBJECT096
10
0
20
0
30
0
70
128
71
6
72
7
73
-8
0
VERTEX
8
OBJECT096
10
0
20
0
30
0
70
128
71
-6
72
8
73
5
0
VERTEX
8
OBJECT096
10
0
20
0
30
0
70
128
71
5
72
2
73
-1
0
VERTEX
8
OBJECT096
10
0
20
0
30
0
70
128
71
-5
72
1
73
6
0
VERTEX
8
OBJECT096
10
0
20
0
30
0
70
128
71
7
72
4
73
-3
0
VERTEX
8
OBJECT096
10
0
20
0
30
0
70
128
71
-7
72
3
73
8
0
VERTEX
8
OBJECT096
10
0
20
0
30
0
70
128
71
8
72
3
73
-2
0
VERTEX
8
OBJECT096
10
0
20
0
30
0
70
128
71
-8
72
2
73
5
0
VERTEX
8
OBJECT096
10
0
20
0
30
0
70
128
71
6
72
1
73
-4
0
VERTEX
8
OBJECT096
10
0
20
0
30
0
70
128
71
-6
72
4
73
7
0
SEQEND
8
OBJECT096
0
POLYLINE
8
OBJECT097
66
1
70
64
71
8
72
12
62
50
0
VERTEX
8
OBJECT097
10
2234.480469
20
0.000000
30
-1122.822144
70
192
0
VERTEX
8
OBJECT097
10
2242.762695
20
32.000000
30
-1153.731689
70
192
0
VERTEX
8
OBJECT097
10
2551.858887
20
32.000000
30
-1070.909668
70
192
0
VERTEX
8
OBJECT097
10
2543.576660
20
0.000000
30
-1040.000000
70
192
0
VERTEX
8
OBJECT097
10
2246.903809
20
32.000000
30
-1169.186523
70
192
0
VERTEX
8
OBJECT097
10
2237.586426
20
0.000000
30
-1134.413208
70
192
0
VERTEX
8
OBJECT097
10
2546.682617
20
0.000000
30
-1051.591064
70
192
0
VERTEX
8
OBJECT097
10
2556.000000
20
32.000000
30
-1086.364502
70
192
0
VERTEX
8
OBJECT097
10
0
20
0
30
0
70
128
71
2
72
3
73
-4
0
VERTEX
8
OBJECT097
10
0
20
0
30
0
70
128
71
-2
72
4
73
1
0
VERTEX
8
OBJECT097
10
0
20
0
30
0
70
128
71
6
72
7
73
-8
0
VERTEX
8
OBJECT097
10
0
20
0
30
0
70
128
71
-6
72
8
73
5
0
VERTEX
8
OBJECT097
10
0
20
0
30
0
70
128
71
5
72
2
73
-1
0
VERTEX
8
OBJECT097
10
0
20
0
30
0
70
128
71
-5
72
1
73
6
0
VERTEX
8
OBJECT097
10
0
20
0
30
0
70
128
71
7
72
4
73
-3
0
VERTEX
8
OBJECT097
10
0
20
0
30
0
70
128
71
-7
72
3
73
8
0
VERTEX
8
OBJECT097
10
0
20
0
30
0
70
128
71
6
72
1
73
-4
0
VERTEX
8
OBJECT097
10
0
20
0
30
0
70
128
71
-6
72
4
73
7
0
VERTEX
8
OBJECT097
10
0
20
0
30
0
70
128
71
8
72
3
73
-2
0
VERTEX
8
OBJECT097
10
0
20
0
30
0
70
128
71
-8
72
2
73
5
0
SEQEND
8
OBJECT097
0
POLYLINE
8
OBJECT098
66
1
70
64
71
8
72
12
62
50
0
VERTEX
8
OBJECT098
10
2240.000000
20
-64.000000
30
-736.000000
70
192
0
VERTEX
8
OBJECT098
10
2496.000000
20
-64.000000
30
-896.000000
70
192
0
VERTEX
8
OBJECT098
10
2496.000000
20
-1216.000000
30
-896.000000
70
192
0
VERTEX
8
OBJECT098
10
2240.000000
20
-1216.000000
30
-736.000000
70
192
0
VERTEX
8
OBJECT098
10
2496.000000
20
-64.000000
30
-960.000000
70
192
0
VERTEX
8
OBJECT098
10
2240.000000
20
-64.000000
30
-800.000000
70
192
0
VERTEX
8
OBJECT098
10
2240.000000
20
-1216.000000
30
-800.000000
70
192
0
VERTEX
8
OBJECT098
10
2496.000000
20
-1216.000000
30
-960.000000
70
192
0
VERTEX
8
OBJECT098
10
0
20
0
30
0
70
128
71
2
72
3
73
-4
0
VERTEX
8
OBJECT098
10
0
20
0
30
0
70
128
71
-2
72
4
73
1
0
VERTEX
8
OBJECT098
10
0
20
0
30
0
70
128
71
6
72
7
73
-8
0
VERTEX
8
OBJECT098
10
0
20
0
30
0
70
128
71
-6
72
8
73
5
0
VERTEX
8
OBJECT098
10
0
20
0
30
0
70
128
71
3
72
2
73
-5
0
VERTEX
8
OBJECT098
10
0
20
0
30
0
70
128
71
-3
72
5
73
8
0
VERTEX
8
OBJECT098
10
0
20
0
30
0
70
128
71
1
72
4
73
-7
0
VERTEX
8
OBJECT098
10
0
20
0
30
0
70
128
71
-1
72
7
73
6
0
VERTEX
8
OBJECT098
10
0
20
0
30
0
70
128
71
4
72
3
73
-8
0
VERTEX
8
OBJECT098
10
0
20
0
30
0
70
128
71
-4
72
8
73
7
0
VERTEX
8
OBJECT098
10
0
20
0
30
0
70
128
71
2
72
1
73
-6
0
VERTEX
8
OBJECT098
10
0
20
0
30
0
70
128
71
-2
72
6
73
5
0
SEQEND
8
OBJECT098
0
POLYLINE
8
OBJECT099
66
1
70
64
71
8
72
12
62
50
0
VERTEX
8
OBJECT099
10
2432.000000
20
-928.000000
30
-2176.000000
70
192
0
VERTEX
8
OBJECT099
10
2432.000000
20
-1024.000000
30
-2176.000000
70
192
0
VERTEX
8
OBJECT099
10
2496.000000
20
-1024.000000
30
-2176.000000
70
192
0
VERTEX
8
OBJECT099
10
2496.000000
20
-928.000000
30
-2176.000000
70
192
0
VERTEX
8
OBJECT099
10
2432.000000
20
-928.000000
30
-960.000000
70
192
0
VERTEX
8
OBJECT099
10
2432.000000
20
-1024.000000
30
-960.000000
70
192
0
VERTEX
8
OBJECT099
10
2496.000000
20
-1024.000000
30
-960.000000
70
192
0
VERTEX
8
OBJECT099
10
2496.000000
20
-928.000000
30
-960.000000
70
192
0
VERTEX
8
OBJECT099
10
0
20
0
30
0
70
128
71
2
72
3
73
-4
0
VERTEX
8
OBJECT099
10
0
20
0
30
0
70
128
71
-2
72
4
73
1
0
VERTEX
8
OBJECT099
10
0
20
0
30
0
70
128
71
1
72
5
73
-6
0
VERTEX
8
OBJECT099
10
0
20
0
30
0
70
128
71
-1
72
6
73
2
0
VERTEX
8
OBJECT099
10
0
20
0
30
0
70
128
71
3
72
7
73
-8
0
VERTEX
8
OBJECT099
10
0
20
0
30
0
70
128
71
-3
72
8
73
4
0
VERTEX
8
OBJECT099
10
0
20
0
30
0
70
128
71
4
72
8
73
-5
0
VERTEX
8
OBJECT099
10
0
20
0
30
0
70
128
71
-4
72
5
73
1
0
VERTEX
8
OBJECT099
10
0
20
0
30
0
70
128
71
2
72
6
73
-7
0
VERTEX
8
OBJECT099
10
0
20
0
30
0
70
128
71
-2
72
7
73
3
0
VERTEX
8
OBJECT099
10
0
20
0
30
0
70
128
71
5
72
8
73
-7
0
VERTEX
8
OBJECT099
10
0
20
0
30
0
70
128
71
-5
72
7
73
6
0
SEQEND
8
OBJECT099
0
POLYLINE
8
OBJECT100
66
1
70
64
71
8
72
12
62
50
0
VERTEX
8
OBJECT100
10
2176.000000
20
-928.000000
30
-800.000000
70
192
0
VERTEX
8
OBJECT100
10
2240.000000
20
-928.000000
30
-800.000000
70
192
0
VERTEX
8
OBJECT100
10
2240.000000
20
-1024.000000
30
-800.000000
70
192
0
VERTEX
8
OBJECT100
10
2176.000000
20
-1024.000000
30
-800.000000
70
192
0
VERTEX
8
OBJECT100
10
2432.000000
20
-1024.000000
30
-960.000000
70
192
0
VERTEX
8
OBJECT100
10
2432.000000
20
-928.000000
30
-960.000000
70
192
0
VERTEX
8
OBJECT100
10
2496.000000
20
-928.000000
30
-960.000000
70
192
0
VERTEX
8
OBJECT100
10
2496.000000
20
-1024.000000
30
-960.000000
70
192
0
VERTEX
8
OBJECT100
10
0
20
0
30
0
70
128
71
2
72
3
73
-4
0
VERTEX
8
OBJECT100
10
0
20
0
30
0
70
128
71
-2
72
4
73
1
0
VERTEX
8
OBJECT100
10
0
20
0
30
0
70
128
71
4
72
5
73
-6
0
VERTEX
8
OBJECT100
10
0
20
0
30
0
70
128
71
-4
72
6
73
1
0
VERTEX
8
OBJECT100
10
0
20
0
30
0
70
128
71
2
72
7
73
-8
0
VERTEX
8
OBJECT100
10
0
20
0
30
0
70
128
71
-2
72
8
73
3
0
VERTEX
8
OBJECT100
10
0
20
0
30
0
70
128
71
1
72
6
73
-7
0
VERTEX
8
OBJECT100
10
0
20
0
30
0
70
128
71
-1
72
7
73
2
0
VERTEX
8
OBJECT100
10
0
20
0
30
0
70
128
71
3
72
8
73
-5
0
VERTEX
8
OBJECT100
10
0
20
0
30
0
70
128
71
-3
72
5
73
4
0
VERTEX
8
OBJECT100
10
0
20
0
30
0
70
128
71
8
72
7
73
-6
0
VERTEX
8
OBJECT100
10
0
20
0
30
0
70
128
71
-8
72
6
73
5
0
SEQEND
8
OBJECT100
0
POLYLINE
8
OBJECT101
66
1
70
64
71
8
72
12
62
50
0
VERTEX
8
OBJECT101
10
1280.000000
20
-1088.000000
30
-800.000000
70
192
0
VERTEX
8
OBJECT101
10
1216.000000
20
-1088.000000
30
-800.000000
70
192
0
VERTEX
8
OBJECT101
10
1216.000000
20
-992.000000
30
-800.000000
70
192
0
VERTEX
8
OBJECT101
10
1280.000000
20
-992.000000
30
-800.000000
70
192
0
VERTEX
8
OBJECT101
10
1024.000000
20
-992.000000
30
-960.000000
70
192
0
VERTEX
8
OBJECT101
10
1024.000000
20
-1088.000000
30
-960.000000
70
192
0
VERTEX
8
OBJECT101
10
960.000000
20
-1088.000000
30
-960.000000
70
192
0
VERTEX
8
OBJECT101
10
960.000000
20
-992.000000
30
-960.000000
70
192
0
VERTEX
8
OBJECT101
10
0
20
0
30
0
70
128
71
2
72
3
73
-4
0
VERTEX
8
OBJECT101
10
0
20
0
30
0
70
128
71
-2
72
4
73
1
0
VERTEX
8
OBJECT101
10
0
20
0
30
0
70
128
71
4
72
5
73
-6
0
VERTEX
8
OBJECT101
10
0
20
0
30
0
70
128
71
-4
72
6
73
1
0
VERTEX
8
OBJECT101
10
0
20
0
30
0
70
128
71
2
72
7
73
-8
0
VERTEX
8
OBJECT101
10
0
20
0
30
0
70
128
71
-2
72
8
73
3
0
VERTEX
8
OBJECT101
10
0
20
0
30
0
70
128
71
1
72
6
73
-7
0
VERTEX
8
OBJECT101
10
0
20
0
30
0
70
128
71
-1
72
7
73
2
0
VERTEX
8
OBJECT101
10
0
20
0
30
0
70
128
71
3
72
8
73
-5
0
VERTEX
8
OBJECT101
10
0
20
0
30
0
70
128
71
-3
72
5
73
4
0
VERTEX
8
OBJECT101
10
0
20
0
30
0
70
128
71
8
72
7
73
-6
0
VERTEX
8
OBJECT101
10
0
20
0
30
0
70
128
71
-8
72
6
73
5
0
SEQEND
8
OBJECT101
0
POLYLINE
8
OBJECT102
66
1
70
64
71
8
72
12
62
50
0
VERTEX
8
OBJECT102
10
1024.000000
20
-992.000000
30
-960.000000
70
192
0
VERTEX
8
OBJECT102
10
1024.000000
20
-1088.000000
30
-960.000000
70
192
0
VERTEX
8
OBJECT102
10
960.000000
20
-1088.000000
30
-960.000000
70
192
0
VERTEX
8
OBJECT102
10
960.000000
20
-992.000000
30
-960.000000
70
192
0
VERTEX
8
OBJECT102
10
1024.000000
20
-1088.000000
30
-2176.000000
70
192
0
VERTEX
8
OBJECT102
10
1024.000000
20
-992.000000
30
-2176.000000
70
192
0
VERTEX
8
OBJECT102
10
960.000000
20
-992.000000
30
-2176.000000
70
192
0
VERTEX
8
OBJECT102
10
960.000000
20
-1088.000000
30
-2176.000000
70
192
0
VERTEX
8
OBJECT102
10
0
20
0
30
0
70
128
71
2
72
3
73
-4
0
VERTEX
8
OBJECT102
10
0
20
0
30
0
70
128
71
-2
72
4
73
1
0
VERTEX
8
OBJECT102
10
0
20
0
30
0
70
128
71
6
72
7
73
-8
0
VERTEX
8
OBJECT102
10
0
20
0
30
0
70
128
71
-6
72
8
73
5
0
VERTEX
8
OBJECT102
10
0
20
0
30
0
70
128
71
8
72
7
73
-4
0
VERTEX
8
OBJECT102
10
0
20
0
30
0
70
128
71
-8
72
4
73
3
0
VERTEX
8
OBJECT102
10
0
20
0
30
0
70
128
71
2
72
1
73
-6
0
VERTEX
8
OBJECT102
10
0
20
0
30
0
70
128
71
-2
72
6
73
5
0
VERTEX
8
OBJECT102
10
0
20
0
30
0
70
128
71
7
72
6
73
-1
0
VERTEX
8
OBJECT102
10
0
20
0
30
0
70
128
71
-7
72
1
73
4
0
VERTEX
8
OBJECT102
10
0
20
0
30
0
70
128
71
3
72
2
73
-5
0
VERTEX
8
OBJECT102
10
0
20
0
30
0
70
128
71
-3
72
5
73
8
0
SEQEND
8
OBJECT102
0
POLYLINE
8
OBJECT103
66
1
70
64
71
8
72
12
62
50
0
VERTEX
8
OBJECT103
10
1213.237427
20
-896.000000
30
-1153.731689
70
192
0
VERTEX
8
OBJECT103
10
1221.519531
20
-928.000000
30
-1122.822144
70
192
0
VERTEX
8
OBJECT103
10
912.423340
20
-928.000000
30
-1040.000000
70
192
0
VERTEX
8
OBJECT103
10
904.141113
20
-896.000000
30
-1070.909668
70
192
0
VERTEX
8
OBJECT103
10
1218.413818
20
-928.000000
30
-1134.413208
70
192
0
VERTEX
8
OBJECT103
10
1209.096313
20
-896.000000
30
-1169.186523
70
192
0
VERTEX
8
OBJECT103
10
900.000000
20
-896.000000
30
-1086.364502
70
192
0
VERTEX
8
OBJECT103
10
909.317505
20
-928.000000
30
-1051.591064
70
192
0
VERTEX
8
OBJECT103
10
0
20
0
30
0
70
128
71
2
72
3
73
-4
0
VERTEX
8
OBJECT103
10
0
20
0
30
0
70
128
71
-2
72
4
73
1
0
VERTEX
8
OBJECT103
10
0
20
0
30
0
70
128
71
6
72
7
73
-8
0
VERTEX
8
OBJECT103
10
0
20
0
30
0
70
128
71
-6
72
8
73
5
0
VERTEX
8
OBJECT103
10
0
20
0
30
0
70
128
71
5
72
2
73
-1
0
VERTEX
8
OBJECT103
10
0
20
0
30
0
70
128
71
-5
72
1
73
6
0
VERTEX
8
OBJECT103
10
0
20
0
30
0
70
128
71
7
72
4
73
-3
0
VERTEX
8
OBJECT103
10
0
20
0
30
0
70
128
71
-7
72
3
73
8
0
VERTEX
8
OBJECT103
10
0
20
0
30
0
70
128
71
8
72
3
73
-2
0
VERTEX
8
OBJECT103
10
0
20
0
30
0
70
128
71
-8
72
2
73
5
0
VERTEX
8
OBJECT103
10
0
20
0
30
0
70
128
71
6
72
1
73
-4
0
VERTEX
8
OBJECT103
10
0
20
0
30
0
70
128
71
-6
72
4
73
7
0
SEQEND
8
OBJECT103
0
POLYLINE
8
OBJECT104
66
1
70
64
71
8
72
12
62
50
0
VERTEX
8
OBJECT104
10
1221.519531
20
-864.000000
30
-1122.822144
70
192
0
VERTEX
8
OBJECT104
10
1213.237427
20
-896.000000
30
-1153.731689
70
192
0
VERTEX
8
OBJECT104
10
904.141113
20
-896.000000
30
-1070.909668
70
192
0
VERTEX
8
OBJECT104
10
912.423340
20
-864.000000
30
-1040.000000
70
192
0
VERTEX
8
OBJECT104
10
1209.096313
20
-896.000000
30
-1169.186523
70
192
0
VERTEX
8
OBJECT104
10
1218.413818
20
-864.000000
30
-1134.413208
70
192
0
VERTEX
8
OBJECT104
10
909.317505
20
-864.000000
30
-1051.591064
70
192
0
VERTEX
8
OBJECT104
10
900.000000
20
-896.000000
30
-1086.364502
70
192
0
VERTEX
8
OBJECT104
10
0
20
0
30
0
70
128
71
2
72
3
73
-4
0
VERTEX
8
OBJECT104
10
0
20
0
30
0
70
128
71
-2
72
4
73
1
0
VERTEX
8
OBJECT104
10
0
20
0
30
0
70
128
71
6
72
7
73
-8
0
VERTEX
8
OBJECT104
10
0
20
0
30
0
70
128
71
-6
72
8
73
5
0
VERTEX
8
OBJECT104
10
0
20
0
30
0
70
128
71
5
72
2
73
-1
0
VERTEX
8
OBJECT104
10
0
20
0
30
0
70
128
71
-5
72
1
73
6
0
VERTEX
8
OBJECT104
10
0
20
0
30
0
70
128
71
7
72
4
73
-3
0
VERTEX
8
OBJECT104
10
0
20
0
30
0
70
128
71
-7
72
3
73
8
0
VERTEX
8
OBJECT104
10
0
20
0
30
0
70
128
71
6
72
1
73
-4
0
VERTEX
8
OBJECT104
10
0
20
0
30
0
70
128
71
-6
72
4
73
7
0
VERTEX
8
OBJECT104
10
0
20
0
30
0
70
128
71
8
72
3
73
-2
0
VERTEX
8
OBJECT104
10
0
20
0
30
0
70
128
71
-8
72
2
73
5
0
SEQEND
8
OBJECT104
0
POLYLINE
8
OBJECT105
66
1
70
64
71
8
72
12
62
50
0
VERTEX
8
OBJECT105
10
2242.762695
20
-832.000000
30
-1153.731689
70
192
0
VERTEX
8
OBJECT105
10
2234.480469
20
-800.000000
30
-1122.822144
70
192
0
VERTEX
8
OBJECT105
10
2543.576660
20
-800.000000
30
-1040.000000
70
192
0
VERTEX
8
OBJECT105
10
2551.858887
20
-832.000000
30
-1070.909668
70
192
0
VERTEX
8
OBJECT105
10
2237.586426
20
-800.000000
30
-1134.413208
70
192
0
VERTEX
8
OBJECT105
10
2246.903809
20
-832.000000
30
-1169.186523
70
192
0
VERTEX
8
OBJECT105
10
2556.000000
20
-832.000000
30
-1086.364502
70
192
0
VERTEX
8
OBJECT105
10
2546.682617
20
-800.000000
30
-1051.591064
70
192
0
VERTEX
8
OBJECT105
10
0
20
0
30
0
70
128
71
2
72
3
73
-4
0
VERTEX
8
OBJECT105
10
0
20
0
30
0
70
128
71
-2
72
4
73
1
0
VERTEX
8
OBJECT105
10
0
20
0
30
0
70
128
71
6
72
7
73
-8
0
VERTEX
8
OBJECT105
10
0
20
0
30
0
70
128
71
-6
72
8
73
5
0
VERTEX
8
OBJECT105
10
0
20
0
30
0
70
128
71
5
72
2
73
-1
0
VERTEX
8
OBJECT105
10
0
20
0
30
0
70
128
71
-5
72
1
73
6
0
VERTEX
8
OBJECT105
10
0
20
0
30
0
70
128
71
7
72
4
73
-3
0
VERTEX
8
OBJECT105
10
0
20
0
30
0
70
128
71
-7
72
3
73
8
0
VERTEX
8
OBJECT105
10
0
20
0
30
0
70
128
71
8
72
3
73
-2
0
VERTEX
8
OBJECT105
10
0
20
0
30
0
70
128
71
-8
72
2
73
5
0
VERTEX
8
OBJECT105
10
0
20
0
30
0
70
128
71
6
72
1
73
-4
0
VERTEX
8
OBJECT105
10
0
20
0
30
0
70
128
71
-6
72
4
73
7
0
SEQEND
8
OBJECT105
0
POLYLINE
8
OBJECT106
66
1
70
64
71
8
72
12
62
50
0
VERTEX
8
OBJECT106
10
2234.480469
20
-864.000000
30
-1122.822144
70
192
0
VERTEX
8
OBJECT106
10
2242.762695
20
-832.000000
30
-1153.731689
70
192
0
VERTEX
8
OBJECT106
10
2551.858887
20
-832.000000
30
-1070.909668
70
192
0
VERTEX
8
OBJECT106
10
2543.576660
20
-864.000000
30
-1040.000000
70
192
0
VERTEX
8
OBJECT106
10
2246.903809
20
-832.000000
30
-1169.186523
70
192
0
VERTEX
8
OBJECT106
10
2237.586426
20
-864.000000
30
-1134.413208
70
192
0
VERTEX
8
OBJECT106
10
2546.682617
20
-864.000000
30
-1051.591064
70
192
0
VERTEX
8
OBJECT106
10
2556.000000
20
-832.000000
30
-1086.364502
70
192
0
VERTEX
8
OBJECT106
10
0
20
0
30
0
70
128
71
2
72
3
73
-4
0
VERTEX
8
OBJECT106
10
0
20
0
30
0
70
128
71
-2
72
4
73
1
0
VERTEX
8
OBJECT106
10
0
20
0
30
0
70
128
71
6
72
7
73
-8
0
VERTEX
8
OBJECT106
10
0
20
0
30
0
70
128
71
-6
72
8
73
5
0
VERTEX
8
OBJECT106
10
0
20
0
30
0
70
128
71
5
72
2
73
-1
0
VERTEX
8
OBJECT106
10
0
20
0
30
0
70
128
71
-5
72
1
73
6
0
VERTEX
8
OBJECT106
10
0
20
0
30
0
70
128
71
7
72
4
73
-3
0
VERTEX
8
OBJECT106
10
0
20
0
30
0
70
128
71
-7
72
3
73
8
0
VERTEX
8
OBJECT106
10
0
20
0
30
0
70
128
71
6
72
1
73
-4
0
VERTEX
8
OBJECT106
10
0
20
0
30
0
70
128
71
-6
72
4
73
7
0
VERTEX
8
OBJECT106
10
0
20
0
30
0
70
128
71
8
72
3
73
-2
0
VERTEX
8
OBJECT106
10
0
20
0
30
0
70
128
71
-8
72
2
73
5
0
SEQEND
8
OBJECT106
0
POLYLINE
8
OBJECT107
66
1
70
64
71
8
72
12
62
50
0
VERTEX
8
OBJECT107
10
2242.762695
20
-1120.000000
30
-1153.731689
70
192
0
VERTEX
8
OBJECT107
10
2234.480469
20
-1088.000000
30
-1122.822144
70
192
0
VERTEX
8
OBJECT107
10
2543.576660
20
-1088.000000
30
-1040.000000
70
192
0
VERTEX
8
OBJECT107
10
2551.858887
20
-1120.000000
30
-1070.909668
70
192
0
VERTEX
8
OBJECT107
10
2237.586426
20
-1088.000000
30
-1134.413208
70
192
0
VERTEX
8
OBJECT107
10
2246.903809
20
-1120.000000
30
-1169.186523
70
192
0
VERTEX
8
OBJECT107
10
2556.000000
20
-1120.000000
30
-1086.364502
70
192
0
VERTEX
8
OBJECT107
10
2546.682617
20
-1088.000000
30
-1051.591064
70
192
0
VERTEX
8
OBJECT107
10
0
20
0
30
0
70
128
71
2
72
3
73
-4
0
VERTEX
8
OBJECT107
10
0
20
0
30
0
70
128
71
-2
72
4
73
1
0
VERTEX
8
OBJECT107
10
0
20
0
30
0
70
128
71
6
72
7
73
-8
0
VERTEX
8
OBJECT107
10
0
20
0
30
0
70
128
71
-6
72
8
73
5
0
VERTEX
8
OBJECT107
10
0
20
0
30
0
70
128
71
5
72
2
73
-1
0
VERTEX
8
OBJECT107
10
0
20
0
30
0
70
128
71
-5
72
1
73
6
0
VERTEX
8
OBJECT107
10
0
20
0
30
0
70
128
71
7
72
4
73
-3
0
VERTEX
8
OBJECT107
10
0
20
0
30
0
70
128
71
-7
72
3
73
8
0
VERTEX
8
OBJECT107
10
0
20
0
30
0
70
128
71
8
72
3
73
-2
0
VERTEX
8
OBJECT107
10
0
20
0
30
0
70
128
71
-8
72
2
73
5
0
VERTEX
8
OBJECT107
10
0
20
0
30
0
70
128
71
6
72
1
73
-4
0
VERTEX
8
OBJECT107
10
0
20
0
30
0
70
128
71
-6
72
4
73
7
0
SEQEND
8
OBJECT107
0
POLYLINE
8
OBJECT108
66
1
70
64
71
8
72
12
62
50
0
VERTEX
8
OBJECT108
10
2234.480469
20
-1152.000000
30
-1122.822144
70
192
0
VERTEX
8
OBJECT108
10
2242.762695
20
-1120.000000
30
-1153.731689
70
192
0
VERTEX
8
OBJECT108
10
2551.858887
20
-1120.000000
30
-1070.909668
70
192
0
VERTEX
8
OBJECT108
10
2543.576660
20
-1152.000000
30
-1040.000000
70
192
0
VERTEX
8
OBJECT108
10
2246.903809
20
-1120.000000
30
-1169.186523
70
192
0
VERTEX
8
OBJECT108
10
2237.586426
20
-1152.000000
30
-1134.413208
70
192
0
VERTEX
8
OBJECT108
10
2546.682617
20
-1152.000000
30
-1051.591064
70
192
0
VERTEX
8
OBJECT108
10
2556.000000
20
-1120.000000
30
-1086.364502
70
192
0
VERTEX
8
OBJECT108
10
0
20
0
30
0
70
128
71
2
72
3
73
-4
0
VERTEX
8
OBJECT108
10
0
20
0
30
0
70
128
71
-2
72
4
73
1
0
VERTEX
8
OBJECT108
10
0
20
0
30
0
70
128
71
6
72
7
73
-8
0
VERTEX
8
OBJECT108
10
0
20
0
30
0
70
128
71
-6
72
8
73
5
0
VERTEX
8
OBJECT108
10
0
20
0
30
0
70
128
71
5
72
2
73
-1
0
VERTEX
8
OBJECT108
10
0
20
0
30
0
70
128
71
-5
72
1
73
6
0
VERTEX
8
OBJECT108
10
0
20
0
30
0
70
128
71
7
72
4
73
-3
0
VERTEX
8
OBJECT108
10
0
20
0
30
0
70
128
71
-7
72
3
73
8
0
VERTEX
8
OBJECT108
10
0
20
0
30
0
70
128
71
6
72
1
73
-4
0
VERTEX
8
OBJECT108
10
0
20
0
30
0
70
128
71
-6
72
4
73
7
0
VERTEX
8
OBJECT108
10
0
20
0
30
0
70
128
71
8
72
3
73
-2
0
VERTEX
8
OBJECT108
10
0
20
0
30
0
70
128
71
-8
72
2
73
5
0
SEQEND
8
OBJECT108
0
POLYLINE
8
OBJECT109
66
1
70
64
71
8
72
12
62
50
0
VERTEX
8
OBJECT109
10
1213.237427
20
-1184.000000
30
-1153.731689
70
192
0
VERTEX
8
OBJECT109
10
1221.519531
20
-1216.000000
30
-1122.822144
70
192
0
VERTEX
8
OBJECT109
10
912.423340
20
-1216.000000
30
-1040.000000
70
192
0
VERTEX
8
OBJECT109
10
904.141113
20
-1184.000000
30
-1070.909668
70
192
0
VERTEX
8
OBJECT109
10
1218.413818
20
-1216.000000
30
-1134.413208
70
192
0
VERTEX
8
OBJECT109
10
1209.096313
20
-1184.000000
30
-1169.186523
70
192
0
VERTEX
8
OBJECT109
10
900.000000
20
-1184.000000
30
-1086.364502
70
192
0
VERTEX
8
OBJECT109
10
909.317505
20
-1216.000000
30
-1051.591064
70
192
0
VERTEX
8
OBJECT109
10
0
20
0
30
0
70
128
71
2
72
3
73
-4
0
VERTEX
8
OBJECT109
10
0
20
0
30
0
70
128
71
-2
72
4
73
1
0
VERTEX
8
OBJECT109
10
0
20
0
30
0
70
128
71
6
72
7
73
-8
0
VERTEX
8
OBJECT109
10
0
20
0
30
0
70
128
71
-6
72
8
73
5
0
VERTEX
8
OBJECT109
10
0
20
0
30
0
70
128
71
5
72
2
73
-1
0
VERTEX
8
OBJECT109
10
0
20
0
30
0
70
128
71
-5
72
1
73
6
0
VERTEX
8
OBJECT109
10
0
20
0
30
0
70
128
71
7
72
4
73
-3
0
VERTEX
8
OBJECT109
10
0
20
0
30
0
70
128
71
-7
72
3
73
8
0
VERTEX
8
OBJECT109
10
0
20
0
30
0
70
128
71
8
72
3
73
-2
0
VERTEX
8
OBJECT109
10
0
20
0
30
0
70
128
71
-8
72
2
73
5
0
VERTEX
8
OBJECT109
10
0
20
0
30
0
70
128
71
6
72
1
73
-4
0
VERTEX
8
OBJECT109
10
0
20
0
30
0
70
128
71
-6
72
4
73
7
0
SEQEND
8
OBJECT109
0
POLYLINE
8
OBJECT110
66
1
70
64
71
8
72
12
62
50
0
VERTEX
8
OBJECT110
10
1221.519531
20
-1152.000000
30
-1122.822144
70
192
0
VERTEX
8
OBJECT110
10
1213.237427
20
-1184.000000
30
-1153.731689
70
192
0
VERTEX
8
OBJECT110
10
904.141113
20
-1184.000000
30
-1070.909668
70
192
0
VERTEX
8
OBJECT110
10
912.423340
20
-1152.000000
30
-1040.000000
70
192
0
VERTEX
8
OBJECT110
10
1209.096313
20
-1184.000000
30
-1169.186523
70
192
0
VERTEX
8
OBJECT110
10
1218.413818
20
-1152.000000
30
-1134.413208
70
192
0
VERTEX
8
OBJECT110
10
909.317505
20
-1152.000000
30
-1051.591064
70
192
0
VERTEX
8
OBJECT110
10
900.000000
20
-1184.000000
30
-1086.364502
70
192
0
VERTEX
8
OBJECT110
10
0
20
0
30
0
70
128
71
2
72
3
73
-4
0
VERTEX
8
OBJECT110
10
0
20
0
30
0
70
128
71
-2
72
4
73
1
0
VERTEX
8
OBJECT110
10
0
20
0
30
0
70
128
71
6
72
7
73
-8
0
VERTEX
8
OBJECT110
10
0
20
0
30
0
70
128
71
-6
72
8
73
5
0
VERTEX
8
OBJECT110
10
0
20
0
30
0
70
128
71
5
72
2
73
-1
0
VERTEX
8
OBJECT110
10
0
20
0
30
0
70
128
71
-5
72
1
73
6
0
VERTEX
8
OBJECT110
10
0
20
0
30
0
70
128
71
7
72
4
73
-3
0
VERTEX
8
OBJECT110
10
0
20
0
30
0
70
128
71
-7
72
3
73
8
0
VERTEX
8
OBJECT110
10
0
20
0
30
0
70
128
71
6
72
1
73
-4
0
VERTEX
8
OBJECT110
10
0
20
0
30
0
70
128
71
-6
72
4
73
7
0
VERTEX
8
OBJECT110
10
0
20
0
30
0
70
128
71
8
72
3
73
-2
0
VERTEX
8
OBJECT110
10
0
20
0
30
0
70
128
71
-8
72
2
73
5
0
SEQEND
8
OBJECT110
0
POLYLINE
8
OBJECT111
66
1
70
64
71
8
72
12
62
50
0
VERTEX
8
OBJECT111
10
1152.000000
20
-1536.000000
30
-960.000000
70
192
0
VERTEX
8
OBJECT111
10
1152.000000
20
-1472.000000
30
-960.000000
70
192
0
VERTEX
8
OBJECT111
10
2304.000000
20
-1472.000000
30
-960.000000
70
192
0
VERTEX
8
OBJECT111
10
2304.000000
20
-1536.000000
30
-960.000000
70
192
0
VERTEX
8
OBJECT111
10
1152.000000
20
-1472.000000
30
-1236.000000
70
192
0
VERTEX
8
OBJECT111
10
1152.000000
20
-1536.000000
30
-1236.000000
70
192
0
VERTEX
8
OBJECT111
10
2304.000000
20
-1536.000000
30
-1236.000000
70
192
0
VERTEX
8
OBJECT111
10
2304.000000
20
-1472.000000
30
-1236.000000
70
192
0
VERTEX
8
OBJECT111
10
0
20
0
30
0
70
128
71
2
72
3
73
-4
0
VERTEX
8
OBJECT111
10
0
20
0
30
0
70
128
71
-2
72
4
73
1
0
VERTEX
8
OBJECT111
10
0
20
0
30
0
70
128
71
2
72
1
73
-6
0
VERTEX
8
OBJECT111
10
0
20
0
30
0
70
128
71
-2
72
6
73
5
0
VERTEX
8
OBJECT111
10
0
20
0
30
0
70
128
71
4
72
3
73
-8
0
VERTEX
8
OBJECT111
10
0
20
0
30
0
70
128
71
-4
72
8
73
7
0
VERTEX
8
OBJECT111
10
0
20
0
30
0
70
128
71
3
72
2
73
-5
0
VERTEX
8
OBJECT111
10
0
20
0
30
0
70
128
71
-3
72
5
73
8
0
VERTEX
8
OBJECT111
10
0
20
0
30
0
70
128
71
1
72
4
73
-7
0
VERTEX
8
OBJECT111
10
0
20
0
30
0
70
128
71
-1
72
7
73
6
0
VERTEX
8
OBJECT111
10
0
20
0
30
0
70
128
71
6
72
7
73
-8
0
VERTEX
8
OBJECT111
10
0
20
0
30
0
70
128
71
-6
72
8
73
5
0
SEQEND
8
OBJECT111
0
POLYLINE
8
OBJECT112
66
1
70
64
71
8
72
12
62
50
0
VERTEX
8
OBJECT112
10
1152.000000
20
-1472.000000
30
-2176.000000
70
192
0
VERTEX
8
OBJECT112
10
1152.000000
20
-1536.000000
30
-2176.000000
70
192
0
VERTEX
8
OBJECT112
10
2304.000000
20
-1536.000000
30
-2176.000000
70
192
0
VERTEX
8
OBJECT112
10
2304.000000
20
-1472.000000
30
-2176.000000
70
192
0
VERTEX
8
OBJECT112
10
1152.000000
20
-1536.000000
30
-1344.000000
70
192
0
VERTEX
8
OBJECT112
10
1152.000000
20
-1472.000000
30
-1344.000000
70
192
0
VERTEX
8
OBJECT112
10
2304.000000
20
-1472.000000
30
-1344.000000
70
192
0
VERTEX
8
OBJECT112
10
2304.000000
20
-1536.000000
30
-1344.000000
70
192
0
VERTEX
8
OBJECT112
10
0
20
0
30
0
70
128
71
2
72
3
73
-4
0
VERTEX
8
OBJECT112
10
0
20
0
30
0
70
128
71
-2
72
4
73
1
0
VERTEX
8
OBJECT112
10
0
20
0
30
0
70
128
71
2
72
1
73
-6
0
VERTEX
8
OBJECT112
10
0
20
0
30
0
70
128
71
-2
72
6
73
5
0
VERTEX
8
OBJECT112
10
0
20
0
30
0
70
128
71
4
72
3
73
-8
0
VERTEX
8
OBJECT112
10
0
20
0
30
0
70
128
71
-4
72
8
73
7
0
VERTEX
8
OBJECT112
10
0
20
0
30
0
70
128
71
1
72
4
73
-7
0
VERTEX
8
OBJECT112
10
0
20
0
30
0
70
128
71
-1
72
7
73
6
0
VERTEX
8
OBJECT112
10
0
20
0
30
0
70
128
71
3
72
2
73
-5
0
VERTEX
8
OBJECT112
10
0
20
0
30
0
70
128
71
-3
72
5
73
8
0
VERTEX
8
OBJECT112
10
0
20
0
30
0
70
128
71
6
72
7
73
-8
0
VERTEX
8
OBJECT112
10
0
20
0
30
0
70
128
71
-6
72
8
73
5
0
SEQEND
8
OBJECT112
0
POLYLINE
8
OBJECT113
66
1
70
64
71
8
72
12
62
50
0
VERTEX
8
OBJECT113
10
1152.000000
20
-1536.000000
30
-1236.000000
70
192
0
VERTEX
8
OBJECT113
10
1152.000000
20
-1536.000000
30
-1344.000000
70
192
0
VERTEX
8
OBJECT113
10
1152.000000
20
-1472.000000
30
-1344.000000
70
192
0
VERTEX
8
OBJECT113
10
1152.000000
20
-1472.000000
30
-1236.000000
70
192
0
VERTEX
8
OBJECT113
10
1644.000000
20
-1472.000000
30
-1344.000000
70
192
0
VERTEX
8
OBJECT113
10
1644.000000
20
-1472.000000
30
-1236.000000
70
192
0
VERTEX
8
OBJECT113
10
1644.000000
20
-1536.000000
30
-1344.000000
70
192
0
VERTEX
8
OBJECT113
10
1644.000000
20
-1536.000000
30
-1236.000000
70
192
0
VERTEX
8
OBJECT113
10
0
20
0
30
0
70
128
71
2
72
3
73
-4
0
VERTEX
8
OBJECT113
10
0
20
0
30
0
70
128
71
-2
72
4
73
1
0
VERTEX
8
OBJECT113
10
0
20
0
30
0
70
128
71
3
72
5
73
-6
0
VERTEX
8
OBJECT113
10
0
20
0
30
0
70
128
71
-3
72
6
73
4
0
VERTEX
8
OBJECT113
10
0
20
0
30
0
70
128
71
2
72
1
73
-8
0
VERTEX
8
OBJECT113
10
0
20
0
30
0
70
128
71
-2
72
8
73
7
0
VERTEX
8
OBJECT113
10
0
20
0
30
0
70
128
71
4
72
6
73
-8
0
VERTEX
8
OBJECT113
10
0
20
0
30
0
70
128
71
-4
72
8
73
1
0
VERTEX
8
OBJECT113
10
0
20
0
30
0
70
128
71
2
72
7
73
-5
0
VERTEX
8
OBJECT113
10
0
20
0
30
0
70
128
71
-2
72
5
73
3
0
VERTEX
8
OBJECT113
10
0
20
0
30
0
70
128
71
5
72
7
73
-8
0
VERTEX
8
OBJECT113
10
0
20
0
30
0
70
128
71
-5
72
8
73
6
0
SEQEND
8
OBJECT113
0
POLYLINE
8
OBJECT114
66
1
70
64
71
8
72
12
62
50
0
VERTEX
8
OBJECT114
10
2304.000000
20
-1472.000000
30
-1236.000000
70
192
0
VERTEX
8
OBJECT114
10
2304.000000
20
-1472.000000
30
-1344.000000
70
192
0
VERTEX
8
OBJECT114
10
2304.000000
20
-1536.000000
30
-1344.000000
70
192
0
VERTEX
8
OBJECT114
10
2304.000000
20
-1536.000000
30
-1236.000000
70
192
0
VERTEX
8
OBJECT114
10
1812.000000
20
-1472.000000
30
-1344.000000
70
192
0
VERTEX
8
OBJECT114
10
1812.000000
20
-1472.000000
30
-1236.000000
70
192
0
VERTEX
8
OBJECT114
10
1812.000000
20
-1536.000000
30
-1344.000000
70
192
0
VERTEX
8
OBJECT114
10
1812.000000
20
-1536.000000
30
-1236.000000
70
192
0
VERTEX
8
OBJECT114
10
0
20
0
30
0
70
128
71
2
72
3
73
-4
0
VERTEX
8
OBJECT114
10
0
20
0
30
0
70
128
71
-2
72
4
73
1
0
VERTEX
8
OBJECT114
10
0
20
0
30
0
70
128
71
2
72
1
73
-6
0
VERTEX
8
OBJECT114
10
0
20
0
30
0
70
128
71
-2
72
6
73
5
0
VERTEX
8
OBJECT114
10
0
20
0
30
0
70
128
71
3
72
7
73
-8
0
VERTEX
8
OBJECT114
10
0
20
0
30
0
70
128
71
-3
72
8
73
4
0
VERTEX
8
OBJECT114
10
0
20
0
30
0
70
128
71
1
72
4
73
-8
0
VERTEX
8
OBJECT114
10
0
20
0
30
0
70
128
71
-1
72
8
73
6
0
VERTEX
8
OBJECT114
10
0
20
0
30
0
70
128
71
3
72
2
73
-5
0
VERTEX
8
OBJECT114
10
0
20
0
30
0
70
128
71
-3
72
5
73
7
0
VERTEX
8
OBJECT114
10
0
20
0
30
0
70
128
71
7
72
5
73
-6
0
VERTEX
8
OBJECT114
10
0
20
0
30
0
70
128
71
-7
72
6
73
8
0
SEQEND
8
OBJECT114
0
POLYLINE
8
OBJECT115
66
1
70
64
71
8
72
12
62
50
0
VERTEX
8
OBJECT115
10
1216.000000
20
-544.000000
30
-768.000000
70
192
0
VERTEX
8
OBJECT115
10
960.000000
20
-704.000000
30
-768.000000
70
192
0
VERTEX
8
OBJECT115
10
960.000000
20
-384.000000
30
-768.000000
70
192
0
VERTEX
8
OBJECT115
10
1216.000000
20
-384.000000
30
-768.000000
70
192
0
VERTEX
8
OBJECT115
10
1216.000000
20
-384.000000
30
-2176.000000
70
192
0
VERTEX
8
OBJECT115
10
960.000000
20
-384.000000
30
-2176.000000
70
192
0
VERTEX
8
OBJECT115
10
960.000000
20
-704.000000
30
-2176.000000
70
192
0
VERTEX
8
OBJECT115
10
1216.000000
20
-544.000000
30
-2176.000000
70
192
0
VERTEX
8
OBJECT115
10
0
20
0
30
0
70
128
71
2
72
3
73
-4
0
VERTEX
8
OBJECT115
10
0
20
0
30
0
70
128
71
-2
72
4
73
1
0
VERTEX
8
OBJECT115
10
0
20
0
30
0
70
128
71
6
72
7
73
-8
0
VERTEX
8
OBJECT115
10
0
20
0
30
0
70
128
71
-6
72
8
73
5
0
VERTEX
8
OBJECT115
10
0
20
0
30
0
70
128
71
7
72
6
73
-3
0
VERTEX
8
OBJECT115
10
0
20
0
30
0
70
128
71
-7
72
3
73
2
0
VERTEX
8
OBJECT115
10
0
20
0
30
0
70
128
71
5
72
8
73
-1
0
VERTEX
8
OBJECT115
10
0
20
0
30
0
70
128
71
-5
72
1
73
4
0
VERTEX
8
OBJECT115
10
0
20
0
30
0
70
128
71
6
72
5
73
-4
0
VERTEX
8
OBJECT115
10
0
20
0
30
0
70
128
71
-6
72
4
73
3
0
VERTEX
8
OBJECT115
10
0
20
0
30
0
70
128
71
8
72
7
73
-2
0
VERTEX
8
OBJECT115
10
0
20
0
30
0
70
128
71
-8
72
2
73
1
0
SEQEND
8
OBJECT115
0
POLYLINE
8
OBJECT116
66
1
70
64
71
8
72
12
62
50
0
VERTEX
8
OBJECT116
10
1216.000000
20
-224.000000
30
-768.000000
70
192
0
VERTEX
8
OBJECT116
10
1216.000000
20
-384.000000
30
-768.000000
70
192
0
VERTEX
8
OBJECT116
10
960.000000
20
-384.000000
30
-768.000000
70
192
0
VERTEX
8
OBJECT116
10
960.000000
20
-64.000000
30
-768.000000
70
192
0
VERTEX
8
OBJECT116
10
1216.000000
20
-384.000000
30
-2176.000000
70
192
0
VERTEX
8
OBJECT116
10
1216.000000
20
-224.000000
30
-2176.000000
70
192
0
VERTEX
8
OBJECT116
10
960.000000
20
-64.000000
30
-2176.000000
70
192
0
VERTEX
8
OBJECT116
10
960.000000
20
-384.000000
30
-2176.000000
70
192
0
VERTEX
8
OBJECT116
10
0
20
0
30
0
70
128
71
2
72
3
73
-4
0
VERTEX
8
OBJECT116
10
0
20
0
30
0
70
128
71
-2
72
4
73
1
0
VERTEX
8
OBJECT116
10
0
20
0
30
0
70
128
71
6
72
7
73
-8
0
VERTEX
8
OBJECT116
10
0
20
0
30
0
70
128
71
-6
72
8
73
5
0
VERTEX
8
OBJECT116
10
0
20
0
30
0
70
128
71
3
72
8
73
-7
0
VERTEX
8
OBJECT116
10
0
20
0
30
0
70
128
71
-3
72
7
73
4
0
VERTEX
8
OBJECT116
10
0
20
0
30
0
70
128
71
1
72
6
73
-5
0
VERTEX
8
OBJECT116
10
0
20
0
30
0
70
128
71
-1
72
5
73
2
0
VERTEX
8
OBJECT116
10
0
20
0
30
0
70
128
71
2
72
5
73
-8
0
VERTEX
8
OBJECT116
10
0
20
0
30
0
70
128
71
-2
72
8
73
3
0
VERTEX
8
OBJECT116
10
0
20
0
30
0
70
128
71
4
72
7
73
-6
0
VERTEX
8
OBJECT116
10
0
20
0
30
0
70
128
71
-4
72
6
73
1
0
SEQEND
8
OBJECT116
0
POLYLINE
8
OBJECT117
66
1
70
64
71
8
72
12
62
50
0
VERTEX
8
OBJECT117
10
1216.000000
20
-1216.000000
30
-736.000000
70
192
0
VERTEX
8
OBJECT117
10
960.000000
20
-1472.000000
30
-896.000000
70
192
0
VERTEX
8
OBJECT117
10
960.000000
20
-704.000000
30
-896.000000
70
192
0
VERTEX
8
OBJECT117
10
1216.000000
20
-704.000000
30
-736.000000
70
192
0
VERTEX
8
OBJECT117
10
960.000000
20
-704.000000
30
-960.000000
70
192
0
VERTEX
8
OBJECT117
10
960.000000
20
-1472.000000
30
-960.000000
70
192
0
VERTEX
8
OBJECT117
10
1216.000000
20
-1216.000000
30
-800.000000
70
192
0
VERTEX
8
OBJECT117
10
1216.000000
20
-704.000000
30
-800.000000
70
192
0
VERTEX
8
OBJECT117
10
0
20
0
30
0
70
128
71
2
72
3
73
-4
0
VERTEX
8
OBJECT117
10
0
20
0
30
0
70
128
71
-2
72
4
73
1
0
VERTEX
8
OBJECT117
10
0
20
0
30
0
70
128
71
6
72
7
73
-8
0
VERTEX
8
OBJECT117
10
0
20
0
30
0
70
128
71
-6
72
8
73
5
0
VERTEX
8
OBJECT117
10
0
20
0
30
0
70
128
71
5
72
3
73
-2
0
VERTEX
8
OBJECT117
10
0
20
0
30
0
70
128
71
-5
72
2
73
6
0
VERTEX
8
OBJECT117
10
0
20
0
30
0
70
128
71
6
72
2
73
-1
0
VERTEX
8
OBJECT117
10
0
20
0
30
0
70
128
71
-6
72
1
73
7
0
VERTEX
8
OBJECT117
10
0
20
0
30
0
70
128
71
7
72
1
73
-4
0
VERTEX
8
OBJECT117
10
0
20
0
30
0
70
128
71
-7
72
4
73
8
0
VERTEX
8
OBJECT117
10
0
20
0
30
0
70
128
71
8
72
4
73
-3
0
VERTEX
8
OBJECT117
10
0
20
0
30
0
70
128
71
-8
72
3
73
5
0
SEQEND
8
OBJECT117
0
POLYLINE
8
OBJECT118
66
1
70
64
71
8
72
12
62
50
0
VERTEX
8
OBJECT118
10
960.000000
20
-64.000000
30
-896.000000
70
192
0
VERTEX
8
OBJECT118
10
960.000000
20
512.000000
30
-896.000000
70
192
0
VERTEX
8
OBJECT118
10
1216.000000
20
256.000000
30
-736.000000
70
192
0
VERTEX
8
OBJECT118
10
1216.000000
20
-64.000000
30
-736.000000
70
192
0
VERTEX
8
OBJECT118
10
1216.000000
20
256.000000
30
-800.000000
70
192
0
VERTEX
8
OBJECT118
10
960.000000
20
512.000000
30
-960.000000
70
192
0
VERTEX
8
OBJECT118
10
960.000000
20
-64.000000
30
-960.000000
70
192
0
VERTEX
8
OBJECT118
10
1216.000000
20
-64.000000
30
-800.000000
70
192
0
VERTEX
8
OBJECT118
10
0
20
0
30
0
70
128
71
2
72
3
73
-4
0
VERTEX
8
OBJECT118
10
0
20
0
30
0
70
128
71
-2
72
4
73
1
0
VERTEX
8
OBJECT118
10
0
20
0
30
0
70
128
71
6
72
7
73
-8
0
VERTEX
8
OBJECT118
10
0
20
0
30
0
70
128
71
-6
72
8
73
5
0
VERTEX
8
OBJECT118
10
0
20
0
30
0
70
128
71
6
72
2
73
-1
0
VERTEX
8
OBJECT118
10
0
20
0
30
0
70
128
71
-6
72
1
73
7
0
VERTEX
8
OBJECT118
10
0
20
0
30
0
70
128
71
5
72
3
73
-2
0
VERTEX
8
OBJECT118
10
0
20
0
30
0
70
128
71
-5
72
2
73
6
0
VERTEX
8
OBJECT118
10
0
20
0
30
0
70
128
71
8
72
4
73
-3
0
VERTEX
8
OBJECT118
10
0
20
0
30
0
70
128
71
-8
72
3
73
5
0
VERTEX
8
OBJECT118
10
0
20
0
30
0
70
128
71
7
72
1
73
-4
0
VERTEX
8
OBJECT118
10
0
20
0
30
0
70
128
71
-7
72
4
73
8
0
SEQEND
8
OBJECT118
0
POLYLINE
8
OBJECT119
66
1
70
64
71
6
72
8
62
50
0
VERTEX
8
OBJECT119
10
1216.000000
20
-544.000000
30
-736.000000
70
192
0
VERTEX
8
OBJECT119
10
1216.000000
20
-704.000000
30
-736.000000
70
192
0
VERTEX
8
OBJECT119
10
960.000000
20
-704.000000
30
-896.000000
70
192
0
VERTEX
8
OBJECT119
10
1216.000000
20
-704.000000
30
-800.000000
70
192
0
VERTEX
8
OBJECT119
10
1216.000000
20
-544.000000
30
-800.000000
70
192
0
VERTEX
8
OBJECT119
10
960.000000
20
-704.000000
30
-960.000000
70
192
0
VERTEX
8
OBJECT119
10
0
20
0
30
0
70
128
71
2
72
3
73
1
0
VERTEX
8
OBJECT119
10
0
20
0
30
0
70
128
71
5
72
6
73
4
0
VERTEX
8
OBJECT119
10
0
20
0
30
0
70
128
71
2
72
1
73
-5
0
VERTEX
8
OBJECT119
10
0
20
0
30
0
70
128
71
-2
72
5
73
4
0
VERTEX
8
OBJECT119
10
0
20
0
30
0
70
128
71
3
72
2
73
-4
0
VERTEX
8
OBJECT119
10
0
20
0
30
0
70
128
71
-3
72
4
73
6
0
VERTEX
8
OBJECT119
10
0
20
0
30
0
70
128
71
1
72
3
73
-6
0
VERTEX
8
OBJECT119
10
0
20
0
30
0
70
128
71
-1
72
6
73
5
0
SEQEND
8
OBJECT119
0
POLYLINE
8
OBJECT120
66
1
70
64
71
6
72
8
62
50
0
VERTEX
8
OBJECT120
10
960.000000
20
-64.000000
30
-896.000000
70
192
0
VERTEX
8
OBJECT120
10
1216.000000
20
-64.000000
30
-736.000000
70
192
0
VERTEX
8
OBJECT120
10
1216.000000
20
-224.000000
30
-736.000000
70
192
0
VERTEX
8
OBJECT120
10
960.000000
20
-64.000000
30
-960.000000
70
192
0
VERTEX
8
OBJECT120
10
1216.000000
20
-224.000000
30
-800.000000
70
192
0
VERTEX
8
OBJECT120
10
1216.000000
20
-64.000000
30
-800.000000
70
192
0
VERTEX
8
OBJECT120
10
0
20
0
30
0
70
128
71
2
72
3
73
1
0
VERTEX
8
OBJECT120
10
0
20
0
30
0
70
128
71
5
72
6
73
4
0
VERTEX
8
OBJECT120
10
0
20
0
30
0
70
128
71
5
72
3
73
-2
0
VERTEX
8
OBJECT120
10
0
20
0
30
0
70
128
71
-5
72
2
73
6
0
VERTEX
8
OBJECT120
10
0
20
0
30
0
70
128
71
6
72
2
73
-1
0
VERTEX
8
OBJECT120
10
0
20
0
30
0
70
128
71
-6
72
1
73
4
0
VERTEX
8
OBJECT120
10
0
20
0
30
0
70
128
71
4
72
1
73
-3
0
VERTEX
8
OBJECT120
10
0
20
0
30
0
70
128
71
-4
72
3
73
5
0
SEQEND
8
OBJECT120
0
POLYLINE
8
OBJECT121
66
1
70
64
71
8
72
12
62
50
0
VERTEX
8
OBJECT121
10
896.000000
20
-1280.000000
30
-960.000000
70
192
0
VERTEX
8
OBJECT121
10
896.000000
20
-704.000000
30
-960.000000
70
192
0
VERTEX
8
OBJECT121
10
960.000000
20
-704.000000
30
-960.000000
70
192
0
VERTEX
8
OBJECT121
10
960.000000
20
-1280.000000
30
-960.000000
70
192
0
VERTEX
8
OBJECT121
10
896.000000
20
-704.000000
30
-2176.000000
70
192
0
VERTEX
8
OBJECT121
10
896.000000
20
-1280.000000
30
-2176.000000
70
192
0
VERTEX
8
OBJECT121
10
960.000000
20
-1280.000000
30
-2176.000000
70
192
0
VERTEX
8
OBJECT121
10
960.000000
20
-704.000000
30
-2176.000000
70
192
0
VERTEX
8
OBJECT121
10
0
20
0
30
0
70
128
71
2
72
3
73
-4
0
VERTEX
8
OBJECT121
10
0
20
0
30
0
70
128
71
-2
72
4
73
1
0
VERTEX
8
OBJECT121
10
0
20
0
30
0
70
128
71
6
72
7
73
-8
0
VERTEX
8
OBJECT121
10
0
20
0
30
0
70
128
71
-6
72
8
73
5
0
VERTEX
8
OBJECT121
10
0
20
0
30
0
70
128
71
5
72
2
73
-1
0
VERTEX
8
OBJECT121
10
0
20
0
30
0
70
128
71
-5
72
1
73
6
0
VERTEX
8
OBJECT121
10
0
20
0
30
0
70
128
71
7
72
4
73
-3
0
VERTEX
8
OBJECT121
10
0
20
0
30
0
70
128
71
-7
72
3
73
8
0
VERTEX
8
OBJECT121
10
0
20
0
30
0
70
128
71
6
72
1
73
-4
0
VERTEX
8
OBJECT121
10
0
20
0
30
0
70
128
71
-6
72
4
73
7
0
VERTEX
8
OBJECT121
10
0
20
0
30
0
70
128
71
8
72
3
73
-2
0
VERTEX
8
OBJECT121
10
0
20
0
30
0
70
128
71
-8
72
2
73
5
0
SEQEND
8
OBJECT121
0
POLYLINE
8
OBJECT122
66
1
70
64
71
8
72
12
62
50
0
VERTEX
8
OBJECT122
10
896.000000
20
-704.000000
30
-960.000000
70
192
0
VERTEX
8
OBJECT122
10
896.000000
20
-64.000000
30
-960.000000
70
192
0
VERTEX
8
OBJECT122
10
960.000000
20
-64.000000
30
-960.000000
70
192
0
VERTEX
8
OBJECT122
10
960.000000
20
-704.000000
30
-960.000000
70
192
0
VERTEX
8
OBJECT122
10
896.000000
20
-64.000000
30
-2176.000000
70
192
0
VERTEX
8
OBJECT122
10
896.000000
20
-704.000000
30
-2176.000000
70
192
0
VERTEX
8
OBJECT122
10
960.000000
20
-704.000000
30
-2176.000000
70
192
0
VERTEX
8
OBJECT122
10
960.000000
20
-64.000000
30
-2176.000000
70
192
0
VERTEX
8
OBJECT122
10
0
20
0
30
0
70
128
71
2
72
3
73
-4
0
VERTEX
8
OBJECT122
10
0
20
0
30
0
70
128
71
-2
72
4
73
1
0
VERTEX
8
OBJECT122
10
0
20
0
30
0
70
128
71
6
72
7
73
-8
0
VERTEX
8
OBJECT122
10
0
20
0
30
0
70
128
71
-6
72
8
73
5
0
VERTEX
8
OBJECT122
10
0
20
0
30
0
70
128
71
5
72
2
73
-1
0
VERTEX
8
OBJECT122
10
0
20
0
30
0
70
128
71
-5
72
1
73
6
0
VERTEX
8
OBJECT122
10
0
20
0
30
0
70
128
71
7
72
4
73
-3
0
VERTEX
8
OBJECT122
10
0
20
0
30
0
70
128
71
-7
72
3
73
8
0
VERTEX
8
OBJECT122
10
0
20
0
30
0
70
128
71
6
72
1
73
-4
0
VERTEX
8
OBJECT122
10
0
20
0
30
0
70
128
71
-6
72
4
73
7
0
VERTEX
8
OBJECT122
10
0
20
0
30
0
70
128
71
8
72
3
73
-2
0
VERTEX
8
OBJECT122
10
0
20
0
30
0
70
128
71
-8
72
2
73
5
0
SEQEND
8
OBJECT122
0
POLYLINE
8
OBJECT123
66
1
70
64
71
8
72
12
62
50
0
VERTEX
8
OBJECT123
10
896.000000
20
-64.000000
30
-960.000000
70
192
0
VERTEX
8
OBJECT123
10
896.000000
20
512.000000
30
-960.000000
70
192
0
VERTEX
8
OBJECT123
10
960.000000
20
512.000000
30
-960.000000
70
192
0
VERTEX
8
OBJECT123
10
960.000000
20
-64.000000
30
-960.000000
70
192
0
VERTEX
8
OBJECT123
10
896.000000
20
512.000000
30
-2176.000000
70
192
0
VERTEX
8
OBJECT123
10
896.000000
20
-64.000000
30
-2176.000000
70
192
0
VERTEX
8
OBJECT123
10
960.000000
20
-64.000000
30
-2176.000000
70
192
0
VERTEX
8
OBJECT123
10
960.000000
20
512.000000
30
-2176.000000
70
192
0
VERTEX
8
OBJECT123
10
0
20
0
30
0
70
128
71
2
72
3
73
-4
0
VERTEX
8
OBJECT123
10
0
20
0
30
0
70
128
71
-2
72
4
73
1
0
VERTEX
8
OBJECT123
10
0
20
0
30
0
70
128
71
6
72
7
73
-8
0
VERTEX
8
OBJECT123
10
0
20
0
30
0
70
128
71
-6
72
8
73
5
0
VERTEX
8
OBJECT123
10
0
20
0
30
0
70
128
71
5
72
2
73
-1
0
VERTEX
8
OBJECT123
10
0
20
0
30
0
70
128
71
-5
72
1
73
6
0
VERTEX
8
OBJECT123
10
0
20
0
30
0
70
128
71
7
72
4
73
-3
0
VERTEX
8
OBJECT123
10
0
20
0
30
0
70
128
71
-7
72
3
73
8
0
VERTEX
8
OBJECT123
10
0
20
0
30
0
70
128
71
8
72
3
73
-2
0
VERTEX
8
OBJECT123
10
0
20
0
30
0
70
128
71
-8
72
2
73
5
0
VERTEX
8
OBJECT123
10
0
20
0
30
0
70
128
71
6
72
1
73
-4
0
VERTEX
8
OBJECT123
10
0
20
0
30
0
70
128
71
-6
72
4
73
7
0
SEQEND
8
OBJECT123
0
POLYLINE
8
OBJECT124
66
1
70
64
71
8
72
12
62
50
0
VERTEX
8
OBJECT124
10
2240.000000
20
-224.000000
30
-768.000000
70
192
0
VERTEX
8
OBJECT124
10
2496.000000
20
-64.000000
30
-768.000000
70
192
0
VERTEX
8
OBJECT124
10
2496.000000
20
-384.000000
30
-768.000000
70
192
0
VERTEX
8
OBJECT124
10
2240.000000
20
-384.000000
30
-768.000000
70
192
0
VERTEX
8
OBJECT124
10
2240.000000
20
-384.000000
30
-2176.000000
70
192
0
VERTEX
8
OBJECT124
10
2496.000000
20
-384.000000
30
-2176.000000
70
192
0
VERTEX
8
OBJECT124
10
2496.000000
20
-64.000000
30
-2176.000000
70
192
0
VERTEX
8
OBJECT124
10
2240.000000
20
-224.000000
30
-2176.000000
70
192
0
VERTEX
8
OBJECT124
10
0
20
0
30
0
70
128
71
2
72
3
73
-4
0
VERTEX
8
OBJECT124
10
0
20
0
30
0
70
128
71
-2
72
4
73
1
0
VERTEX
8
OBJECT124
10
0
20
0
30
0
70
128
71
6
72
7
73
-8
0
VERTEX
8
OBJECT124
10
0
20
0
30
0
70
128
71
-6
72
8
73
5
0
VERTEX
8
OBJECT124
10
0
20
0
30
0
70
128
71
7
72
6
73
-3
0
VERTEX
8
OBJECT124
10
0
20
0
30
0
70
128
71
-7
72
3
73
2
0
VERTEX
8
OBJECT124
10
0
20
0
30
0
70
128
71
5
72
8
73
-1
0
VERTEX
8
OBJECT124
10
0
20
0
30
0
70
128
71
-5
72
1
73
4
0
VERTEX
8
OBJECT124
10
0
20
0
30
0
70
128
71
6
72
5
73
-4
0
VERTEX
8
OBJECT124
10
0
20
0
30
0
70
128
71
-6
72
4
73
3
0
VERTEX
8
OBJECT124
10
0
20
0
30
0
70
128
71
8
72
7
73
-2
0
VERTEX
8
OBJECT124
10
0
20
0
30
0
70
128
71
-8
72
2
73
1
0
SEQEND
8
OBJECT124
0
POLYLINE
8
OBJECT125
66
1
70
64
71
8
72
12
62
50
0
VERTEX
8
OBJECT125
10
2240.000000
20
-544.000000
30
-768.000000
70
192
0
VERTEX
8
OBJECT125
10
2240.000000
20
-384.000000
30
-768.000000
70
192
0
VERTEX
8
OBJECT125
10
2496.000000
20
-384.000000
30
-768.000000
70
192
0
VERTEX
8
OBJECT125
10
2496.000000
20
-704.000000
30
-768.000000
70
192
0
VERTEX
8
OBJECT125
10
2240.000000
20
-384.000000
30
-2176.000000
70
192
0
VERTEX
8
OBJECT125
10
2240.000000
20
-544.000000
30
-2176.000000
70
192
0
VERTEX
8
OBJECT125
10
2496.000000
20
-704.000000
30
-2176.000000
70
192
0
VERTEX
8
OBJECT125
10
2496.000000
20
-384.000000
30
-2176.000000
70
192
0
VERTEX
8
OBJECT125
10
0
20
0
30
0
70
128
71
2
72
3
73
-4
0
VERTEX
8
OBJECT125
10
0
20
0
30
0
70
128
71
-2
72
4
73
1
0
VERTEX
8
OBJECT125
10
0
20
0
30
0
70
128
71
6
72
7
73
-8
0
VERTEX
8
OBJECT125
10
0
20
0
30
0
70
128
71
-6
72
8
73
5
0
VERTEX
8
OBJECT125
10
0
20
0
30
0
70
128
71
3
72
8
73
-7
0
VERTEX
8
OBJECT125
10
0
20
0
30
0
70
128
71
-3
72
7
73
4
0
VERTEX
8
OBJECT125
10
0
20
0
30
0
70
128
71
1
72
6
73
-5
0
VERTEX
8
OBJECT125
10
0
20
0
30
0
70
128
71
-1
72
5
73
2
0
VERTEX
8
OBJECT125
10
0
20
0
30
0
70
128
71
2
72
5
73
-8
0
VERTEX
8
OBJECT125
10
0
20
0
30
0
70
128
71
-2
72
8
73
3
0
VERTEX
8
OBJECT125
10
0
20
0
30
0
70
128
71
4
72
7
73
-6
0
VERTEX
8
OBJECT125
10
0
20
0
30
0
70
128
71
-4
72
6
73
1
0
SEQEND
8
OBJECT125
0
POLYLINE
8
OBJECT126
66
1
70
64
71
8
72
12
62
50
0
VERTEX
8
OBJECT126
10
2240.000000
20
-128.000000
30
-800.000000
70
192
0
VERTEX
8
OBJECT126
10
2240.000000
20
-224.000000
30
-800.000000
70
192
0
VERTEX
8
OBJECT126
10
2176.000000
20
-224.000000
30
-800.000000
70
192
0
VERTEX
8
OBJECT126
10
2176.000000
20
-128.000000
30
-800.000000
70
192
0
VERTEX
8
OBJECT126
10
2432.000000
20
-64.000000
30
-960.000000
70
192
0
VERTEX
8
OBJECT126
10
2432.000000
20
32.000000
30
-960.000000
70
192
0
VERTEX
8
OBJECT126
10
2496.000000
20
32.000000
30
-960.000000
70
192
0
VERTEX
8
OBJECT126
10
2496.000000
20
-64.000000
30
-960.000000
70
192
0
VERTEX
8
OBJECT126
10
0
20
0
30
0
70
128
71
2
72
3
73
-4
0
VERTEX
8
OBJECT126
10
0
20
0
30
0
70
128
71
-2
72
4
73
1
0
VERTEX
8
OBJECT126
10
0
20
0
30
0
70
128
71
5
72
6
73
-4
0
VERTEX
8
OBJECT126
10
0
20
0
30
0
70
128
71
-5
72
4
73
3
0
VERTEX
8
OBJECT126
10
0
20
0
30
0
70
128
71
7
72
8
73
-2
0
VERTEX
8
OBJECT126
10
0
20
0
30
0
70
128
71
-7
72
2
73
1
0
VERTEX
8
OBJECT126
10
0
20
0
30
0
70
128
71
6
72
7
73
-1
0
VERTEX
8
OBJECT126
10
0
20
0
30
0
70
128
71
-6
72
1
73
4
0
VERTEX
8
OBJECT126
10
0
20
0
30
0
70
128
71
8
72
5
73
-3
0
VERTEX
8
OBJECT126
10
0
20
0
30
0
70
128
71
-8
72
3
73
2
0
VERTEX
8
OBJECT126
10
0
20
0
30
0
70
128
71
7
72
6
73
-5
0
VERTEX
8
OBJECT126
10
0
20
0
30
0
70
128
71
-7
72
5
73
8
0
SEQEND
8
OBJECT126
0
POLYLINE
8
OBJECT127
66
1
70
64
71
8
72
12
62
50
0
VERTEX
8
OBJECT127
10
2432.000000
20
32.000000
30
-960.000000
70
192
0
VERTEX
8
OBJECT127
10
2496.000000
20
32.000000
30
-960.000000
70
192
0
VERTEX
8
OBJECT127
10
2496.000000
20
-64.000000
30
-960.000000
70
192
0
VERTEX
8
OBJECT127
10
2432.000000
20
-64.000000
30
-960.000000
70
192
0
VERTEX
8
OBJECT127
10
2432.000000
20
-64.000000
30
-2176.000000
70
192
0
VERTEX
8
OBJECT127
10
2496.000000
20
-64.000000
30
-2176.000000
70
192
0
VERTEX
8
OBJECT127
10
2496.000000
20
32.000000
30
-2176.000000
70
192
0
VERTEX
8
OBJECT127
10
2432.000000
20
32.000000
30
-2176.000000
70
192
0
VERTEX
8
OBJECT127
10
0
20
0
30
0
70
128
71
2
72
3
73
-4
0
VERTEX
8
OBJECT127
10
0
20
0
30
0
70
128
71
-2
72
4
73
1
0
VERTEX
8
OBJECT127
10
0
20
0
30
0
70
128
71
6
72
7
73
-8
0
VERTEX
8
OBJECT127
10
0
20
0
30
0
70
128
71
-6
72
8
73
5
0
VERTEX
8
OBJECT127
10
0
20
0
30
0
70
128
71
6
72
3
73
-2
0
VERTEX
8
OBJECT127
10
0
20
0
30
0
70
128
71
-6
72
2
73
7
0
VERTEX
8
OBJECT127
10
0
20
0
30
0
70
128
71
4
72
5
73
-8
0
VERTEX
8
OBJECT127
10
0
20
0
30
0
70
128
71
-4
72
8
73
1
0
VERTEX
8
OBJECT127
10
0
20
0
30
0
70
128
71
5
72
4
73
-3
0
VERTEX
8
OBJECT127
10
0
20
0
30
0
70
128
71
-5
72
3
73
6
0
VERTEX
8
OBJECT127
10
0
20
0
30
0
70
128
71
1
72
8
73
-7
0
VERTEX
8
OBJECT127
10
0
20
0
30
0
70
128
71
-1
72
7
73
2
0
SEQEND
8
OBJECT127
0
POLYLINE
8
OBJECT128
66
1
70
64
71
8
72
12
62
50
0
VERTEX
8
OBJECT128
10
2240.000000
20
-640.000000
30
-800.000000
70
192
0
VERTEX
8
OBJECT128
10
2176.000000
20
-640.000000
30
-800.000000
70
192
0
VERTEX
8
OBJECT128
10
2176.000000
20
-544.000000
30
-800.000000
70
192
0
VERTEX
8
OBJECT128
10
2240.000000
20
-544.000000
30
-800.000000
70
192
0
VERTEX
8
OBJECT128
10
2432.000000
20
-800.000000
30
-960.000000
70
192
0
VERTEX
8
OBJECT128
10
2432.000000
20
-704.000000
30
-960.000000
70
192
0
VERTEX
8
OBJECT128
10
2496.000000
20
-704.000000
30
-960.000000
70
192
0
VERTEX
8
OBJECT128
10
2496.000000
20
-800.000000
30
-960.000000
70
192
0
VERTEX
8
OBJECT128
10
0
20
0
30
0
70
128
71
2
72
3
73
-4
0
VERTEX
8
OBJECT128
10
0
20
0
30
0
70
128
71
-2
72
4
73
1
0
VERTEX
8
OBJECT128
10
0
20
0
30
0
70
128
71
6
72
3
73
-2
0
VERTEX
8
OBJECT128
10
0
20
0
30
0
70
128
71
-6
72
2
73
5
0
VERTEX
8
OBJECT128
10
0
20
0
30
0
70
128
71
8
72
1
73
-4
0
VERTEX
8
OBJECT128
10
0
20
0
30
0
70
128
71
-8
72
4
73
7
0
VERTEX
8
OBJECT128
10
0
20
0
30
0
70
128
71
7
72
4
73
-3
0
VERTEX
8
OBJECT128
10
0
20
0
30
0
70
128
71
-7
72
3
73
6
0
VERTEX
8
OBJECT128
10
0
20
0
30
0
70
128
71
5
72
2
73
-1
0
VERTEX
8
OBJECT128
10
0
20
0
30
0
70
128
71
-5
72
1
73
8
0
VERTEX
8
OBJECT128
10
0
20
0
30
0
70
128
71
6
72
5
73
-8
0
VERTEX
8
OBJECT128
10
0
20
0
30
0
70
128
71
-6
72
8
73
7
0
SEQEND
8
OBJECT128
0
POLYLINE
8
OBJECT129
66
1
70
64
71
8
72
12
62
50
0
VERTEX
8
OBJECT129
10
2432.000000
20
-800.000000
30
-960.000000
70
192
0
VERTEX
8
OBJECT129
10
2432.000000
20
-704.000000
30
-960.000000
70
192
0
VERTEX
8
OBJECT129
10
2496.000000
20
-704.000000
30
-960.000000
70
192
0
VERTEX
8
OBJECT129
10
2496.000000
20
-800.000000
30
-960.000000
70
192
0
VERTEX
8
OBJECT129
10
2432.000000
20
-704.000000
30
-2176.000000
70
192
0
VERTEX
8
OBJECT129
10
2432.000000
20
-800.000000
30
-2176.000000
70
192
0
VERTEX
8
OBJECT129
10
2496.000000
20
-800.000000
30
-2176.000000
70
192
0
VERTEX
8
OBJECT129
10
2496.000000
20
-704.000000
30
-2176.000000
70
192
0
VERTEX
8
OBJECT129
10
0
20
0
30
0
70
128
71
2
72
3
73
-4
0
VERTEX
8
OBJECT129
10
0
20
0
30
0
70
128
71
-2
72
4
73
1
0
VERTEX
8
OBJECT129
10
0
20
0
30
0
70
128
71
6
72
7
73
-8
0
VERTEX
8
OBJECT129
10
0
20
0
30
0
70
128
71
-6
72
8
73
5
0
VERTEX
8
OBJECT129
10
0
20
0
30
0
70
128
71
8
72
7
73
-4
0
VERTEX
8
OBJECT129
10
0
20
0
30
0
70
128
71
-8
72
4
73
3
0
VERTEX
8
OBJECT129
10
0
20
0
30
0
70
128
71
2
72
1
73
-6
0
VERTEX
8
OBJECT129
10
0
20
0
30
0
70
128
71
-2
72
6
73
5
0
VERTEX
8
OBJECT129
10
0
20
0
30
0
70
128
71
7
72
6
73
-1
0
VERTEX
8
OBJECT129
10
0
20
0
30
0
70
128
71
-7
72
1
73
4
0
VERTEX
8
OBJECT129
10
0
20
0
30
0
70
128
71
3
72
2
73
-5
0
VERTEX
8
OBJECT129
10
0
20
0
30
0
70
128
71
-3
72
5
73
8
0
SEQEND
8
OBJECT129
0
POLYLINE
8
OBJECT130
66
1
70
64
71
8
72
12
62
50
0
VERTEX
8
OBJECT130
10
-768.000000
20
-1008.000000
30
448.000000
70
192
0
VERTEX
8
OBJECT130
10
-704.000000
20
-1008.000000
30
448.000000
70
192
0
VERTEX
8
OBJECT130
10
-704.000000
20
-1104.000000
30
448.000000
70
192
0
VERTEX
8
OBJECT130
10
-768.000000
20
-1104.000000
30
448.000000
70
192
0
VERTEX
8
OBJECT130
10
-768.000000
20
-1104.000000
30
-2176.000000
70
192
0
VERTEX
8
OBJECT130
10
-704.000000
20
-1104.000000
30
-2176.000000
70
192
0
VERTEX
8
OBJECT130
10
-704.000000
20
-1008.000000
30
-2176.000000
70
192
0
VERTEX
8
OBJECT130
10
-768.000000
20
-1008.000000
30
-2176.000000
70
192
0
VERTEX
8
OBJECT130
10
0
20
0
30
0
70
128
71
2
72
3
73
-4
0
VERTEX
8
OBJECT130
10
0
20
0
30
0
70
128
71
-2
72
4
73
1
0
VERTEX
8
OBJECT130
10
0
20
0
30
0
70
128
71
6
72
7
73
-8
0
VERTEX
8
OBJECT130
10
0
20
0
30
0
70
128
71
-6
72
8
73
5
0
VERTEX
8
OBJECT130
10
0
20
0
30
0
70
128
71
1
72
4
73
-5
0
VERTEX
8
OBJECT130
10
0
20
0
30
0
70
128
71
-1
72
5
73
8
0
VERTEX
8
OBJECT130
10
0
20
0
30
0
70
128
71
3
72
2
73
-7
0
VERTEX
8
OBJECT130
10
0
20
0
30
0
70
128
71
-3
72
7
73
6
0
VERTEX
8
OBJECT130
10
0
20
0
30
0
70
128
71
2
72
1
73
-8
0
VERTEX
8
OBJECT130
10
0
20
0
30
0
70
128
71
-2
72
8
73
7
0
VERTEX
8
OBJECT130
10
0
20
0
30
0
70
128
71
4
72
3
73
-6
0
VERTEX
8
OBJECT130
10
0
20
0
30
0
70
128
71
-4
72
6
73
5
0
SEQEND
8
OBJECT130
0
POLYLINE
8
OBJECT131
66
1
70
64
71
8
72
12
62
50
0
VERTEX
8
OBJECT131
10
-512.000000
20
-1104.000000
30
608.000000
70
192
0
VERTEX
8
OBJECT131
10
-512.000000
20
-1008.000000
30
608.000000
70
192
0
VERTEX
8
OBJECT131
10
-448.000000
20
-1008.000000
30
608.000000
70
192
0
VERTEX
8
OBJECT131
10
-448.000000
20
-1104.000000
30
608.000000
70
192
0
VERTEX
8
OBJECT131
10
-704.000000
20
-1104.000000
30
448.000000
70
192
0
VERTEX
8
OBJECT131
10
-704.000000
20
-1008.000000
30
448.000000
70
192
0
VERTEX
8
OBJECT131
10
-768.000000
20
-1008.000000
30
448.000000
70
192
0
VERTEX
8
OBJECT131
10
-768.000000
20
-1104.000000
30
448.000000
70
192
0
VERTEX
8
OBJECT131
10
0
20
0
30
0
70
128
71
2
72
3
73
-4
0
VERTEX
8
OBJECT131
10
0
20
0
30
0
70
128
71
-2
72
4
73
1
0
VERTEX
8
OBJECT131
10
0
20
0
30
0
70
128
71
4
72
3
73
-6
0
VERTEX
8
OBJECT131
10
0
20
0
30
0
70
128
71
-4
72
6
73
5
0
VERTEX
8
OBJECT131
10
0
20
0
30
0
70
128
71
2
72
1
73
-8
0
VERTEX
8
OBJECT131
10
0
20
0
30
0
70
128
71
-2
72
8
73
7
0
VERTEX
8
OBJECT131
10
0
20
0
30
0
70
128
71
1
72
4
73
-5
0
VERTEX
8
OBJECT131
10
0
20
0
30
0
70
128
71
-1
72
5
73
8
0
VERTEX
8
OBJECT131
10
0
20
0
30
0
70
128
71
3
72
2
73
-7
0
VERTEX
8
OBJECT131
10
0
20
0
30
0
70
128
71
-3
72
7
73
6
0
VERTEX
8
OBJECT131
10
0
20
0
30
0
70
128
71
8
72
5
73
-6
0
VERTEX
8
OBJECT131
10
0
20
0
30
0
70
128
71
-8
72
6
73
7
0
SEQEND
8
OBJECT131
0
POLYLINE
8
OBJECT132
66
1
70
64
71
8
72
12
62
50
0
VERTEX
8
OBJECT132
10
448.000000
20
-1104.000000
30
608.000000
70
192
0
VERTEX
8
OBJECT132
10
448.000000
20
-1008.000000
30
608.000000
70
192
0
VERTEX
8
OBJECT132
10
512.000000
20
-1008.000000
30
608.000000
70
192
0
VERTEX
8
OBJECT132
10
512.000000
20
-1104.000000
30
608.000000
70
192
0
VERTEX
8
OBJECT132
10
704.000000
20
-1008.000000
30
448.000000
70
192
0
VERTEX
8
OBJECT132
10
704.000000
20
-1104.000000
30
448.000000
70
192
0
VERTEX
8
OBJECT132
10
768.000000
20
-1104.000000
30
448.000000
70
192
0
VERTEX
8
OBJECT132
10
768.000000
20
-1008.000000
30
448.000000
70
192
0
VERTEX
8
OBJECT132
10
0
20
0
30
0
70
128
71
2
72
3
73
-4
0
VERTEX
8
OBJECT132
10
0
20
0
30
0
70
128
71
-2
72
4
73
1
0
VERTEX
8
OBJECT132
10
0
20
0
30
0
70
128
71
2
72
1
73
-6
0
VERTEX
8
OBJECT132
10
0
20
0
30
0
70
128
71
-2
72
6
73
5
0
VERTEX
8
OBJECT132
10
0
20
0
30
0
70
128
71
4
72
3
73
-8
0
VERTEX
8
OBJECT132
10
0
20
0
30
0
70
128
71
-4
72
8
73
7
0
VERTEX
8
OBJECT132
10
0
20
0
30
0
70
128
71
3
72
2
73
-5
0
VERTEX
8
OBJECT132
10
0
20
0
30
0
70
128
71
-3
72
5
73
8
0
VERTEX
8
OBJECT132
10
0
20
0
30
0
70
128
71
1
72
4
73
-7
0
VERTEX
8
OBJECT132
10
0
20
0
30
0
70
128
71
-1
72
7
73
6
0
VERTEX
8
OBJECT132
10
0
20
0
30
0
70
128
71
6
72
7
73
-8
0
VERTEX
8
OBJECT132
10
0
20
0
30
0
70
128
71
-6
72
8
73
5
0
SEQEND
8
OBJECT132
0
POLYLINE
8
OBJECT133
66
1
70
64
71
8
72
12
62
50
0
VERTEX
8
OBJECT133
10
704.000000
20
-1104.000000
30
-2176.000000
70
192
0
VERTEX
8
OBJECT133
10
768.000000
20
-1104.000000
30
-2176.000000
70
192
0
VERTEX
8
OBJECT133
10
768.000000
20
-1008.000000
30
-2176.000000
70
192
0
VERTEX
8
OBJECT133
10
704.000000
20
-1008.000000
30
-2176.000000
70
192
0
VERTEX
8
OBJECT133
10
704.000000
20
-1008.000000
30
448.000000
70
192
0
VERTEX
8
OBJECT133
10
704.000000
20
-1104.000000
30
448.000000
70
192
0
VERTEX
8
OBJECT133
10
768.000000
20
-1104.000000
30
448.000000
70
192
0
VERTEX
8
OBJECT133
10
768.000000
20
-1008.000000
30
448.000000
70
192
0
VERTEX
8
OBJECT133
10
0
20
0
30
0
70
128
71
2
72
3
73
-4
0
VERTEX
8
OBJECT133
10
0
20
0
30
0
70
128
71
-2
72
4
73
1
0
VERTEX
8
OBJECT133
10
0
20
0
30
0
70
128
71
4
72
5
73
-6
0
VERTEX
8
OBJECT133
10
0
20
0
30
0
70
128
71
-4
72
6
73
1
0
VERTEX
8
OBJECT133
10
0
20
0
30
0
70
128
71
2
72
7
73
-8
0
VERTEX
8
OBJECT133
10
0
20
0
30
0
70
128
71
-2
72
8
73
3
0
VERTEX
8
OBJECT133
10
0
20
0
30
0
70
128
71
3
72
8
73
-5
0
VERTEX
8
OBJECT133
10
0
20
0
30
0
70
128
71
-3
72
5
73
4
0
VERTEX
8
OBJECT133
10
0
20
0
30
0
70
128
71
1
72
6
73
-7
0
VERTEX
8
OBJECT133
10
0
20
0
30
0
70
128
71
-1
72
7
73
2
0
VERTEX
8
OBJECT133
10
0
20
0
30
0
70
128
71
8
72
7
73
-6
0
VERTEX
8
OBJECT133
10
0
20
0
30
0
70
128
71
-8
72
6
73
5
0
SEQEND
8
OBJECT133
0
POLYLINE
8
OBJECT134
66
1
70
64
71
8
72
12
62
50
0
VERTEX
8
OBJECT134
10
530.756836
20
-64.000000
30
254.265625
70
192
0
VERTEX
8
OBJECT134
10
522.474609
20
-32.000000
30
285.175781
70
192
0
VERTEX
8
OBJECT134
10
831.577026
20
-32.000000
30
368.000000
70
192
0
VERTEX
8
OBJECT134
10
839.859009
20
-64.000000
30
337.090393
70
192
0
VERTEX
8
OBJECT134
10
844.000000
20
-64.000000
30
321.632813
70
192
0
VERTEX
8
OBJECT134
10
834.680664
20
-32.000000
30
356.406250
70
192
0
VERTEX
8
OBJECT134
10
525.583496
20
-32.000000
30
273.585938
70
192
0
VERTEX
8
OBJECT134
10
534.901489
20
-64.000000
30
238.811920
70
192
0
VERTEX
8
OBJECT134
10
0
20
0
30
0
70
128
71
2
72
3
73
-4
0
VERTEX
8
OBJECT134
10
0
20
0
30
0
70
128
71
-2
72
4
73
1
0
VERTEX
8
OBJECT134
10
0
20
0
30
0
70
128
71
6
72
7
73
-8
0
VERTEX
8
OBJECT134
10
0
20
0
30
0
70
128
71
-6
72
8
73
5
0
VERTEX
8
OBJECT134
10
0
20
0
30
0
70
128
71
1
72
8
73
-7
0
VERTEX
8
OBJECT134
10
0
20
0
30
0
70
128
71
-1
72
7
73
2
0
VERTEX
8
OBJECT134
10
0
20
0
30
0
70
128
71
3
72
6
73
-5
0
VERTEX
8
OBJECT134
10
0
20
0
30
0
70
128
71
-3
72
5
73
4
0
VERTEX
8
OBJECT134
10
0
20
0
30
0
70
128
71
6
72
3
73
-2
0
VERTEX
8
OBJECT134
10
0
20
0
30
0
70
128
71
-6
72
2
73
7
0
VERTEX
8
OBJECT134
10
0
20
0
30
0
70
128
71
8
72
1
73
-4
0
VERTEX
8
OBJECT134
10
0
20
0
30
0
70
128
71
-8
72
4
73
5
0
SEQEND
8
OBJECT134
0
POLYLINE
8
OBJECT135
66
1
70
64
71
8
72
12
62
50
0
VERTEX
8
OBJECT135
10
839.856445
20
-64.000000
30
337.093750
70
192
0
VERTEX
8
OBJECT135
10
831.574219
20
-96.000000
30
368.000000
70
192
0
VERTEX
8
OBJECT135
10
522.474976
20
-96.000000
30
285.178680
70
192
0
VERTEX
8
OBJECT135
10
530.757690
20
-64.000000
30
254.268585
70
192
0
VERTEX
8
OBJECT135
10
534.899414
20
-64.000000
30
238.812500
70
192
0
VERTEX
8
OBJECT135
10
525.582031
20
-96.000000
30
273.585938
70
192
0
VERTEX
8
OBJECT135
10
834.683105
20
-96.000000
30
356.408813
70
192
0
VERTEX
8
OBJECT135
10
844.000000
20
-64.000000
30
321.634644
70
192
0
VERTEX
8
OBJECT135
10
0
20
0
30
0
70
128
71
2
72
3
73
-4
0
VERTEX
8
OBJECT135
10
0
20
0
30
0
70
128
71
-2
72
4
73
1
0
VERTEX
8
OBJECT135
10
0
20
0
30
0
70
128
71
6
72
7
73
-8
0
VERTEX
8
OBJECT135
10
0
20
0
30
0
70
128
71
-6
72
8
73
5
0
VERTEX
8
OBJECT135
10
0
20
0
30
0
70
128
71
3
72
6
73
-5
0
VERTEX
8
OBJECT135
10
0
20
0
30
0
70
128
71
-3
72
5
73
4
0
VERTEX
8
OBJECT135
10
0
20
0
30
0
70
128
71
1
72
8
73
-7
0
VERTEX
8
OBJECT135
10
0
20
0
30
0
70
128
71
-1
72
7
73
2
0
VERTEX
8
OBJECT135
10
0
20
0
30
0
70
128
71
6
72
3
73
-2
0
VERTEX
8
OBJECT135
10
0
20
0
30
0
70
128
71
-6
72
2
73
7
0
VERTEX
8
OBJECT135
10
0
20
0
30
0
70
128
71
8
72
1
73
-4
0
VERTEX
8
OBJECT135
10
0
20
0
30
0
70
128
71
-8
72
4
73
5
0
SEQEND
8
OBJECT135
0
POLYLINE
8
OBJECT136
66
1
70
64
71
8
72
12
62
50
0
VERTEX
8
OBJECT136
10
530.756836
20
-352.000000
30
254.265625
70
192
0
VERTEX
8
OBJECT136
10
522.474609
20
-320.000000
30
285.175781
70
192
0
VERTEX
8
OBJECT136
10
831.577026
20
-320.000000
30
368.000000
70
192
0
VERTEX
8
OBJECT136
10
839.859009
20
-352.000000
30
337.090393
70
192
0
VERTEX
8
OBJECT136
10
844.000000
20
-352.000000
30
321.632813
70
192
0
VERTEX
8
OBJECT136
10
834.680664
20
-320.000000
30
356.406250
70
192
0
VERTEX
8
OBJECT136
10
525.583496
20
-320.000000
30
273.585938
70
192
0
VERTEX
8
OBJECT136
10
534.901489
20
-352.000000
30
238.811920
70
192
0
VERTEX
8
OBJECT136
10
0
20
0
30
0
70
128
71
2
72
3
73
-4
0
VERTEX
8
OBJECT136
10
0
20
0
30
0
70
128
71
-2
72
4
73
1
0
VERTEX
8
OBJECT136
10
0
20
0
30
0
70
128
71
6
72
7
73
-8
0
VERTEX
8
OBJECT136
10
0
20
0
30
0
70
128
71
-6
72
8
73
5
0
VERTEX
8
OBJECT136
10
0
20
0
30
0
70
128
71
1
72
8
73
-7
0
VERTEX
8
OBJECT136
10
0
20
0
30
0
70
128
71
-1
72
7
73
2
0
VERTEX
8
OBJECT136
10
0
20
0
30
0
70
128
71
3
72
6
73
-5
0
VERTEX
8
OBJECT136
10
0
20
0
30
0
70
128
71
-3
72
5
73
4
0
VERTEX
8
OBJECT136
10
0
20
0
30
0
70
128
71
6
72
3
73
-2
0
VERTEX
8
OBJECT136
10
0
20
0
30
0
70
128
71
-6
72
2
73
7
0
VERTEX
8
OBJECT136
10
0
20
0
30
0
70
128
71
8
72
1
73
-4
0
VERTEX
8
OBJECT136
10
0
20
0
30
0
70
128
71
-8
72
4
73
5
0
SEQEND
8
OBJECT136
0
POLYLINE
8
OBJECT137
66
1
70
64
71
8
72
12
62
50
0
VERTEX
8
OBJECT137
10
839.856445
20
-352.000000
30
337.093750
70
192
0
VERTEX
8
OBJECT137
10
831.574219
20
-384.000000
30
368.000000
70
192
0
VERTEX
8
OBJECT137
10
522.474976
20
-384.000000
30
285.178680
70
192
0
VERTEX
8
OBJECT137
10
530.757690
20
-352.000000
30
254.268585
70
192
0
VERTEX
8
OBJECT137
10
534.899414
20
-352.000000
30
238.812500
70
192
0
VERTEX
8
OBJECT137
10
525.582031
20
-384.000000
30
273.585938
70
192
0
VERTEX
8
OBJECT137
10
834.683105
20
-384.000000
30
356.408813
70
192
0
VERTEX
8
OBJECT137
10
844.000000
20
-352.000000
30
321.634644
70
192
0
VERTEX
8
OBJECT137
10
0
20
0
30
0
70
128
71
2
72
3
73
-4
0
VERTEX
8
OBJECT137
10
0
20
0
30
0
70
128
71
-2
72
4
73
1
0
VERTEX
8
OBJECT137
10
0
20
0
30
0
70
128
71
6
72
7
73
-8
0
VERTEX
8
OBJECT137
10
0
20
0
30
0
70
128
71
-6
72
8
73
5
0
VERTEX
8
OBJECT137
10
0
20
0
30
0
70
128
71
3
72
6
73
-5
0
VERTEX
8
OBJECT137
10
0
20
0
30
0
70
128
71
-3
72
5
73
4
0
VERTEX
8
OBJECT137
10
0
20
0
30
0
70
128
71
1
72
8
73
-7
0
VERTEX
8
OBJECT137
10
0
20
0
30
0
70
128
71
-1
72
7
73
2
0
VERTEX
8
OBJECT137
10
0
20
0
30
0
70
128
71
6
72
3
73
-2
0
VERTEX
8
OBJECT137
10
0
20
0
30
0
70
128
71
-6
72
2
73
7
0
VERTEX
8
OBJECT137
10
0
20
0
30
0
70
128
71
8
72
1
73
-4
0
VERTEX
8
OBJECT137
10
0
20
0
30
0
70
128
71
-8
72
4
73
5
0
SEQEND
8
OBJECT137
0
POLYLINE
8
OBJECT138
66
1
70
64
71
8
72
12
62
50
0
VERTEX
8
OBJECT138
10
498.756836
20
-640.000000
30
254.265625
70
192
0
VERTEX
8
OBJECT138
10
490.474609
20
-608.000000
30
285.175781
70
192
0
VERTEX
8
OBJECT138
10
799.577026
20
-608.000000
30
368.000000
70
192
0
VERTEX
8
OBJECT138
10
807.859009
20
-640.000000
30
337.090393
70
192
0
VERTEX
8
OBJECT138
10
812.000000
20
-640.000000
30
321.632813
70
192
0
VERTEX
8
OBJECT138
10
802.680664
20
-608.000000
30
356.406250
70
192
0
VERTEX
8
OBJECT138
10
493.583496
20
-608.000000
30
273.585938
70
192
0
VERTEX
8
OBJECT138
10
502.901489
20
-640.000000
30
238.811920
70
192
0
VERTEX
8
OBJECT138
10
0
20
0
30
0
70
128
71
2
72
3
73
-4
0
VERTEX
8
OBJECT138
10
0
20
0
30
0
70
128
71
-2
72
4
73
1
0
VERTEX
8
OBJECT138
10
0
20
0
30
0
70
128
71
6
72
7
73
-8
0
VERTEX
8
OBJECT138
10
0
20
0
30
0
70
128
71
-6
72
8
73
5
0
VERTEX
8
OBJECT138
10
0
20
0
30
0
70
128
71
1
72
8
73
-7
0
VERTEX
8
OBJECT138
10
0
20
0
30
0
70
128
71
-1
72
7
73
2
0
VERTEX
8
OBJECT138
10
0
20
0
30
0
70
128
71
3
72
6
73
-5
0
VERTEX
8
OBJECT138
10
0
20
0
30
0
70
128
71
-3
72
5
73
4
0
VERTEX
8
OBJECT138
10
0
20
0
30
0
70
128
71
6
72
3
73
-2
0
VERTEX
8
OBJECT138
10
0
20
0
30
0
70
128
71
-6
72
2
73
7
0
VERTEX
8
OBJECT138
10
0
20
0
30
0
70
128
71
8
72
1
73
-4
0
VERTEX
8
OBJECT138
10
0
20
0
30
0
70
128
71
-8
72
4
73
5
0
SEQEND
8
OBJECT138
0
POLYLINE
8
OBJECT139
66
1
70
64
71
8
72
12
62
50
0
VERTEX
8
OBJECT139
10
807.856445
20
-640.000000
30
337.093750
70
192
0
VERTEX
8
OBJECT139
10
799.574219
20
-672.000000
30
368.000000
70
192
0
VERTEX
8
OBJECT139
10
490.474976
20
-672.000000
30
285.178680
70
192
0
VERTEX
8
OBJECT139
10
498.757690
20
-640.000000
30
254.268585
70
192
0
VERTEX
8
OBJECT139
10
502.899414
20
-640.000000
30
238.812500
70
192
0
VERTEX
8
OBJECT139
10
493.582031
20
-672.000000
30
273.585938
70
192
0
VERTEX
8
OBJECT139
10
802.683105
20
-672.000000
30
356.408813
70
192
0
VERTEX
8
OBJECT139
10
812.000000
20
-640.000000
30
321.634644
70
192
0
VERTEX
8
OBJECT139
10
0
20
0
30
0
70
128
71
2
72
3
73
-4
0
VERTEX
8
OBJECT139
10
0
20
0
30
0
70
128
71
-2
72
4
73
1
0
VERTEX
8
OBJECT139
10
0
20
0
30
0
70
128
71
6
72
7
73
-8
0
VERTEX
8
OBJECT139
10
0
20
0
30
0
70
128
71
-6
72
8
73
5
0
VERTEX
8
OBJECT139
10
0
20
0
30
0
70
128
71
3
72
6
73
-5
0
VERTEX
8
OBJECT139
10
0
20
0
30
0
70
128
71
-3
72
5
73
4
0
VERTEX
8
OBJECT139
10
0
20
0
30
0
70
128
71
1
72
8
73
-7
0
VERTEX
8
OBJECT139
10
0
20
0
30
0
70
128
71
-1
72
7
73
2
0
VERTEX
8
OBJECT139
10
0
20
0
30
0
70
128
71
6
72
3
73
-2
0
VERTEX
8
OBJECT139
10
0
20
0
30
0
70
128
71
-6
72
2
73
7
0
VERTEX
8
OBJECT139
10
0
20
0
30
0
70
128
71
8
72
1
73
-4
0
VERTEX
8
OBJECT139
10
0
20
0
30
0
70
128
71
-8
72
4
73
5
0
SEQEND
8
OBJECT139
0
POLYLINE
8
OBJECT140
66
1
70
64
71
8
72
12
62
50
0
VERTEX
8
OBJECT140
10
498.756836
20
-928.000000
30
254.265625
70
192
0
VERTEX
8
OBJECT140
10
490.474609
20
-896.000000
30
285.175781
70
192
0
VERTEX
8
OBJECT140
10
799.577026
20
-896.000000
30
368.000000
70
192
0
VERTEX
8
OBJECT140
10
807.859009
20
-928.000000
30
337.090393
70
192
0
VERTEX
8
OBJECT140
10
812.000000
20
-928.000000
30
321.632813
70
192
0
VERTEX
8
OBJECT140
10
802.680664
20
-896.000000
30
356.406250
70
192
0
VERTEX
8
OBJECT140
10
493.583496
20
-896.000000
30
273.585938
70
192
0
VERTEX
8
OBJECT140
10
502.901489
20
-928.000000
30
238.811920
70
192
0
VERTEX
8
OBJECT140
10
0
20
0
30
0
70
128
71
2
72
3
73
-4
0
VERTEX
8
OBJECT140
10
0
20
0
30
0
70
128
71
-2
72
4
73
1
0
VERTEX
8
OBJECT140
10
0
20
0
30
0
70
128
71
6
72
7
73
-8
0
VERTEX
8
OBJECT140
10
0
20
0
30
0
70
128
71
-6
72
8
73
5
0
VERTEX
8
OBJECT140
10
0
20
0
30
0
70
128
71
1
72
8
73
-7
0
VERTEX
8
OBJECT140
10
0
20
0
30
0
70
128
71
-1
72
7
73
2
0
VERTEX
8
OBJECT140
10
0
20
0
30
0
70
128
71
3
72
6
73
-5
0
VERTEX
8
OBJECT140
10
0
20
0
30
0
70
128
71
-3
72
5
73
4
0
VERTEX
8
OBJECT140
10
0
20
0
30
0
70
128
71
6
72
3
73
-2
0
VERTEX
8
OBJECT140
10
0
20
0
30
0
70
128
71
-6
72
2
73
7
0
VERTEX
8
OBJECT140
10
0
20
0
30
0
70
128
71
8
72
1
73
-4
0
VERTEX
8
OBJECT140
10
0
20
0
30
0
70
128
71
-8
72
4
73
5
0
SEQEND
8
OBJECT140
0
POLYLINE
8
OBJECT141
66
1
70
64
71
8
72
12
62
50
0
VERTEX
8
OBJECT141
10
807.856445
20
-928.000000
30
337.093750
70
192
0
VERTEX
8
OBJECT141
10
799.574219
20
-960.000000
30
368.000000
70
192
0
VERTEX
8
OBJECT141
10
490.474976
20
-960.000000
30
285.178680
70
192
0
VERTEX
8
OBJECT141
10
498.757690
20
-928.000000
30
254.268585
70
192
0
VERTEX
8
OBJECT141
10
502.899414
20
-928.000000
30
238.812500
70
192
0
VERTEX
8
OBJECT141
10
493.582031
20
-960.000000
30
273.585938
70
192
0
VERTEX
8
OBJECT141
10
802.683105
20
-960.000000
30
356.408813
70
192
0
VERTEX
8
OBJECT141
10
812.000000
20
-928.000000
30
321.634644
70
192
0
VERTEX
8
OBJECT141
10
0
20
0
30
0
70
128
71
2
72
3
73
-4
0
VERTEX
8
OBJECT141
10
0
20
0
30
0
70
128
71
-2
72
4
73
1
0
VERTEX
8
OBJECT141
10
0
20
0
30
0
70
128
71
6
72
7
73
-8
0
VERTEX
8
OBJECT141
10
0
20
0
30
0
70
128
71
-6
72
8
73
5
0
VERTEX
8
OBJECT141
10
0
20
0
30
0
70
128
71
3
72
6
73
-5
0
VERTEX
8
OBJECT141
10
0
20
0
30
0
70
128
71
-3
72
5
73
4
0
VERTEX
8
OBJECT141
10
0
20
0
30
0
70
128
71
1
72
8
73
-7
0
VERTEX
8
OBJECT141
10
0
20
0
30
0
70
128
71
-1
72
7
73
2
0
VERTEX
8
OBJECT141
10
0
20
0
30
0
70
128
71
6
72
3
73
-2
0
VERTEX
8
OBJECT141
10
0
20
0
30
0
70
128
71
-6
72
2
73
7
0
VERTEX
8
OBJECT141
10
0
20
0
30
0
70
128
71
8
72
1
73
-4
0
VERTEX
8
OBJECT141
10
0
20
0
30
0
70
128
71
-8
72
4
73
5
0
SEQEND
8
OBJECT141
0
POLYLINE
8
OBJECT142
66
1
70
64
71
8
72
12
62
50
0
VERTEX
8
OBJECT142
10
498.756836
20
-1152.000000
30
254.265625
70
192
0
VERTEX
8
OBJECT142
10
490.474609
20
-1120.000000
30
285.175781
70
192
0
VERTEX
8
OBJECT142
10
799.577026
20
-1120.000000
30
368.000000
70
192
0
VERTEX
8
OBJECT142
10
807.859009
20
-1152.000000
30
337.090393
70
192
0
VERTEX
8
OBJECT142
10
812.000000
20
-1152.000000
30
321.632813
70
192
0
VERTEX
8
OBJECT142
10
802.680664
20
-1120.000000
30
356.406250
70
192
0
VERTEX
8
OBJECT142
10
493.583496
20
-1120.000000
30
273.585938
70
192
0
VERTEX
8
OBJECT142
10
502.901489
20
-1152.000000
30
238.811920
70
192
0
VERTEX
8
OBJECT142
10
0
20
0
30
0
70
128
71
2
72
3
73
-4
0
VERTEX
8
OBJECT142
10
0
20
0
30
0
70
128
71
-2
72
4
73
1
0
VERTEX
8
OBJECT142
10
0
20
0
30
0
70
128
71
6
72
7
73
-8
0
VERTEX
8
OBJECT142
10
0
20
0
30
0
70
128
71
-6
72
8
73
5
0
VERTEX
8
OBJECT142
10
0
20
0
30
0
70
128
71
1
72
8
73
-7
0
VERTEX
8
OBJECT142
10
0
20
0
30
0
70
128
71
-1
72
7
73
2
0
VERTEX
8
OBJECT142
10
0
20
0
30
0
70
128
71
3
72
6
73
-5
0
VERTEX
8
OBJECT142
10
0
20
0
30
0
70
128
71
-3
72
5
73
4
0
VERTEX
8
OBJECT142
10
0
20
0
30
0
70
128
71
6
72
3
73
-2
0
VERTEX
8
OBJECT142
10
0
20
0
30
0
70
128
71
-6
72
2
73
7
0
VERTEX
8
OBJECT142
10
0
20
0
30
0
70
128
71
8
72
1
73
-4
0
VERTEX
8
OBJECT142
10
0
20
0
30
0
70
128
71
-8
72
4
73
5
0
SEQEND
8
OBJECT142
0
POLYLINE
8
OBJECT143
66
1
70
64
71
8
72
12
62
50
0
VERTEX
8
OBJECT143
10
807.856445
20
-1152.000000
30
337.093750
70
192
0
VERTEX
8
OBJECT143
10
799.574219
20
-1184.000000
30
368.000000
70
192
0
VERTEX
8
OBJECT143
10
490.474976
20
-1184.000000
30
285.178680
70
192
0
VERTEX
8
OBJECT143
10
498.757690
20
-1152.000000
30
254.268585
70
192
0
VERTEX
8
OBJECT143
10
502.899414
20
-1152.000000
30
238.812500
70
192
0
VERTEX
8
OBJECT143
10
493.582031
20
-1184.000000
30
273.585938
70
192
0
VERTEX
8
OBJECT143
10
802.683105
20
-1184.000000
30
356.408813
70
192
0
VERTEX
8
OBJECT143
10
812.000000
20
-1152.000000
30
321.634644
70
192
0
VERTEX
8
OBJECT143
10
0
20
0
30
0
70
128
71
2
72
3
73
-4
0
VERTEX
8
OBJECT143
10
0
20
0
30
0
70
128
71
-2
72
4
73
1
0
VERTEX
8
OBJECT143
10
0
20
0
30
0
70
128
71
6
72
7
73
-8
0
VERTEX
8
OBJECT143
10
0
20
0
30
0
70
128
71
-6
72
8
73
5
0
VERTEX
8
OBJECT143
10
0
20
0
30
0
70
128
71
3
72
6
73
-5
0
VERTEX
8
OBJECT143
10
0
20
0
30
0
70
128
71
-3
72
5
73
4
0
VERTEX
8
OBJECT143
10
0
20
0
30
0
70
128
71
1
72
8
73
-7
0
VERTEX
8
OBJECT143
10
0
20
0
30
0
70
128
71
-1
72
7
73
2
0
VERTEX
8
OBJECT143
10
0
20
0
30
0
70
128
71
6
72
3
73
-2
0
VERTEX
8
OBJECT143
10
0
20
0
30
0
70
128
71
-6
72
2
73
7
0
VERTEX
8
OBJECT143
10
0
20
0
30
0
70
128
71
8
72
1
73
-4
0
VERTEX
8
OBJECT143
10
0
20
0
30
0
70
128
71
-8
72
4
73
5
0
SEQEND
8
OBJECT143
0
POLYLINE
8
OBJECT144
66
1
70
64
71
8
72
12
62
50
0
VERTEX
8
OBJECT144
10
-540.291016
20
-896.000000
30
254.269531
70
192
0
VERTEX
8
OBJECT144
10
-532.000000
20
-928.000000
30
285.179688
70
192
0
VERTEX
8
OBJECT144
10
-841.095459
20
-928.000000
30
368.000000
70
192
0
VERTEX
8
OBJECT144
10
-849.378052
20
-896.000000
30
337.089661
70
192
0
VERTEX
8
OBJECT144
10
-853.520508
20
-896.000000
30
321.636719
70
192
0
VERTEX
8
OBJECT144
10
-844.202148
20
-928.000000
30
356.410156
70
192
0
VERTEX
8
OBJECT144
10
-535.110718
20
-928.000000
30
273.588806
70
192
0
VERTEX
8
OBJECT144
10
-544.427734
20
-896.000000
30
238.814804
70
192
0
VERTEX
8
OBJECT144
10
0
20
0
30
0
70
128
71
2
72
3
73
-4
0
VERTEX
8
OBJECT144
10
0
20
0
30
0
70
128
71
-2
72
4
73
1
0
VERTEX
8
OBJECT144
10
0
20
0
30
0
70
128
71
6
72
7
73
-8
0
VERTEX
8
OBJECT144
10
0
20
0
30
0
70
128
71
-6
72
8
73
5
0
VERTEX
8
OBJECT144
10
0
20
0
30
0
70
128
71
7
72
2
73
-1
0
VERTEX
8
OBJECT144
10
0
20
0
30
0
70
128
71
-7
72
1
73
8
0
VERTEX
8
OBJECT144
10
0
20
0
30
0
70
128
71
3
72
6
73
-5
0
VERTEX
8
OBJECT144
10
0
20
0
30
0
70
128
71
-3
72
5
73
4
0
VERTEX
8
OBJECT144
10
0
20
0
30
0
70
128
71
6
72
3
73
-2
0
VERTEX
8
OBJECT144
10
0
20
0
30
0
70
128
71
-6
72
2
73
7
0
VERTEX
8
OBJECT144
10
0
20
0
30
0
70
128
71
8
72
1
73
-4
0
VERTEX
8
OBJECT144
10
0
20
0
30
0
70
128
71
-8
72
4
73
5
0
SEQEND
8
OBJECT144
0
POLYLINE
8
OBJECT145
66
1
70
64
71
8
72
12
62
50
0
VERTEX
8
OBJECT145
10
-849.380859
20
-896.000000
30
337.082031
70
192
0
VERTEX
8
OBJECT145
10
-841.097656
20
-864.000000
30
368.000000
70
192
0
VERTEX
8
OBJECT145
10
-532.000000
20
-864.000000
30
285.174133
70
192
0
VERTEX
8
OBJECT145
10
-540.285400
20
-896.000000
30
254.264053
70
192
0
VERTEX
8
OBJECT145
10
-544.423828
20
-896.000000
30
238.812500
70
192
0
VERTEX
8
OBJECT145
10
-535.106445
20
-864.000000
30
273.585938
70
192
0
VERTEX
8
OBJECT145
10
-844.202209
20
-864.000000
30
356.408325
70
192
0
VERTEX
8
OBJECT145
10
-853.520386
20
-896.000000
30
321.634644
70
192
0
VERTEX
8
OBJECT145
10
0
20
0
30
0
70
128
71
2
72
3
73
-4
0
VERTEX
8
OBJECT145
10
0
20
0
30
0
70
128
71
-2
72
4
73
1
0
VERTEX
8
OBJECT145
10
0
20
0
30
0
70
128
71
6
72
7
73
-8
0
VERTEX
8
OBJECT145
10
0
20
0
30
0
70
128
71
-6
72
8
73
5
0
VERTEX
8
OBJECT145
10
0
20
0
30
0
70
128
71
3
72
6
73
-5
0
VERTEX
8
OBJECT145
10
0
20
0
30
0
70
128
71
-3
72
5
73
4
0
VERTEX
8
OBJECT145
10
0
20
0
30
0
70
128
71
1
72
8
73
-7
0
VERTEX
8
OBJECT145
10
0
20
0
30
0
70
128
71
-1
72
7
73
2
0
VERTEX
8
OBJECT145
10
0
20
0
30
0
70
128
71
6
72
3
73
-2
0
VERTEX
8
OBJECT145
10
0
20
0
30
0
70
128
71
-6
72
2
73
7
0
VERTEX
8
OBJECT145
10
0
20
0
30
0
70
128
71
8
72
1
73
-4
0
VERTEX
8
OBJECT145
10
0
20
0
30
0
70
128
71
-8
72
4
73
5
0
SEQEND
8
OBJECT145
0
POLYLINE
8
OBJECT146
66
1
70
64
71
8
72
12
62
50
0
VERTEX
8
OBJECT146
10
-524.283203
20
-1184.000000
30
254.269531
70
192
0
VERTEX
8
OBJECT146
10
-516.000000
20
-1216.000000
30
285.179688
70
192
0
VERTEX
8
OBJECT146
10
-825.094910
20
-1216.000000
30
368.000000
70
192
0
VERTEX
8
OBJECT146
10
-833.377502
20
-1184.000000
30
337.091919
70
192
0
VERTEX
8
OBJECT146
10
-837.520508
20
-1184.000000
30
321.632813
70
192
0
VERTEX
8
OBJECT146
10
-828.202148
20
-1216.000000
30
356.406250
70
192
0
VERTEX
8
OBJECT146
10
-519.102783
20
-1216.000000
30
273.583588
70
192
0
VERTEX
8
OBJECT146
10
-528.419800
20
-1184.000000
30
238.809601
70
192
0
VERTEX
8
OBJECT146
10
0
20
0
30
0
70
128
71
2
72
3
73
-4
0
VERTEX
8
OBJECT146
10
0
20
0
30
0
70
128
71
-2
72
4
73
1
0
VERTEX
8
OBJECT146
10
0
20
0
30
0
70
128
71
6
72
7
73
-8
0
VERTEX
8
OBJECT146
10
0
20
0
30
0
70
128
71
-6
72
8
73
5
0
VERTEX
8
OBJECT146
10
0
20
0
30
0
70
128
71
7
72
2
73
-1
0
VERTEX
8
OBJECT146
10
0
20
0
30
0
70
128
71
-7
72
1
73
8
0
VERTEX
8
OBJECT146
10
0
20
0
30
0
70
128
71
3
72
6
73
-5
0
VERTEX
8
OBJECT146
10
0
20
0
30
0
70
128
71
-3
72
5
73
4
0
VERTEX
8
OBJECT146
10
0
20
0
30
0
70
128
71
6
72
3
73
-2
0
VERTEX
8
OBJECT146
10
0
20
0
30
0
70
128
71
-6
72
2
73
7
0
VERTEX
8
OBJECT146
10
0
20
0
30
0
70
128
71
8
72
1
73
-4
0
VERTEX
8
OBJECT146
10
0
20
0
30
0
70
128
71
-8
72
4
73
5
0
SEQEND
8
OBJECT146
0
POLYLINE
8
OBJECT147
66
1
70
64
71
8
72
12
62
50
0
VERTEX
8
OBJECT147
10
-833.373047
20
-1184.000000
30
337.089844
70
192
0
VERTEX
8
OBJECT147
10
-825.090820
20
-1152.000000
30
368.000000
70
192
0
VERTEX
8
OBJECT147
10
-516.000000
20
-1152.000000
30
285.178192
70
192
0
VERTEX
8
OBJECT147
10
-524.284058
20
-1184.000000
30
254.268143
70
192
0
VERTEX
8
OBJECT147
10
-528.425781
20
-1184.000000
30
238.812500
70
192
0
VERTEX
8
OBJECT147
10
-519.108398
20
-1152.000000
30
273.585938
70
192
0
VERTEX
8
OBJECT147
10
-828.201904
20
-1152.000000
30
356.409363
70
192
0
VERTEX
8
OBJECT147
10
-837.520081
20
-1184.000000
30
321.635712
70
192
0
VERTEX
8
OBJECT147
10
0
20
0
30
0
70
128
71
2
72
3
73
-4
0
VERTEX
8
OBJECT147
10
0
20
0
30
0
70
128
71
-2
72
4
73
1
0
VERTEX
8
OBJECT147
10
0
20
0
30
0
70
128
71
6
72
7
73
-8
0
VERTEX
8
OBJECT147
10
0
20
0
30
0
70
128
71
-6
72
8
73
5
0
VERTEX
8
OBJECT147
10
0
20
0
30
0
70
128
71
3
72
6
73
-5
0
VERTEX
8
OBJECT147
10
0
20
0
30
0
70
128
71
-3
72
5
73
4
0
VERTEX
8
OBJECT147
10
0
20
0
30
0
70
128
71
1
72
8
73
-7
0
VERTEX
8
OBJECT147
10
0
20
0
30
0
70
128
71
-1
72
7
73
2
0
VERTEX
8
OBJECT147
10
0
20
0
30
0
70
128
71
6
72
3
73
-2
0
VERTEX
8
OBJECT147
10
0
20
0
30
0
70
128
71
-6
72
2
73
7
0
VERTEX
8
OBJECT147
10
0
20
0
30
0
70
128
71
8
72
1
73
-4
0
VERTEX
8
OBJECT147
10
0
20
0
30
0
70
128
71
-8
72
4
73
5
0
SEQEND
8
OBJECT147
0
POLYLINE
8
OBJECT148
66
1
70
64
71
8
72
12
62
50
0
VERTEX
8
OBJECT148
10
-572.276367
20
192.000000
30
254.269531
70
192
0
VERTEX
8
OBJECT148
10
-564.000000
20
160.000000
30
285.179688
70
192
0
VERTEX
8
OBJECT148
10
-873.096191
20
160.000000
30
368.000000
70
192
0
VERTEX
8
OBJECT148
10
-881.378052
20
192.000000
30
337.089905
70
192
0
VERTEX
8
OBJECT148
10
-885.519531
20
192.000000
30
321.636719
70
192
0
VERTEX
8
OBJECT148
10
-876.202148
20
160.000000
30
356.410156
70
192
0
VERTEX
8
OBJECT148
10
-567.106873
20
160.000000
30
273.587708
70
192
0
VERTEX
8
OBJECT148
10
-576.423889
20
192.000000
30
238.813705
70
192
0
VERTEX
8
OBJECT148
10
0
20
0
30
0
70
128
71
2
72
3
73
-4
0
VERTEX
8
OBJECT148
10
0
20
0
30
0
70
128
71
-2
72
4
73
1
0
VERTEX
8
OBJECT148
10
0
20
0
30
0
70
128
71
6
72
7
73
-8
0
VERTEX
8
OBJECT148
10
0
20
0
30
0
70
128
71
-6
72
8
73
5
0
VERTEX
8
OBJECT148
10
0
20
0
30
0
70
128
71
1
72
8
73
-7
0
VERTEX
8
OBJECT148
10
0
20
0
30
0
70
128
71
-1
72
7
73
2
0
VERTEX
8
OBJECT148
10
0
20
0
30
0
70
128
71
3
72
6
73
-5
0
VERTEX
8
OBJECT148
10
0
20
0
30
0
70
128
71
-3
72
5
73
4
0
VERTEX
8
OBJECT148
10
0
20
0
30
0
70
128
71
6
72
3
73
-2
0
VERTEX
8
OBJECT148
10
0
20
0
30
0
70
128
71
-6
72
2
73
7
0
VERTEX
8
OBJECT148
10
0
20
0
30
0
70
128
71
8
72
1
73
-4
0
VERTEX
8
OBJECT148
10
0
20
0
30
0
70
128
71
-8
72
4
73
5
0
SEQEND
8
OBJECT148
0
POLYLINE
8
OBJECT149
66
1
70
64
71
8
72
12
62
50
0
VERTEX
8
OBJECT149
10
-881.380859
20
192.000000
30
337.085938
70
192
0
VERTEX
8
OBJECT149
10
-873.099609
20
224.000000
30
368.000000
70
192
0
VERTEX
8
OBJECT149
10
-564.000000
20
224.000000
30
285.173767
70
192
0
VERTEX
8
OBJECT149
10
-572.279053
20
192.000000
30
254.263687
70
192
0
VERTEX
8
OBJECT149
10
-576.421875
20
192.000000
30
238.808594
70
192
0
VERTEX
8
OBJECT149
10
-567.104492
20
224.000000
30
273.582031
70
192
0
VERTEX
8
OBJECT149
10
-876.201599
20
224.000000
30
356.410461
70
192
0
VERTEX
8
OBJECT149
10
-885.518799
20
192.000000
30
321.636536
70
192
0
VERTEX
8
OBJECT149
10
0
20
0
30
0
70
128
71
2
72
3
73
-4
0
VERTEX
8
OBJECT149
10
0
20
0
30
0
70
128
71
-2
72
4
73
1
0
VERTEX
8
OBJECT149
10
0
20
0
30
0
70
128
71
6
72
7
73
-8
0
VERTEX
8
OBJECT149
10
0
20
0
30
0
70
128
71
-6
72
8
73
5
0
VERTEX
8
OBJECT149
10
0
20
0
30
0
70
128
71
3
72
6
73
-5
0
VERTEX
8
OBJECT149
10
0
20
0
30
0
70
128
71
-3
72
5
73
4
0
VERTEX
8
OBJECT149
10
0
20
0
30
0
70
128
71
1
72
8
73
-7
0
VERTEX
8
OBJECT149
10
0
20
0
30
0
70
128
71
-1
72
7
73
2
0
VERTEX
8
OBJECT149
10
0
20
0
30
0
70
128
71
6
72
3
73
-2
0
VERTEX
8
OBJECT149
10
0
20
0
30
0
70
128
71
-6
72
2
73
7
0
VERTEX
8
OBJECT149
10
0
20
0
30
0
70
128
71
8
72
1
73
-4
0
VERTEX
8
OBJECT149
10
0
20
0
30
0
70
128
71
-8
72
4
73
5
0
SEQEND
8
OBJECT149
0
ENDSEC
0
EOF
