# OBJ file exported from Hammer

g default
v 116 -188 12
v -128 -192 36
v 136 -200 -56
v -136 -200 -56
v -120 -188 12
v -128 -192 -36
v 116 -188 -12
v 128 -192 36
v 128 -192 -36
v 128 -192 36
v 136 -200 56
v -136 -200 56
v -128 -192 36
v -120 -188 -12
v -128 -224 64
v -144 -288 64
v -128 -288 -64
v -128 -224 -64
v -128 -336 -56
v -144 -224 -64
v -144 -288 -64
v -144 -224 64
v -128 -200 -56
v -144 -208 -64
v -128 -208 64
v -136 -200 56
v -128 -208 -64
v -144 -208 64
v -128 -200 56
v -128 -288 64
v -128 -328 64
v -128 -336 56
v -136 -336 56
v -128 -328 -64
v -144 -328 64
v -144 -328 -64
v -136 -336 -56
v -144 -288 50
v -144 -224 50
v -144 -224 -50
v -144 -288 -50
v -143 -288 -50
v -143 -288 50
v -143 -224 50
v -143 -224 -50

vn 0 0 -0
vn 0.707107 0.707107 -0
vn 0 0.928477 0.371391
vn -0.707107 0.707107 -0
vn 0 0 -0
vn -0.153158 0.986597 0.0563018
vn 0.106955 0.992708 0.0556034
vn 0.106955 0.992708 -0.0556034
vn 0.107914 0.977202 -0.182841
vn 0.707107 0.707107 -0
vn 0.707107 0.707107 -0
vn 0 0 -0
vn -0.707107 0.707107 -0
vn -0.707107 0.707107 -0
vn -0.154495 0.970501 -0.185094
vn 0 0 -0
vn 0 0.986394 0.164399
vn 0.106955 0.992708 0.0556034
vn 0 0 -0
vn 0 0.986394 0.164399
vn 0 0.928477 0.371391
vn 0 0.928477 0.371391
vn 0 0.928477 0.371391
vn 0 0 -0
vn 0 0 -0
vn 0.707107 0.707107 -0
vn 0 0 -0
vn 0 0.928477 -0.371391
vn 0.106955 0.992708 -0.0556034
vn 0.107914 0.977202 -0.182841
vn 0 0 -0
vn -0.154495 0.970501 -0.185094
vn -0.153158 0.986597 0.0563018
vn -0.153158 0.986597 0.0563018
vn -0.153158 0.986597 -0.0563018
vn -0.447214 0.894427 -0
vn 0.316228 0.948683 -0
vn 0.107914 0.977202 -0.182841
vn 0 0 -0
vn 0 0 -0
vn 0 0 -0
vn 0 0 -0
vn 0 0 -0
vn 0 0.928477 -0.371391
vn 0.106955 0.992708 0.0556034
vn 0.106955 0.992708 -0.0556034
vn -0.153158 0.986597 -0.0563018
vn 0 0 -0
vn 0 0 -0
vn 0 0 -0
vn -0.154495 0.970501 -0.185094
vn -0.153158 0.986597 -0.0563018
vn 0 0 -0
vn -0.707107 0.707107 -0
vn 0 0 -1
vn 0 0 1
vn 0 0 -0
vn 0 0 -1
vn 0 0 1
vn 0 0 -1
vn -1 0 -0
vn 0 0 1
vn 0 0 1
vn 0 0 -0
vn -0.707107 -0.707107 -0
vn -1 0 -0
vn 0 0 1
vn 0 0 1
vn 0 0 -1
vn 0 0 -0
vn 0 0.707107 -0.707107
vn -1 0 -0
vn 0 0 -1
vn -0.707107 0.707107 -0
vn -0.707107 0.707107 -0
vn 0 0 -0
vn 0 0.707107 0.707107
vn 0 0 1
vn -1 0 -0
vn 0 0 -1
vn 0 0.707107 -0.707107
vn 0 0 -1
vn -1 0 -0
vn 0 0 1
vn 0 0 1
vn 0 0.707107 -0.707107
vn 0 0 -1
vn -1 0 -0
vn 0 0.707107 0.707107
vn 0 0 -0
vn -0.707107 0.707107 -0
vn -0.707107 0.707107 -0
vn -1 0 -0
vn 0 0.707107 0.707107
vn 0 0 -0
vn 0 0.707107 -0.707107
vn 0 0.707107 0.707107
vn -1 0 -0
vn 0 0 -0
vn 0 0 -1
vn 0 0 -0
vn 0 0 -0
vn -0.707107 -0.707107 -0
vn 0 0 1
vn 0 -0.707107 0.707107
vn 0 -1 -0
vn 0 -0.707107 -0.707107
vn 0 0 -1
vn 0 0 -0
vn 0 0 -1
vn -0.707107 -0.707107 -0
vn 0 0 1
vn 0 -1 -0
vn 0 -0.707107 0.707107
vn 0 -1 -0
vn 0 0 -0
vn -1 0 -0
vn 0 -0.707107 -0.707107
vn 0 -0.707107 -0.707107
vn 0 -0.707107 0.707107
vn -1 0 -0
vn 0 -0.707107 -0.707107
vn -0.707107 -0.707107 -0
vn -1 0 -0
vn 0 0 -0
vn 0 0 -0
vn 0 0 -1
vn -1 0 -0
vn 0 0 1
vn 0 0 -0
vn 0 -1 -0
vn 0 -0.707107 0.707107
vn -1 0 -0
vn -1 0 -0
vn 0 -1 -0
vn -1 0 -0
vn 0 0 -1
vn -1 0 -0
vn -1 0 -0
vn -1 0 -0
vn 0 1 -0
vn -1 0 -0
vn -1 0 -0
vn 0 0 1
vn -1 0 -0
vn 0 1 -0
vn -1 0 -0
vn 0 0 -1
vn -1 0 -0
vn 0 -1 -0
vn -1 0 -0
vn 0 0 1
vn 0 0 1
vn 0 1 -0
vn 0 0 1
vn 0 -1 -0
vn 0 1 -0
vn 0 0 -1
vn 0 0 -1
vn 0 -1 -0

vt 0 0
vt 0.109375 0.464039
vt 0.265625 0.246627
vt -0.109375 0.464039
vt 0 0
vt -0.234375 0.0834839
vt 0.331051 0.0234375
vt 0.226563 0.0834839
vt 0.25 0.131005
vt -0.0703125 0.441942
vt -0.109375 0.464039
vt 0 0
vt -0.0703125 0.441942
vt 0.0703125 0.441942
vt -0.25 0.204555
vt 0 0
vt 0.25 0.131005
vt 0.226563 0.0834839
vt 0 0
vt -0.25 0.131005
vt 0.25 0.204555
vt -0.25 0.204555
vt -0.265625 0.246627
vt 0 0
vt 0 0
vt 0.0703125 0.441942
vt 0 0
vt -0.265625 0.246627
vt 0.331051 -0.0234375
vt 0.25 0.204555
vt 0 0
vt -0.391312 -0.0703125
vt -0.373843 0.0234375
vt -0.234375 0.0234375
vt -0.234375 0.0834839
vt -0.391312 0.0703125
vt 0.355756 0.0703125
vt 0.355756 -0.0703125
vt 0 0
vt 0 0
vt 0 0
vt 0 0
vt 0 0
vt 0.265625 0.246627
vt 0.226563 0.0234375
vt 0.226563 -0.0234375
vt -0.234375 -0.0234375
vt 0 0
vt 0 0
vt 0 0
vt -0.25 0.131005
vt -0.373843 -0.0234375
vt 0 0
vt 0.109375 0.464039
vt -0.25 0.5625
vt -0.25 0.4375
vt 0 0
vt -0.25 0.5625
vt -0.28125 0.5625
vt -0.28125 0.4375
vt 0.125 0.640625
vt -0.28125 0.5625
vt -0.28125 0.4375
vt 0 0
vt -0.109375 0.276214
vt 0.125 0.5625
vt -0.25 0.4375
vt -0.25 0.5625
vt -0.28125 0.5625
vt 0 0
vt 0.28125 0.37565
vt -0.125 0.4375
vt -0.25 0.40625
vt -0.109375 0.464039
vt -0.125 0.486136
vt 0 0
vt -0.25 0.353553
vt -0.25 0.40625
vt 0.125 0.40625
vt -0.25 0.4375
vt 0.265625 0.353553
vt -0.28125 0.40625
vt -0.125 0.4375
vt -0.28125 0.4375
vt -0.28125 0.40625
vt 0.25 0.353553
vt -0.28125 0.4375
vt -0.125 0.40625
vt -0.25 0.37565
vt 0 0
vt 0.109375 0.464039
vt 0.125 0.486136
vt -0.0976563 0.4375
vt -0.265625 0.353553
vt 0 0
vt 0.25 0.37565
vt -0.28125 0.37565
vt 0.125 0.4375
vt 0 0
vt -0.25 0.4375
vt 0 0
vt 0 0
vt 0.109375 0.276214
vt -0.25 0.5625
vt -0.25 0.364602
vt -0.25 0.109375
vt 0.25 0.386699
vt -0.25 0.640625
vt 0 0
vt -0.28125 0.5625
vt -0.125 0.254116
vt -0.28125 0.640625
vt -0.25 -0.109375
vt -0.28125 0.364602
vt -0.265625 -0.109375
vt 0 0
vt 0.0976563 0.5625
vt 0.28125 0.364602
vt 0.25 0.364602
vt -0.265625 0.386699
vt -0.125 0.640625
vt 0.265625 0.386699
vt 0.125 0.254116
vt -0.125 0.5625
vt 0 0
vt 0 0
vt -0.28125 0.640625
vt 0.125 0.5625
vt -0.25 0.640625
vt 0 0
vt -0.265625 0.109375
vt -0.25 0.386699
vt -0.125 0.5625
vt -0.0976563 0.5625
vt -0.28125 -0.0976563
vt -0.0976563 0.4375
vt -0.28125 0.4375
vt -0.0976563 0.5625
vt 0.125 0.4375
vt 0.0976563 0.4375
vt -0.28125 0.0976563
vt 0.0976563 0.5625
vt 0.0976563 0.4375
vt -0.28125 0.5625
vt -0.0976563 0.5625
vt -0.279297 -0.0976563
vt -0.0976563 0.4375
vt -0.279297 0.5625
vt 0.0976563 0.4375
vt -0.279297 0.0976563
vt 0.0976563 0.5625
vt -0.279297 0.4375
vt -0.279297 0.5625
vt -0.28125 -0.0976563
vt -0.28125 0.4375
vt -0.279297 -0.0976563
vt -0.279297 0.0976563
vt -0.28125 0.5625
vt -0.279297 0.4375
vt -0.28125 0.0976563

s off
g mesh_20

f 40/143/143 20/139/139 21/66/66 41/117/117
f 5/34/34 1/45/45 7/46/46 14/47/47
f 9/26/26 10/10/10 11/11/11 3/2/2
f 13/13/13 6/14/14 4/54/54 12/4/4
f 10/17/17 1/18/18 5/6/6 13/20/20
f 8/21/21 2/22/22 12/23/23 11/3/3
f 9/30/30 3/44/44 4/28/28 6/15/15
f 9/9/9 6/51/51 14/35/35 7/8/8
f 5/33/33 14/52/52 6/32/32 2/36/36
f 8/37/37 9/38/38 7/29/29 1/7/7
f 18/100/100 17/58/58 21/69/69 20/60/60
f 22/63/63 16/62/62 30/68/68 15/56/56
f 26/74/74 4/91/91 24/92/92 28/75/75
f 24/79/79 20/98/98 40/140/140 39/136/136 22/83/83 28/88/88
f 27/73/73 18/80/80 20/87/87 24/82/82
f 28/85/85 22/84/84 15/67/67 25/78/78
f 4/81/81 23/86/86 27/96/96 24/71/71
f 26/94/94 28/97/97 25/89/89 29/77/77
f 37/65/65 33/103/103 35/123/123 36/111/111
f 21/128/128 36/61/61 35/121/121 16/124/124 38/134/134 41/142/142
f 16/59/59 35/112/112 31/129/129 30/104/104
f 17/55/55 34/108/108 36/127/127 21/110/110
f 37/115/115 19/113/113 32/106/106 33/131/131
f 34/119/119 19/107/107 37/122/122 36/118/118
f 35/114/114 33/120/120 32/132/132 31/105/105
f 38/138/138 16/133/133 22/72/72 39/93/93
f 40/155/155 41/144/144 42/153/153 45/152/152
f 42/151/151 43/145/145 44/147/147 45/149/149
f 41/154/154 38/141/141 43/157/157 42/146/146
f 38/158/158 39/137/137 44/159/159 43/148/148
f 39/160/160 40/135/135 45/156/156 44/150/150

g default
v 128 -200 56
v 128 -208 64
v 128 -208 -64
v 128 -224 -64
v 136 -200 56
v 136 -200 -56
v 144 -224 64
v 144 -208 64
v 144 -224 -64
v 144 -208 -64
v 128 -224 64
v 128 -200 -56

vn 0 0.707107 0.707107
vn 0 0 -0
vn 0 0.707107 -0.707107
vn 0 0 -1
vn 1 0 -0
vn 0 0 1
vn 0 0.707107 0.707107
vn 0 0 1
vn 0 0 -0
vn 0 0 -1
vn 0 0 -1
vn 0.707107 0.707107 -0
vn 0 0 -0
vn 1 0 -0
vn 0 0.707107 -0.707107
vn 0 0 -0
vn 1 0 -0
vn 0.707107 0.707107 -0
vn 0 0 -1
vn 0 0 1
vn 0 0.707107 -0.707107
vn 0 0 -0
vn 0 0.707107 0.707107
vn 0.707107 0.707107 -0
vn 0 0.707107 -0.707107
vn 1 0 -0
vn 0 0 -0
vn 0 0 -0
vn 0 0 -0
vn 0 0 1
vn 0 0.707107 0.707107
vn 0.707107 0.707107 -0
vn 0 0 -0
vn 0 0 -0

vt 0.28125 0.37565
vt 0 0
vt -0.25 0.353553
vt 0.25 0.40625
vt -0.125 0.40625
vt 0.25 0.4375
vt 0.265625 0.353553
vt 0.28125 0.40625
vt 0 0
vt 0.28125 0.4375
vt 0.28125 0.40625
vt 0.125 0.486136
vt 0 0
vt 0.125 0.40625
vt -0.25 0.37565
vt 0 0
vt -0.125 0.4375
vt -0.125 0.486136
vt 0.25 0.4375
vt 0.28125 0.4375
vt -0.28125 0.37565
vt 0 0
vt 0.25 0.37565
vt -0.109375 0.464039
vt -0.265625 0.353553
vt 0.125 0.4375
vt 0 0
vt 0 0
vt 0 0
vt 0.25 0.40625
vt 0.25 0.353553
vt 0.109375 0.464039
vt 0 0
vt 0 0

s off
g mesh_7

f 53/165/165 52/177/177 54/186/186 55/174/174
f 47/190/190 56/166/166 52/180/180 53/168/168
f 55/171/171 54/170/170 49/179/179 48/164/164
f 50/167/167 46/191/191 47/183/183 53/161/161
f 51/185/185 55/181/181 48/175/175 57/163/163
f 51/192/192 50/184/184 53/178/178 55/172/172

g default
v 128 -224 -64
v 144 -288 64
v 128 -288 64
v 128 -224 64
v 144 -224 64
v 144 -224 -64
v 128 -288 -64
v 144 -288 -64

vn 0 0 1
vn 0 0 -1
vn 1 0 -0
vn 0 0 1
vn 0 0 1
vn 0 0 1
vn 0 0 -0
vn 0 0 -1
vn 0 0 -0
vn 1 0 -0
vn 1 0 -0
vn 0 0 -0
vn 0 0 -1
vn 0 0 -0
vn 0 0 -0
vn 0 0 -0
vn 0 0 -1
vn 0 0 -0
vn 1 0 -0
vn 0 0 -0

vt 0.28125 0.5625
vt 0.25 0.4375
vt -0.125 0.4375
vt 0.25 0.5625
vt 0.25 0.4375
vt 0.28125 0.4375
vt 0 0
vt 0.28125 0.5625
vt 0 0
vt 0.125 0.4375
vt 0.125 0.5625
vt 0 0
vt 0.28125 0.4375
vt 0 0
vt 0 0
vt 0 0
vt 0.25 0.5625
vt 0 0
vt -0.125 0.5625
vt 0 0

s off
g mesh_8

f 62/197/197 59/213/213 65/205/205 63/204/204
f 63/207/207 65/202/202 64/211/211 58/196/196
f 61/199/199 60/198/198 59/195/195 62/200/200

g default
v 128 -288 -64
v 128 -328 -64
v 136 -336 56
v 136 -336 -56
v 128 -328 64
v 144 -328 -64
v 128 -288 64
v 144 -288 64
v 128 -336 56
v 144 -288 -64
v 128 -336 -56
v 144 -328 64

vn 1 0 -0
vn 0 0 -1
vn 0 -0.707107 -0.707107
vn 0 -1 -0
vn 0 -0.707107 0.707107
vn 0 0 1
vn 0 0 -0
vn 0 0 1
vn 0.707107 -0.707107 -0
vn 0 0 -1
vn 0 0 -0
vn 0 -0.707107 -0.707107
vn 0 0 -1
vn 0 0 -0
vn 0 -0.707107 -0.707107
vn 0 -0.707107 0.707107
vn 0 -0.707107 0.707107
vn 0 -1 -0
vn 0 0 1
vn 1 0 -0
vn 0 0 -0
vn 0 0 -0
vn 1 0 -0
vn 0.707107 -0.707107 -0
vn 0 -0.707107 0.707107
vn 0.707107 -0.707107 -0
vn 0 0 -1
vn 0 0 -0
vn 0 -1 -0
vn 0 -0.707107 -0.707107
vn 0 0 1
vn 0 0 -0
vn 0 -1 -0
vn 0.707107 -0.707107 -0
vn 0 0 -0
vn 1 0 -0

vt 0.125 0.5625
vt 0.25 0.5625
vt -0.249999 0.364602
vt 0.25 -0.109375
vt 0.25 0.386699
vt 0.25 0.640625
vt 0 0
vt 0.28125 0.5625
vt -0.125 0.254116
vt 0.28125 0.640625
vt 0 0
vt -0.281249 0.364602
vt 0.28125 0.5625
vt 0 0
vt -0.265624 0.386699
vt 0.28125 0.364602
vt 0.25 0.364602
vt 0.265625 0.109375
vt 0.25 0.5625
vt -0.125 0.5625
vt 0 0
vt 0 0
vt -0.125 0.640625
vt 0.109375 0.276214
vt 0.265625 0.386699
vt 0.125 0.254116
vt 0.25 0.640625
vt 0 0
vt 0.265625 -0.109375
vt -0.249999 0.386699
vt 0.28125 0.640625
vt 0 0
vt 0.25 0.109375
vt -0.109375 0.276214
vt 0 0
vt 0.125 0.640625

s off
g mesh_9

f 73/234/234 77/237/237 71/250/250 75/215/215
f 75/227/227 71/224/224 67/241/241 66/216/216
f 72/233/233 70/220/220 77/245/245 73/222/222
f 69/243/243 68/232/232 74/247/247 76/218/218
f 71/226/226 69/229/229 76/244/244 67/217/217
f 70/231/231 74/219/219 68/239/239 77/230/230
f 68/248/248 69/238/238 71/240/240 77/223/223

g default
v -8 -200 -56
v -128 -200 56
v -8 -208 64
v -8 -224 64
v -8 -224 -64
v -128 -208 -64
v -8 -200 56
v -128 -200 -56
v -128 -224 -64
v -128 -208 64
v -128 -224 64
v -8 -208 -64

vn 0 0 1
vn 0 0 -1
vn 0 0.707107 0.707107
vn 0 0 1
vn 0 0 -0
vn 0 0 -1
vn 0 0 -0
vn 0 0 -0
vn 0 0.707107 -0.707107
vn 0 0 -1
vn 0 0.707107 -0.707107
vn 0 0 1
vn 0 0 -0
vn 0 0 -0
vn 0 0 -0
vn 0 0 -0
vn 0 0.707107 0.707107
vn 0 0 -0
vn 0 0 -0
vn 0 0 -1
vn 0 0 -0
vn 0 0.707107 0.707107
vn 0 0.707107 -0.707107
vn 0 0.707107 -0.707107
vn 0 0 -0
vn 0 0 -0
vn 0 0 1
vn 0 0.707107 0.707107

vt -0.25 0.40625
vt -0.015625 0.40625
vt -0.015625 0.353553
vt -0.015625 0.40625
vt 0 0
vt -0.015625 0.4375
vt 0 0
vt 0 0
vt 0.25 0.353553
vt -0.25 0.40625
vt 0.015625 0.37565
vt -0.25 0.4375
vt 0 0
vt 0 0
vt 0 0
vt 0 0
vt -0.015625 0.37565
vt 0 0
vt 0 0
vt -0.25 0.4375
vt 0 0
vt -0.25 0.353553
vt 0.015625 0.353553
vt 0.25 0.37565
vt 0 0
vt 0 0
vt -0.015625 0.4375
vt -0.25 0.37565

s off
g mesh_10

f 89/252/252 82/256/256 86/270/270 83/260/260
f 87/251/251 88/262/262 81/277/277 80/254/254
f 78/273/273 89/261/261 83/274/274 85/259/259
f 79/272/272 87/278/278 80/267/267 84/253/253

g default
v -8 -224 64
v -128 -288 64
v -8 -288 -64
v -8 -224 -64
v -8 -288 64
v -128 -224 -64
v -128 -288 -64
v -128 -224 64
v -128 -224 62
v -128 -288 62
v -8 -288 62
v -8 -224 62
v -8 -224 -62
v -8 -288 -62
v -128 -288 -62
v -128 -224 -62

vn 0 0 -1
vn 0 0 1
vn -1 0 -0
vn 1 0 -0
vn 0 0 -1
vn -1 0 -0
vn 1 0 -0
vn 0 0 1
vn 0 -1 -0
vn 0 -1 -0
vn 0 0 -1
vn 0 1 -0
vn 0 0 1
vn 0 0 1
vn 0 1 -0
vn 0 0 -1
vn 0 -1 -0
vn 0 0 -0
vn 0 -1 -0
vn 1 0 -0
vn 0 -1 -0
vn -1 0 -0
vn 1 0 -0
vn 0 0 -0
vn 1 0 -0
vn 0 1 -0
vn 0 1 -0
vn 0 0 -0
vn 0 1 -0
vn -1 0 -0
vn -1 0 -0
vn 0 0 -0
vn 0 -1 -0
vn 0 0 -0
vn 0 -1 -0
vn -1 0 -0
vn 0 -1 -0
vn 1 0 -0
vn -1 0 -0
vn 0 0 -0
vn -1 0 -0
vn 0 1 -0
vn 0 1 -0
vn 0 0 -0
vn 0 1 -0
vn 1 0 -0
vn 1 0 -0
vn 0 0 -0

vt -0.25 0.5625
vt -0.25 0.5625
vt -0.121094 0.5625
vt 0.121094 0.5625
vt -0.015625 0.5625
vt 0.121094 0.4375
vt -0.121094 0.4375
vt -0.015625 0.4375
vt -0.015625 0.121094
vt -0.25 -0.121094
vt -0.015625 0.4375
vt -0.25 0.121094
vt -0.25 0.4375
vt -0.015625 0.5625
vt -0.015625 -0.121094
vt -0.25 0.4375
vt -0.25 0.125
vt 0 0
vt -0.25 0.121094
vt -0.125 0.4375
vt -0.015625 0.125
vt -0.121094 0.4375
vt -0.125 0.5625
vt 0 0
vt -0.121094 0.5625
vt -0.25 0.125
vt -0.015625 0.125
vt 0 0
vt -0.015625 0.121094
vt -0.125 0.5625
vt -0.125 0.4375
vt 0 0
vt -0.015625 -0.125
vt 0 0
vt -0.015625 -0.121094
vt 0.125 0.4375
vt -0.25 -0.125
vt 0.121094 0.4375
vt 0.125 0.5625
vt 0 0
vt 0.121094 0.5625
vt -0.015625 -0.125
vt -0.25 -0.125
vt 0 0
vt -0.25 -0.121094
vt 0.125 0.5625
vt 0.125 0.4375
vt 0 0

s off
g mesh_11

f 90/299/299 97/295/295 98/297/297 101/287/287
f 94/308/308 90/309/309 101/300/300 100/281/281
f 102/289/289 103/283/283 104/279/279 105/294/294
f 95/315/315 93/311/311 102/313/313 105/288/288
f 97/298/298 91/301/301 99/303/303 98/285/285
f 91/304/304 94/305/305 100/307/307 99/290/290
f 98/291/291 99/280/280 100/292/292 101/286/286
f 93/314/314 92/317/317 103/319/319 102/284/284
f 92/320/320 96/321/321 104/323/323 103/293/293
f 96/324/324 95/325/325 105/316/316 104/282/282

g default
v -8 -288 64
v -128 -336 -56
v -8 -336 56
v -8 -336 -56
v -8 -328 -64
v -128 -336 56
v -128 -288 -64
v -128 -328 -64
v -8 -288 -64
v -8 -328 64
v -128 -328 64
v -128 -288 64

vn 0 -1 -0
vn 0 0 1
vn 0 -0.707107 0.707107
vn 0 -1 -0
vn 0 -0.707107 -0.707107
vn 0 0 -1
vn 0 0 -0
vn 0 0 -1
vn 0 -0.707107 -0.707107
vn 0 -1 -0
vn 0 -0.707107 0.707107
vn 0 0 1
vn 0 0 -0
vn 0 0 -0
vn 0 0 -0
vn 0 -1 -0
vn 0 0 -1
vn 0 -0.707107 0.707107
vn 0 -0.707107 -0.707107
vn 0 0 -0
vn 0 0 -0
vn 0 -0.707107 -0.707107
vn 0 -0.707107 0.707107
vn 0 0 -0
vn 0 0 -0
vn 0 0 -0
vn 0 0 -1
vn 0 0 1
vn 0 0 1
vn 0 0 -0
vn 0 0 -0
vn 0 0 -0

vt -0.25 0.109375
vt -0.015625 0.5625
vt -0.015625 0.364602
vt -0.015625 0.109375
vt 0.015625 0.386699
vt -0.015625 0.640625
vt 0 0
vt -0.25 0.5625
vt 0.25 0.364602
vt -0.25 -0.109375
vt -0.25 0.386699
vt -0.25 0.640625
vt 0 0
vt 0 0
vt 0 0
vt -0.015625 -0.109375
vt -0.25 0.640625
vt -0.25 0.364602
vt 0.015625 0.364602
vt 0 0
vt 0 0
vt 0.25 0.386699
vt -0.015625 0.386699
vt 0 0
vt 0 0
vt 0 0
vt -0.015625 0.5625
vt -0.25 0.5625
vt -0.015625 0.640625
vt 0 0
vt 0 0
vt 0 0

s off
g mesh_12

f 117/354/354 116/338/338 115/355/355 106/328/328
f 114/353/353 110/332/332 113/343/343 112/334/334
f 109/342/342 108/330/330 111/327/327 107/336/336
f 116/344/344 111/337/337 108/349/349 115/329/329
f 110/345/345 109/331/331 107/348/348 113/335/335

g default
v 8 -200 -56
v -8 -208 -64
v 8 -208 64
v 8 -224 64
v 8 -224 -64
v -8 -208 64
v 8 -208 -64
v -8 -200 -56
v -8 -200 56
v -8 -224 -64
v -8 -224 64
v 8 -200 56

vn 0 0 -0
vn 0 0 -0
vn 0 0.707107 0.707107
vn 0 0 1
vn 0 0 -0
vn 0 0 -1
vn 0 0 1
vn 0 0 -0
vn 0 0.707107 -0.707107
vn 0 0 -1
vn 0 0 -0
vn 0 0 1
vn 0 0.707107 0.707107
vn 0 0 -0
vn 0 0 -0
vn 0 0.707107 -0.707107
vn 0 0 -0
vn 0 0.707107 0.707107
vn 0 0 -0
vn 0 0 -0
vn 0 0 -1
vn 0 0 -0
vn 0 0 1
vn 0 0.707107 0.707107
vn 0 0 -1
vn 0 0.707107 -0.707107
vn 0 0.707107 -0.707107
vn 0 0 -0

vt 0 0
vt 0 0
vt 0.015625 0.353553
vt 0.015625 0.40625
vt 0 0
vt 0.015625 0.4375
vt -0.015625 0.40625
vt 0 0
vt 0.015625 0.353553
vt -0.015625 0.40625
vt 0 0
vt -0.015625 0.4375
vt 0.015625 0.37565
vt 0 0
vt 0 0
vt 0.015625 0.37565
vt 0 0
vt -0.015625 0.353553
vt 0 0
vt 0 0
vt 0.015625 0.40625
vt 0 0
vt 0.015625 0.4375
vt -0.015625 0.37565
vt -0.015625 0.4375
vt -0.015625 0.37565
vt -0.015625 0.353553
vt 0 0

s off
g mesh_13

f 123/365/365 128/370/370 121/381/381 120/362/362
f 124/379/379 122/364/364 127/383/383 119/368/368
f 126/376/376 123/382/382 120/371/371 129/361/361
f 118/385/385 124/384/384 119/374/374 125/367/367

g default
v 8 -200 56
v 128 -224 64
v 8 -208 -64
v 8 -224 -64
v 8 -224 64
v 128 -208 64
v 128 -200 -56
v 128 -200 56
v 8 -208 64
v 8 -200 -56
v 128 -224 -64
v 128 -208 -64

vn 0 0 -1
vn 0 0 -0
vn 0 0.707107 -0.707107
vn 0 0 -1
vn 0 0 -0
vn 0 0 1
vn 0 0 -0
vn 0 0 1
vn 0 0.707107 0.707107
vn 0 0 1
vn 0 0 -0
vn 0 0 -1
vn 0 0 -0
vn 0 0 -0
vn 0 0 -0
vn 0 0 -0
vn 0 0.707107 -0.707107
vn 0 0.707107 0.707107
vn 0 0 -0
vn 0 0 -0
vn 0 0 -1
vn 0 0.707107 -0.707107
vn 0 0 -0
vn 0 0 -0
vn 0 0.707107 0.707107
vn 0 0.707107 0.707107
vn 0 0 1
vn 0 0.707107 -0.707107

vt 0.25 0.40625
vt 0 0
vt -0.015625 0.353553
vt 0.015625 0.40625
vt 0 0
vt 0.015625 0.4375
vt 0 0
vt 0.015625 0.40625
vt 0.25 0.353553
vt 0.25 0.40625
vt 0 0
vt 0.25 0.4375
vt 0 0
vt 0 0
vt 0 0
vt 0 0
vt -0.015625 0.37565
vt 0.015625 0.37565
vt 0 0
vt 0 0
vt 0.015625 0.4375
vt -0.25 0.37565
vt 0 0
vt 0 0
vt 0.015625 0.353553
vt 0.25 0.37565
vt 0.25 0.4375
vt -0.25 0.353553

s off
g mesh_14

f 138/394/394 134/392/392 131/413/413 135/396/396
f 141/387/387 140/398/398 133/407/407 132/390/390
f 130/411/411 138/404/404 135/412/412 137/395/395
f 136/414/414 141/408/408 132/403/403 139/389/389

g default
v 8 -224 64
v -8 -224 -64
v 8 -288 -64
v 8 -224 -64
v -8 -288 -64
v -8 -288 64
v 8 -288 64
v -8 -224 64

vn 0 0 -0
vn 0 0 1
vn 0 0 1
vn 0 0 -1
vn 0 0 -1
vn 0 0 -1
vn 0 0 -0
vn 0 0 1
vn 0 0 -0
vn 0 0 -0
vn 0 0 -0
vn 0 0 1
vn 0 0 -0
vn 0 0 -0
vn 0 0 -1
vn 0 0 -0

vt 0 0
vt 0.015625 0.4375
vt -0.015625 0.4375
vt 0.015625 0.5625
vt 0.015625 0.4375
vt -0.015625 0.4375
vt 0 0
vt -0.015625 0.5625
vt 0 0
vt 0 0
vt 0 0
vt 0.015625 0.5625
vt 0 0
vt 0 0
vt -0.015625 0.5625
vt 0 0

s off
g mesh_15

f 145/419/419 144/418/418 146/429/429 143/420/420
f 149/417/417 147/422/422 148/426/426 142/416/416

g default
v 8 -224 -64
v 128 -288 64
v 8 -288 64
v 8 -224 64
v 128 -224 64
v 128 -224 -64
v 8 -288 -64
v 128 -288 -64
v 8 -224 62
v 8 -288 62
v 128 -288 62
v 128 -224 62
v 128 -224 -62
v 128 -288 -62
v 8 -288 -62
v 8 -224 -62

vn 0 0 1
vn 0 0 -1
vn 0 1 -0
vn -1 0 -0
vn 0 0 1
vn 1 0 -0
vn -1 0 -0
vn 0 0 -1
vn 0 -1 -0
vn 1 0 -0
vn 0 0 1
vn 0 -1 -0
vn 0 0 -1
vn 0 0 1
vn 0 1 -0
vn 0 0 -1
vn 0 -1 -0
vn 0 0 -0
vn 0 -1 -0
vn 1 0 -0
vn 0 -1 -0
vn -1 0 -0
vn 1 0 -0
vn 0 0 -0
vn 1 0 -0
vn 0 1 -0
vn 0 1 -0
vn 0 0 -0
vn 0 1 -0
vn -1 0 -0
vn -1 0 -0
vn 0 0 -0
vn 0 -1 -0
vn 0 0 -0
vn 0 -1 -0
vn -1 0 -0
vn 0 -1 -0
vn 1 0 -0
vn -1 0 -0
vn 0 0 -0
vn -1 0 -0
vn 0 1 -0
vn 0 1 -0
vn 0 0 -0
vn 0 1 -0
vn 1 0 -0
vn 1 0 -0
vn 0 0 -0

vt 0.25 0.5625
vt 0.25 0.5625
vt 0.25 -0.121094
vt -0.121094 0.5625
vt 0.015625 0.4375
vt -0.121094 0.4375
vt 0.121094 0.4375
vt 0.015625 0.4375
vt 0.015625 -0.121094
vt 0.121094 0.5625
vt 0.015625 0.5625
vt 0.25 0.121094
vt 0.25 0.4375
vt 0.25 0.4375
vt 0.015625 0.121094
vt 0.015625 0.5625
vt 0.015625 0.125
vt 0 0
vt 0.015625 0.121094
vt -0.125 0.4375
vt 0.25 0.125
vt -0.121094 0.4375
vt -0.125 0.5625
vt 0 0
vt -0.121094 0.5625
vt 0.015625 0.125
vt 0.25 0.125
vt 0 0
vt 0.25 0.121094
vt -0.125 0.5625
vt -0.125 0.4375
vt 0 0
vt 0.25 -0.125
vt 0 0
vt 0.25 -0.121094
vt 0.125 0.4375
vt 0.015625 -0.125
vt 0.121094 0.4375
vt 0.125 0.5625
vt 0 0
vt 0.121094 0.5625
vt 0.25 -0.125
vt 0.015625 -0.125
vt 0 0
vt 0.015625 -0.121094
vt 0.125 0.5625
vt 0.125 0.4375
vt 0 0

s off
g mesh_16

f 153/450/450 152/453/453 159/455/455 158/436/436
f 154/451/451 153/447/447 158/449/449 161/442/442
f 150/467/467 155/463/463 162/465/465 165/439/439
f 162/443/443 163/432/432 164/446/446 165/438/438
f 152/456/456 151/457/457 160/459/459 159/445/445
f 151/460/460 154/461/461 161/452/452 160/434/434
f 158/435/435 159/441/441 160/431/431 161/444/444
f 155/466/466 157/469/469 163/471/471 162/437/437
f 157/472/472 156/473/473 164/475/475 163/433/433
f 156/476/476 150/477/477 165/468/468 164/440/440

g default
v 8 -288 64
v 8 -328 64
v 8 -336 56
v 8 -336 -56
v 8 -328 -64
v -8 -336 -56
v -8 -336 56
v -8 -328 -64
v 8 -288 -64
v -8 -288 -64
v -8 -328 64
v -8 -288 64

vn 0 0 1
vn 0 0 1
vn 0 -0.707107 0.707107
vn 0 -1 -0
vn 0 -0.707107 -0.707107
vn 0 0 -1
vn 0 0 -0
vn 0 0 -1
vn 0 -0.707107 -0.707107
vn 0 -1 -0
vn 0 -0.707107 0.707107
vn 0 0 1
vn 0 0 -0
vn 0 0 1
vn 0 -0.707107 -0.707107
vn 0 -0.707107 -0.707107
vn 0 0 -0
vn 0 -1 -0
vn 0 0 -0
vn 0 -0.707107 0.707107
vn 0 0 -0
vn 0 0 -0
vn 0 0 -1
vn 0 0 -0
vn 0 0 -0
vn 0 0 -0
vn 0 -0.707107 0.707107
vn 0 0 -0
vn 0 0 -0
vn 0 0 -0
vn 0 -1 -0
vn 0 0 -1

vt -0.015625 0.5625
vt 0.015625 0.5625
vt 0.015625 0.364602
vt 0.015625 0.109375
vt -0.0156249 0.386699
vt 0.015625 0.640625
vt 0 0
vt -0.015625 0.5625
vt 0.0156251 0.364602
vt -0.015625 -0.109375
vt -0.015625 0.386699
vt -0.015625 0.640625
vt 0 0
vt 0.015625 0.640625
vt -0.0156249 0.364602
vt 0.0156251 0.386699
vt 0 0
vt -0.015625 0.109375
vt 0 0
vt -0.015625 0.364602
vt 0 0
vt 0 0
vt 0.015625 0.5625
vt 0 0
vt 0 0
vt 0 0
vt 0.015625 0.386699
vt 0 0
vt 0 0
vt 0 0
vt 0.015625 -0.109375
vt -0.015625 0.640625

s off
g mesh_17

f 174/501/501 170/484/484 173/510/510 175/486/486
f 177/479/479 176/490/490 167/492/492 166/480/480
f 169/509/509 168/482/482 172/496/496 171/488/488
f 170/493/493 169/483/483 171/494/494 173/487/487
f 176/498/498 172/489/489 168/505/505 167/481/481

g default
v 8 -288 -64
v 128 -336 56
v 8 -336 -56
v 8 -336 56
v 8 -328 64
v 128 -288 -64
v 128 -288 64
v 128 -328 64
v 8 -288 64
v 8 -328 -64
v 128 -328 -64
v 128 -336 -56

vn 0 -1 -0
vn 0 0 -1
vn 0 -0.707107 -0.707107
vn 0 -1 -0
vn 0 -0.707107 0.707107
vn 0 0 1
vn 0 0 -0
vn 0 0 1
vn 0 -0.707107 0.707107
vn 0 -1 -0
vn 0 -0.707107 -0.707107
vn 0 0 -1
vn 0 0 -0
vn 0 0 -0
vn 0 0 -0
vn 0 0 -0
vn 0 0 1
vn 0 -0.707107 -0.707107
vn 0 -0.707107 0.707107
vn 0 0 -0
vn 0 0 1
vn 0 0 -1
vn 0 0 -0
vn 0 0 -0
vn 0 -0.707107 -0.707107
vn 0 -1 -0
vn 0 0 -0
vn 0 -0.707107 0.707107
vn 0 0 -1
vn 0 0 -0
vn 0 0 -0
vn 0 0 -0

vt 0.015625 0.109375
vt 0.015625 0.5625
vt -0.015625 0.364602
vt 0.015625 -0.109375
vt 0.015625 0.386699
vt 0.015625 0.640625
vt 0 0
vt 0.25 0.5625
vt 0.25 0.364602
vt 0.25 0.109375
vt -0.25 0.386699
vt 0.25 0.640625
vt 0 0
vt 0 0
vt 0 0
vt 0 0
vt 0.25 0.640625
vt -0.25 0.364602
vt 0.015625 0.364602
vt 0 0
vt 0.015625 0.5625
vt 0.25 0.5625
vt 0 0
vt 0 0
vt -0.015625 0.386699
vt 0.25 -0.109375
vt 0 0
vt 0.25 0.386699
vt 0.015625 0.640625
vt 0 0
vt 0 0
vt 0 0

s off
g mesh_18

f 183/532/532 188/522/522 187/539/539 178/512/512
f 186/531/531 182/516/516 185/527/527 184/518/518
f 189/536/536 179/520/520 181/511/511 180/514/514
f 188/528/528 189/521/521 180/535/535 187/513/513
f 182/529/529 181/515/515 179/538/538 185/519/519

